<svg width="19" height="20" viewBox="0 0 19 20" fill="none" xmlns="http://www.w3.org/2000/svg">
<path d="M2.5 20C1.95 20 1.47917 19.8042 1.0875 19.4125C0.695833 19.0208 0.5 18.55 0.5 18V4C0.5 3.45 0.695833 2.97917 1.0875 2.5875C1.47917 2.19583 1.95 2 2.5 2H3.5V0H5.5V2H13.5V0H15.5V2H16.5C17.05 2 17.5208 2.19583 17.9125 2.5875C18.3042 2.97917 18.5 3.45 18.5 4V18C18.5 18.55 18.3042 19.0208 17.9125 19.4125C17.5208 19.8042 17.05 20 16.5 20H2.5ZM2.5 18H16.5V8H2.5V18ZM2.5 6H16.5V4H2.5V6ZM9.5 12C9.21667 12 8.97917 11.9042 8.7875 11.7125C8.59583 11.5208 8.5 11.2833 8.5 11C8.5 10.7167 8.59583 10.4792 8.7875 10.2875C8.97917 10.0958 9.21667 10 9.5 10C9.78333 10 10.0208 10.0958 10.2125 10.2875C10.4042 10.4792 10.5 10.7167 10.5 11C10.5 11.2833 10.4042 11.5208 10.2125 11.7125C10.0208 11.9042 9.78333 12 9.5 12ZM5.5 12C5.21667 12 4.97917 11.9042 4.7875 11.7125C4.59583 11.5208 4.5 11.2833 4.5 11C4.5 10.7167 4.59583 10.4792 4.7875 10.2875C4.97917 10.0958 5.21667 10 5.5 10C5.78333 10 6.02083 10.0958 6.2125 10.2875C6.40417 10.4792 6.5 10.7167 6.5 11C6.5 11.2833 6.40417 11.5208 6.2125 11.7125C6.02083 11.9042 5.78333 12 5.5 12ZM13.5 12C13.2167 12 12.9792 11.9042 12.7875 11.7125C12.5958 11.5208 12.5 11.2833 12.5 11C12.5 10.7167 12.5958 10.4792 12.7875 10.2875C12.9792 10.0958 13.2167 10 13.5 10C13.7833 10 14.0208 10.0958 14.2125 10.2875C14.4042 10.4792 14.5 10.7167 14.5 11C14.5 11.2833 14.4042 11.5208 14.2125 11.7125C14.0208 11.9042 13.7833 12 13.5 12ZM9.5 16C9.21667 16 8.97917 15.9042 8.7875 15.7125C8.59583 15.5208 8.5 15.2833 8.5 15C8.5 14.7167 8.59583 14.4792 8.7875 14.2875C8.97917 14.0958 9.21667 14 9.5 14C9.78333 14 10.0208 14.0958 10.2125 14.2875C10.4042 14.4792 10.5 14.7167 10.5 15C10.5 15.2833 10.4042 15.5208 10.2125 15.7125C10.0208 15.9042 9.78333 16 9.5 16ZM5.5 16C5.21667 16 4.97917 15.9042 4.7875 15.7125C4.59583 15.5208 4.5 15.2833 4.5 15C4.5 14.7167 4.59583 14.4792 4.7875 14.2875C4.97917 14.0958 5.21667 14 5.5 14C5.78333 14 6.02083 14.0958 6.2125 14.2875C6.40417 14.4792 6.5 14.7167 6.5 15C6.5 15.2833 6.40417 15.5208 6.2125 15.7125C6.02083 15.9042 5.78333 16 5.5 16ZM13.5 16C13.2167 16 12.9792 15.9042 12.7875 15.7125C12.5958 15.5208 12.5 15.2833 12.5 15C12.5 14.7167 12.5958 14.4792 12.7875 14.2875C12.9792 14.0958 13.2167 14 13.5 14C13.7833 14 14.0208 14.0958 14.2125 14.2875C14.4042 14.4792 14.5 14.7167 14.5 15C14.5 15.2833 14.4042 15.5208 14.2125 15.7125C14.0208 15.9042 13.7833 16 13.5 16Z" fill="#666666"/>
</svg>
