<svg width="500" height="500" viewBox="0 0 500 500" fill="none" xmlns="http://www.w3.org/2000/svg">
<g clip-path="url(#clip0_61_1742)">
<rect width="500" height="500" rx="10" fill="black"/>
<path d="M297.616 410.5V325.438H318.176V393.803H353.563V410.5H297.616Z" fill="#00A2FF"/>
<path d="M226.757 410.5H204.661L233.361 325.438H260.732L289.432 410.5H267.336L247.358 346.869H246.694L226.757 410.5ZM223.808 377.023H269.994V392.64H223.808V377.023Z" fill="#00A2FF"/>
<path d="M137.146 410.5V325.438H196.456V342.135H157.705V359.579H193.424V376.317H157.705V393.803H196.456V410.5H137.146Z" fill="#00A2FF"/>
<path d="M84.126 410.5H52.6846V325.438H84.0844C92.7512 325.438 100.214 327.141 106.471 330.547C112.757 333.925 117.603 338.798 121.008 345.167C124.414 351.507 126.117 359.094 126.117 367.927C126.117 376.788 124.414 384.403 121.008 390.771C117.63 397.14 112.798 402.027 106.513 405.433C100.227 408.811 92.7651 410.5 84.126 410.5ZM73.244 392.972H83.3368C88.0994 392.972 92.1282 392.169 95.4233 390.563C98.746 388.93 101.252 386.285 102.941 382.63C104.658 378.948 105.516 374.047 105.516 367.927C105.516 361.808 104.658 356.935 102.941 353.307C101.224 349.652 98.6906 347.022 95.3402 345.416C92.0174 343.782 87.9194 342.965 83.0461 342.965H73.244V392.972Z" fill="#00A2FF"/>
<path d="M384.861 208.438H407.83L425.814 244.033H426.562L444.546 208.438H467.514L436.405 265.09V293.5H415.97V265.09L384.861 208.438Z" fill="#00A2FF"/>
<path d="M326.919 293.5H304.823L333.523 208.438H360.894L389.595 293.5H367.498L347.52 229.87H346.856L326.919 293.5ZM323.971 260.023H370.157V275.64H323.971V260.023Z" fill="#00A2FF"/>
<path d="M260.525 293.5H229.084V208.438H260.484C269.151 208.438 276.613 210.141 282.871 213.547C289.156 216.925 294.002 221.798 297.408 228.167C300.814 234.507 302.516 242.094 302.516 250.927C302.516 259.788 300.814 267.403 297.408 273.771C294.03 280.14 289.198 285.027 282.912 288.433C276.627 291.811 269.164 293.5 260.525 293.5ZM249.643 275.972H259.736C264.499 275.972 268.528 275.169 271.823 273.563C275.145 271.93 277.651 269.285 279.34 265.63C281.057 261.948 281.915 257.047 281.915 250.927C281.915 244.808 281.057 239.935 279.34 236.307C277.624 232.652 275.09 230.022 271.74 228.416C268.417 226.782 264.319 225.965 259.445 225.965H249.643V275.972Z" fill="#00A2FF"/>
<path d="M217.152 208.438V293.5H196.593V208.438H217.152Z" fill="#00A2FF"/>
<path d="M120.127 293.5V208.438H155.265C161.633 208.438 167.13 209.587 171.754 211.885C176.406 214.156 179.992 217.423 182.511 221.687C185.031 225.924 186.291 230.949 186.291 236.764C186.291 242.662 185.003 247.674 182.428 251.8C179.853 255.898 176.198 259.027 171.463 261.186C166.728 263.318 161.121 264.384 154.642 264.384H132.421V248.186H150.821C153.922 248.186 156.511 247.785 158.588 246.982C160.692 246.151 162.284 244.905 163.364 243.244C164.444 241.554 164.984 239.395 164.984 236.764C164.984 234.134 164.444 231.96 163.364 230.243C162.284 228.499 160.692 227.197 158.588 226.339C156.483 225.453 153.894 225.01 150.821 225.01H140.686V293.5H120.127ZM168.016 254.624L189.198 293.5H166.77L146.003 254.624H168.016Z" fill="#00A2FF"/>
<path d="M52.6846 293.5V208.438H110.749V225.135H73.244V242.579H107.053V259.317H73.244V293.5H52.6846Z" fill="#00A2FF"/>
<path d="M369.398 176.5V91.4379H389.958V127.406H391.079L419.198 91.4379H443.412L413.259 129.4L443.952 176.5H419.364L398.182 143.065L389.958 153.448V176.5H369.398Z" fill="#00A2FF"/>
<path d="M358.609 122.256H337.842C337.565 120.124 336.998 118.2 336.139 116.483C335.281 114.766 334.146 113.299 332.733 112.08C331.321 110.862 329.646 109.934 327.708 109.298C325.797 108.633 323.679 108.301 321.353 108.301C317.227 108.301 313.669 109.311 310.679 111.333C307.716 113.354 305.432 116.275 303.826 120.096C302.247 123.918 301.458 128.542 301.458 133.969C301.458 139.618 302.261 144.352 303.867 148.174C305.501 151.967 307.785 154.833 310.72 156.771C313.683 158.682 317.186 159.637 321.228 159.637C323.499 159.637 325.562 159.346 327.417 158.765C329.3 158.183 330.947 157.339 332.36 156.231C333.799 155.096 334.976 153.725 335.89 152.119C336.831 150.486 337.482 148.644 337.842 146.595L358.609 146.72C358.249 150.486 357.156 154.196 355.328 157.851C353.528 161.506 351.05 164.843 347.893 167.861C344.737 170.851 340.888 173.233 336.347 175.005C331.834 176.777 326.656 177.663 320.813 177.663C313.115 177.663 306.221 175.974 300.129 172.596C294.065 169.19 289.275 164.233 285.758 157.726C282.242 151.219 280.483 143.3 280.483 133.969C280.483 124.61 282.269 116.677 285.841 110.17C289.413 103.663 294.245 98.7202 300.337 95.3421C306.428 91.964 313.254 90.2749 320.813 90.2749C325.963 90.2749 330.726 90.9948 335.101 92.4347C339.476 93.8468 343.325 95.9236 346.647 98.6648C349.97 101.378 352.67 104.715 354.747 108.675C356.823 112.634 358.111 117.161 358.609 122.256Z" fill="#00A2FF"/>
<path d="M214.536 176.5H192.439L221.14 91.4379H248.511L277.211 176.5H255.115L235.137 112.87H234.472L214.536 176.5ZM211.587 143.023H257.773V158.64H211.587V143.023Z" fill="#00A2FF"/>
<path d="M129.379 176.5V91.4379H149.938V159.803H185.325V176.5H129.379Z" fill="#00A2FF"/>
<path d="M52.6846 176.5V91.4379H88.1548C94.5233 91.4379 99.8536 92.3378 104.145 94.1376C108.465 95.9374 111.705 98.4571 113.864 101.697C116.052 104.936 117.146 108.688 117.146 112.953C117.146 116.192 116.467 119.086 115.11 121.633C113.754 124.153 111.885 126.244 109.503 127.905C107.122 129.566 104.367 130.729 101.238 131.394V132.224C104.672 132.391 107.842 133.318 110.749 135.007C113.684 136.696 116.038 139.05 117.81 142.068C119.582 145.059 120.468 148.603 120.468 152.701C120.468 157.27 119.305 161.354 116.98 164.953C114.654 168.525 111.289 171.35 106.887 173.426C102.484 175.475 97.14 176.5 90.8545 176.5H52.6846ZM73.244 159.928H85.9535C90.4115 159.928 93.6927 159.083 95.7971 157.394C97.9292 155.705 98.9952 153.352 98.9952 150.333C98.9952 148.146 98.4829 146.263 97.4584 144.685C96.4339 143.079 94.9802 141.847 93.0973 140.988C91.2145 140.102 88.9578 139.659 86.3273 139.659H73.244V159.928ZM73.244 126.41H84.6244C86.8672 126.41 88.8609 126.036 90.6053 125.288C92.3497 124.541 93.7065 123.461 94.6756 122.049C95.6725 120.636 96.1709 118.934 96.1709 116.94C96.1709 114.088 95.1602 111.845 93.1389 110.211C91.1175 108.578 88.3901 107.761 84.9566 107.761H73.244V126.41Z" fill="#00A2FF"/>
</g>
<defs>
<clipPath id="clip0_61_1742">
<rect width="500" height="500" rx="10" fill="white"/>
</clipPath>
</defs>
</svg>
