<svg width="23" height="21" viewBox="0 0 23 21" fill="none" xmlns="http://www.w3.org/2000/svg">
<path d="M0.5 21L5.5 7L14.5 16L0.5 21ZM3.8 17.7L10.85 15.2L6.3 10.65L3.8 17.7ZM13.05 11.55L12 10.5L17.6 4.9C18.1333 4.36667 18.775 4.1 19.525 4.1C20.275 4.1 20.9167 4.36667 21.45 4.9L22.05 5.5L21 6.55L20.4 5.95C20.1667 5.71667 19.875 5.6 19.525 5.6C19.175 5.6 18.8833 5.71667 18.65 5.95L13.05 11.55ZM9.05 7.55L8 6.5L8.6 5.9C8.83333 5.66667 8.95 5.38333 8.95 5.05C8.95 4.71667 8.83333 4.43333 8.6 4.2L7.95 3.55L9 2.5L9.65 3.15C10.1833 3.68333 10.45 4.31667 10.45 5.05C10.45 5.78333 10.1833 6.41667 9.65 6.95L9.05 7.55ZM11.05 9.55L10 8.5L13.6 4.9C13.8333 4.66667 13.95 4.375 13.95 4.025C13.95 3.675 13.8333 3.38333 13.6 3.15L12 1.55L13.05 0.5L14.65 2.1C15.1833 2.63333 15.45 3.275 15.45 4.025C15.45 4.775 15.1833 5.41667 14.65 5.95L11.05 9.55ZM15.05 13.55L14 12.5L15.6 10.9C16.1333 10.3667 16.775 10.1 17.525 10.1C18.275 10.1 18.9167 10.3667 19.45 10.9L21.05 12.5L20 13.55L18.4 11.95C18.1667 11.7167 17.875 11.6 17.525 11.6C17.175 11.6 16.8833 11.7167 16.65 11.95L15.05 13.55Z" fill="#666666"/>
</svg>
