<svg width="20" height="20" viewBox="0 0 20 20" fill="none" xmlns="http://www.w3.org/2000/svg">
<path d="M7.5 2.49998V0.833313H12.5V2.49998H7.5ZM9.16667 11.6666H10.8333V6.66665H9.16667V11.6666ZM10 18.3333C8.97222 18.3333 8.00347 18.1354 7.09375 17.7396C6.18403 17.3437 5.38889 16.8055 4.70833 16.125C4.02778 15.4444 3.48958 14.6493 3.09375 13.7396C2.69792 12.8298 2.5 11.8611 2.5 10.8333C2.5 9.80554 2.69792 8.83679 3.09375 7.92706C3.48958 7.01734 4.02778 6.2222 4.70833 5.54165C5.38889 4.86109 6.18403 4.3229 7.09375 3.92706C8.00347 3.53123 8.97222 3.33331 10 3.33331C10.8611 3.33331 11.6875 3.4722 12.4792 3.74998C13.2708 4.02776 14.0139 4.43054 14.7083 4.95831L15.875 3.79165L17.0417 4.95831L15.875 6.12498C16.4028 6.81942 16.8056 7.56248 17.0833 8.35415C17.3611 9.14581 17.5 9.9722 17.5 10.8333C17.5 11.8611 17.3021 12.8298 16.9062 13.7396C16.5104 14.6493 15.9722 15.4444 15.2917 16.125C14.6111 16.8055 13.816 17.3437 12.9062 17.7396C11.9965 18.1354 11.0278 18.3333 10 18.3333ZM10 16.6666C11.6111 16.6666 12.9861 16.0972 14.125 14.9583C15.2639 13.8194 15.8333 12.4444 15.8333 10.8333C15.8333 9.2222 15.2639 7.8472 14.125 6.70831C12.9861 5.56942 11.6111 4.99998 10 4.99998C8.38889 4.99998 7.01389 5.56942 5.875 6.70831C4.73611 7.8472 4.16667 9.2222 4.16667 10.8333C4.16667 12.4444 4.73611 13.8194 5.875 14.9583C7.01389 16.0972 8.38889 16.6666 10 16.6666Z" fill="#1032CF"/>
</svg>
