<svg width="19" height="21" viewBox="0 0 19 21" fill="none" xmlns="http://www.w3.org/2000/svg">
<path d="M6.5 2V0H12.5V2H6.5ZM8.5 13H10.5V7H8.5V13ZM9.5 21C8.26667 21 7.10417 20.7625 6.0125 20.2875C4.92083 19.8125 3.96667 19.1667 3.15 18.35C2.33333 17.5333 1.6875 16.5792 1.2125 15.4875C0.7375 14.3958 0.5 13.2333 0.5 12C0.5 10.7667 0.7375 9.60417 1.2125 8.5125C1.6875 7.42083 2.33333 6.46667 3.15 5.65C3.96667 4.83333 4.92083 4.1875 6.0125 3.7125C7.10417 3.2375 8.26667 3 9.5 3C10.5333 3 11.525 3.16667 12.475 3.5C13.425 3.83333 14.3167 4.31667 15.15 4.95L16.55 3.55L17.95 4.95L16.55 6.35C17.1833 7.18333 17.6667 8.075 18 9.025C18.3333 9.975 18.5 10.9667 18.5 12C18.5 13.2333 18.2625 14.3958 17.7875 15.4875C17.3125 16.5792 16.6667 17.5333 15.85 18.35C15.0333 19.1667 14.0792 19.8125 12.9875 20.2875C11.8958 20.7625 10.7333 21 9.5 21ZM9.5 19C11.4333 19 13.0833 18.3167 14.45 16.95C15.8167 15.5833 16.5 13.9333 16.5 12C16.5 10.0667 15.8167 8.41667 14.45 7.05C13.0833 5.68333 11.4333 5 9.5 5C7.56667 5 5.91667 5.68333 4.55 7.05C3.18333 8.41667 2.5 10.0667 2.5 12C2.5 13.9333 3.18333 15.5833 4.55 16.95C5.91667 18.3167 7.56667 19 9.5 19Z" fill="#F6A724"/>
</svg>
