<svg width="25" height="24" viewBox="0 0 25 24" fill="none" xmlns="http://www.w3.org/2000/svg">
<path d="M12.5 22C6.99 22 2.5 17.51 2.5 12C2.5 6.49 6.99 2 12.5 2C18.01 2 22.5 6.04 22.5 11C22.5 14.31 19.81 17 16.5 17H14.73C14.45 17 14.23 17.22 14.23 17.5C14.23 17.62 14.28 17.73 14.36 17.83C14.77 18.3 15 18.89 15 19.5C15 20.88 13.88 22 12.5 22ZM12.5 4C8.09 4 4.5 7.59 4.5 12C4.5 16.41 8.09 20 12.5 20C12.78 20 13 19.78 13 19.5C13 19.34 12.92 19.22 12.86 19.15C12.45 18.69 12.23 18.1 12.23 17.5C12.23 16.12 13.35 15 14.73 15H16.5C18.71 15 20.5 13.21 20.5 11C20.5 7.14 16.91 4 12.5 4Z" fill="#141414"/>
<path d="M7 13C7.82843 13 8.5 12.3284 8.5 11.5C8.5 10.6716 7.82843 10 7 10C6.17157 10 5.5 10.6716 5.5 11.5C5.5 12.3284 6.17157 13 7 13Z" fill="#141414"/>
<path d="M10 9C10.8284 9 11.5 8.32843 11.5 7.5C11.5 6.67157 10.8284 6 10 6C9.17157 6 8.5 6.67157 8.5 7.5C8.5 8.32843 9.17157 9 10 9Z" fill="#141414"/>
<path d="M15 9C15.8284 9 16.5 8.32843 16.5 7.5C16.5 6.67157 15.8284 6 15 6C14.1716 6 13.5 6.67157 13.5 7.5C13.5 8.32843 14.1716 9 15 9Z" fill="#141414"/>
<path d="M18 13C18.8284 13 19.5 12.3284 19.5 11.5C19.5 10.6716 18.8284 10 18 10C17.1716 10 16.5 10.6716 16.5 11.5C16.5 12.3284 17.1716 13 18 13Z" fill="#141414"/>
</svg>
