<svg width="17" height="18" viewBox="0 0 17 18" fill="none" xmlns="http://www.w3.org/2000/svg">
<path d="M8.49935 0.667969C3.89935 0.667969 0.166016 4.4013 0.166016 9.0013C0.166016 13.6013 3.89935 17.3346 8.49935 17.3346C13.0993 17.3346 16.8327 13.6013 16.8327 9.0013C16.8327 4.4013 13.0993 0.667969 8.49935 0.667969ZM8.49935 13.168C8.04102 13.168 7.66602 12.793 7.66602 12.3346V9.0013C7.66602 8.54297 8.04102 8.16797 8.49935 8.16797C8.95768 8.16797 9.33268 8.54297 9.33268 9.0013V12.3346C9.33268 12.793 8.95768 13.168 8.49935 13.168ZM9.33268 6.5013H7.66602V4.83464H9.33268V6.5013Z" fill="#CECECE"/>
</svg>
