<?xml version="1.0" encoding="utf-8"?>
<!-- Generator: Adobe Illustrator 27.9.4, SVG Export Plug-In . SVG Version: 9.03 Build 54784)  -->
<svg version="1.1" id="Layer_1" xmlns="http://www.w3.org/2000/svg" xmlns:xlink="http://www.w3.org/1999/xlink" x="0px" y="0px"
	 width="80px" height="80px" viewBox="0 0 80 80" style="enable-background:new 0 0 80 80;" xml:space="preserve">
<style type="text/css">
	.st0{fill:#1032CF;}
</style>
<path class="st0" d="M40,42.2c-1.9,0-3.7-0.3-5.3-0.9c-1.6-0.6-3.1-1.5-4.4-2.5l-11.7,0c-4,0-7.9,0-14.3,0h0c-0.6,0-1.1,0.3-1.5,0.6
	c-0.4,0.4-0.7,1-0.9,1.8v15.6c0.2,0.8,0.5,1.4,0.9,1.7c0.4,0.3,0.9,0.5,1.5,0.5l0.1,0h31.1c0.4,0,0.7,0.2,0.8,0.6l0,0
	c0.9,2,1.8,3.7,2.5,5.3c0.5,1,0.9,1.9,1.3,2.6c0.7-1.3,1.4-2.6,2-3.8c0.8-1.6,1.5-3,2-4.2c0.1-0.3,0.5-0.6,0.8-0.6h30.8
	c0.8,0,1.4-0.2,1.8-0.6c0.4-0.3,0.6-0.9,0.7-1.6V41.1c-0.1-0.8-0.4-1.4-0.8-1.8c-0.4-0.4-0.9-0.6-1.6-0.6h0l-0.1,0l-10.1,0
	c-4.1,0-8.6,0-15.8,0c-1.3,1.1-2.8,2-4.5,2.6C43.7,41.8,41.9,42.2,40,42.2L40,42.2z M14.9,55.1c-0.6-0.4-1.2-0.8-1.7-1.1
	c-0.4-0.3-0.8-0.5-1.2-0.7c-0.5,0.3-1,0.5-1.5,0.8c-0.6,0.3-1.1,0.7-1.5,1c-0.2,0.1-0.4,0.2-0.6,0.2c-0.1,0-0.2,0-0.3-0.1l0,0l0,0
	l0,0l0,0c-0.1-0.1-0.2-0.1-0.3-0.2c-0.1-0.2-0.2-0.4-0.2-0.6v0c0-0.6,0.1-1.2,0.2-1.9c0.1-0.6,0.2-1.2,0.4-1.8l-1.2-1.1l-1.4-1.3
	c-0.2-0.1-0.3-0.3-0.3-0.5c-0.1-0.5,0.2-1,0.7-1c0.6-0.1,1.2-0.2,1.9-0.3c0.5-0.1,1.1-0.1,1.7-0.2c0.3-0.7,0.6-1.3,0.8-1.8
	c0.3-0.6,0.6-1.1,0.8-1.5v0l0,0v0l0,0v0l0,0l0,0l0,0l0,0l0,0l0,0l0,0l0,0l0,0l0,0l0,0l0,0l0,0l0,0l0,0l0,0l0,0l0,0l0,0h0l0.1,0h0
	l0,0l0,0l0,0l0,0l0.1-0.1l0,0l0,0l0,0l0,0l0.1,0h0l0,0h0l0,0H12l0,0h0l0,0h0l0.1,0l0,0l0,0l0,0l0,0l0.1,0.1l0,0l0,0l0,0l0,0h0l0.1,0
	h0l0,0l0,0l0,0l0,0l0,0l0,0l0,0l0,0l0,0l0,0l0,0l0,0l0,0l0,0l0,0l0,0l0,0l0,0l0,0v0l0,0v0l0,0v0c0.2,0.4,0.5,0.9,0.8,1.5
	c0.2,0.5,0.5,1.1,0.8,1.8c0.6,0,1.2,0.1,1.7,0.2c0.7,0.1,1.3,0.2,1.9,0.3l0,0h0l0,0h0l0,0h0l0,0h0l0,0l0,0l0,0l0,0l0,0l0,0l0,0l0,0
	l0,0l0,0l0,0l0,0l0,0l0,0l0,0l0,0l0,0l0,0l0,0l0,0l0,0l0,0l0,0l0,0l0,0l0,0l0,0l0,0l0,0l0,0l0,0l0,0l0,0l0,0l0,0l0,0l0,0l0,0l0,0
	l0,0l0,0l0,0l0,0l0,0l0,0l0,0l0,0l0,0l0,0l0,0l0,0l0,0l0,0l0,0l0,0l0,0l0,0l0,0l0,0l0,0l0,0l0,0l0,0l0,0l0,0l0,0v0l0,0v0l0,0v0l0,0
	v0.1l0,0v0l0,0l0,0v0l0,0v0l0,0v0l0,0v0l0,0l0,0l0,0l0,0l0,0l0,0l0,0l0,0l0,0l0,0l0,0l0,0l0,0l0,0l0,0l0,0l0,0l0,0l0,0l0,0l0,0l0,0
	l0,0l0,0c-0.8,0.8-1.7,1.6-2.6,2.4c0.1,0.6,0.3,1.2,0.4,1.8c0.1,0.7,0.2,1.4,0.2,1.9v0.1l0,0v0l0,0v0l0,0v0l0,0v0l0,0v0l0,0l0,0.1
	l0,0v0l0,0v0l0,0v0l0,0v0l0,0l0,0l0,0l0,0l0,0l0,0l0,0l0,0l0,0l0,0l0,0l0,0l0,0l0,0l0,0l0,0l0,0l0,0l0,0l0,0l0,0l0,0l0,0l0,0v0l0,0
	l0,0l0,0l0,0l0,0l0,0l0,0h0l0,0l0,0l0,0h0l0,0h0l0,0h0l0,0l0,0l0,0h0l0,0l-0.1,0l0,0h0l0,0h0l0,0h0l0,0h0l0,0h-0.2l0,0h0l0,0h0l0,0
	h0l0,0h0l0,0h0l0,0l-0.1,0l0,0h0l0,0h0l0,0h0l0,0h0l0,0l0,0L14.9,55.1L14.9,55.1L14.9,55.1L14.9,55.1L14.9,55.1L14.9,55.1L14.9,55.1
	L14.9,55.1L14.9,55.1L14.9,55.1z M11.6,51.5c0.1,0,0.2-0.1,0.3-0.1l0,0l0.1,0h0c0.2,0,0.3,0,0.5,0.1c0.5,0.3,1.1,0.6,1.6,1l0.2,0.1
	c-0.1-0.6-0.2-1.3-0.4-2.1l0,0l0,0l0,0l0,0v0l0,0l0,0v0l0,0v0l0-0.1v-0.1l0-0.1l0,0l0,0v0l0,0v0l0-0.1l0.1-0.1v0l0,0l0,0l0,0l0,0
	l0,0l0,0l0,0l0,0l0,0l0,0l0,0l0,0l0,0l0,0l0,0l0,0l0,0c0.6-0.5,1.1-1,1.6-1.5c-0.7-0.1-1.4-0.1-2.1-0.2l0,0h0l0,0h0
	c-0.1,0-0.2-0.1-0.3-0.1l-0.1,0l0,0l0,0l0,0l0,0l0,0v0l0,0v0l0,0v0c0,0-0.1-0.1-0.1-0.1l0,0l0,0l0-0.1l0,0l0,0l0,0l0,0l0,0
	c-0.4-0.8-0.7-1.6-1-2.1l0,0l0,0c-0.3,0.6-0.6,1.3-1,2.2l0,0l0,0l0,0l0,0l0,0l0,0.1l0,0l0,0c0,0.1-0.1,0.1-0.1,0.1v0l0,0v0l0,0v0
	l0,0l0,0l0,0l0,0l0,0l-0.1,0c-0.1,0.1-0.2,0.1-0.3,0.1h0l0,0h0l0,0c-0.8,0-1.5,0.1-2.1,0.2l0.1,0.1l1.5,1.4l0,0l0,0l0,0l0,0l0,0l0,0
	l0,0l0,0l0,0l0,0l0,0l0,0l0,0l0,0l0,0v0l0.1,0.1l0,0.1v0l0,0v0l0,0l0,0l0,0.1v0.1l0,0.1v0l0,0v0l0,0l0,0v0l0,0l0,0l0,0l0,0
	c-0.2,0.8-0.3,1.4-0.4,2.1l0.1,0C10.2,52.2,10.9,51.9,11.6,51.5L11.6,51.5L11.6,51.5L11.6,51.5z M70.9,55.1
	c-0.6-0.4-1.2-0.8-1.7-1.1c-0.4-0.3-0.8-0.5-1.2-0.7c-0.5,0.3-1,0.5-1.4,0.8l0,0c-0.6,0.3-1.1,0.7-1.5,1c-0.2,0.1-0.4,0.2-0.6,0.2
	c-0.1,0-0.2,0-0.3-0.1l0,0l0,0l0,0l0,0c-0.1-0.1-0.2-0.1-0.3-0.2c-0.1-0.2-0.2-0.4-0.2-0.6v0c0-0.6,0.1-1.2,0.2-1.9
	c0.1-0.6,0.2-1.2,0.4-1.8L63,49.6l-1.4-1.3l-0.1,0l0,0l0,0l0,0l0,0l0,0l0,0l0,0l0,0l0,0l0,0l0,0l0,0l0,0l0,0l0,0l0,0l0,0l0,0l0,0
	l0,0l0,0l0,0l0,0v0l0,0v0l0,0v0l0,0v0l0,0l0,0v0l0,0v-0.1l0,0v0l0,0v0l0,0v0l0,0l0,0l0,0l0,0l0,0l0,0l0,0l0,0l0,0l0,0l0,0l0,0l0,0
	l0,0l0,0l0,0l0,0l0,0l0,0l0,0l0,0l0,0l0,0l0,0l0,0l0,0l0,0l0,0l0,0l0,0l0,0l0,0l0,0l0,0l0,0l0,0l0,0l0,0l0,0l0,0l0,0l0,0l0,0l0,0
	l0,0l0,0l0,0l0,0l0,0l0,0l0,0l0,0l0,0l0,0l0,0l0,0l0,0l0,0l0,0l0,0l0,0l0,0l0,0l0,0l0,0l0,0h0l0,0h0l0,0h0l0,0h0l0,0
	c0.6-0.1,1.2-0.2,1.9-0.3c0.5-0.1,1.1-0.1,1.7-0.2c0.3-0.7,0.6-1.3,0.8-1.8c0.3-0.6,0.6-1.1,0.8-1.5v0l0,0v0l0,0v0l0,0l0,0l0,0l0,0
	l0,0l0,0l0,0l0,0l0,0l0,0l0,0l0,0l0,0l0,0l0,0l0,0l0,0l0,0l0,0h0l0.1,0h0l0,0l0,0l0,0l0,0l0.1-0.1l0,0l0,0l0,0l0,0l0.1,0h0l0,0h0
	l0,0h0.2l0,0h0l0,0h0l0.1,0l0,0l0,0l0,0l0,0l0.1,0.1l0,0l0,0l0,0l0,0h0l0.1,0h0l0,0l0,0l0,0l0,0l0,0l0,0l0,0l0,0l0,0l0,0l0,0l0,0
	l0,0l0,0l0,0l0,0l0,0l0,0l0,0v0l0,0.1v0c0.2,0.4,0.5,0.9,0.8,1.5c0.2,0.5,0.5,1.1,0.8,1.8c0.6,0,1.2,0.1,1.7,0.2
	c0.7,0.1,1.3,0.2,1.9,0.3l0,0h0l0,0h0l0,0h0l0,0h0l0,0l0,0l0,0l0,0l0,0l0,0l0,0l0,0l0,0l0,0l0,0l0,0l0,0l0,0l0,0l0,0l0,0l0,0l0,0
	l0,0l0,0l0,0l0,0l0,0l0,0l0,0l0,0l0,0l0,0l0,0l0,0l0,0l0,0l0,0l0,0l0,0l0,0l0,0l0,0l0,0l0,0l0,0l0,0l0,0l0,0l0,0l0,0l0,0l0,0l0,0
	l0,0l0,0l0,0l0,0l0,0l0,0l0,0l0,0l0,0l0,0l0,0l0,0l0,0l0,0l0,0l0,0v0l0,0v0l0,0v0l0,0v0.1l0,0v0l0,0l0,0v0l0,0v0l0,0v0l0,0v0l0,0
	l0,0l0,0l0,0l0,0l0,0l0,0l0,0l0,0l0,0l0,0l0,0l0,0l0,0l0,0l0,0l0,0l0,0l0,0l0,0l0,0l0,0l0,0l-0.1,0l-1.5,1.3l-1.2,1
	c0.1,0.6,0.3,1.2,0.4,1.8c0.1,0.7,0.2,1.4,0.2,1.9v0.1l0,0v0l0,0v0l0,0v0l0,0v0l0,0v0l0,0l0,0.1l0,0v0l0,0v0l0,0v0l0,0v0l0,0l0,0
	l0,0l0,0l0,0l0,0l0,0l0,0l0,0l0,0l0,0l0,0l0,0l0,0l0,0l0,0l0,0l0,0l0,0l0,0l0,0l0,0l0,0l0,0v0l0,0l0,0l0,0l0,0l0,0l0,0l0,0h0l0,0
	l0,0l0,0h0l0,0h0l0,0h0l0,0l0,0l0,0h0l0,0l-0.1,0l0,0h0l0,0h0l0,0h0l0,0h0l0,0h-0.2l0,0h0l0,0h0l0,0h0l0,0h0l0,0h0l0,0l-0.1,0l0,0h0
	l0,0h0l0,0h0l0,0h0l0,0l0,0L70.9,55.1L70.9,55.1L70.9,55.1L70.9,55.1L70.9,55.1L70.9,55.1L70.9,55.1L70.9,55.1L70.9,55.1L70.9,55.1z
	 M67.7,51.5c0.1,0,0.2-0.1,0.2-0.1l0,0l0.1,0h0c0.2,0,0.3,0,0.5,0.1c0.5,0.3,1.1,0.6,1.6,1l0.2,0.1c-0.1-0.6-0.2-1.3-0.4-2.1l0,0
	l0,0l0,0l0,0v0l0,0l0,0v0l0,0v0l0-0.1v-0.1l0-0.1l0,0l0,0v0l0,0v0l0-0.1l0.1-0.1v0l0,0l0,0l0,0l0,0l0,0l0,0l0,0l0,0l0,0l0,0l0,0l0,0
	l0,0l0,0l0,0l1.5-1.4l0.1-0.1c-0.7-0.1-1.4-0.1-2.1-0.2l0,0h0l0,0h0c-0.1,0-0.2-0.1-0.3-0.1l-0.1,0l0,0l0,0l0,0l0,0l0,0v0l0,0v0l0,0
	v0c0,0-0.1-0.1-0.1-0.1l0,0l0,0l0-0.1l0,0l0,0l0,0l0,0l0,0c-0.4-0.8-0.7-1.6-1-2.1l0,0l0,0c-0.3,0.6-0.6,1.3-1,2.2l0,0l0,0l0,0l0,0
	l0,0l0,0.1l0,0l0,0c0,0.1-0.1,0.1-0.1,0.1v0l0,0v0l0,0v0l0,0l0,0l0,0l0,0l0,0l-0.1,0c-0.1,0.1-0.2,0.1-0.3,0.1h0l0,0h0l0,0
	c-0.8,0-1.5,0.1-2.1,0.2l0.1,0.1l1.6,1.4l0,0c0.2,0.1,0.2,0.3,0.3,0.5v0l0,0.1v0.1c0,0,0,0.1,0,0.1l0,0.1l0,0l0,0
	c-0.2,0.7-0.3,1.4-0.4,2l0.1,0l0.1,0C66.3,52.2,66.9,51.9,67.7,51.5L67.7,51.5L67.7,51.5L67.7,51.5L67.7,51.5z M28.8,55.1
	c-0.6-0.4-1.2-0.8-1.7-1.1c-0.4-0.3-0.8-0.5-1.2-0.7c-0.5,0.3-1,0.5-1.5,0.8c-0.6,0.3-1.1,0.7-1.5,1c-0.2,0.1-0.4,0.2-0.6,0.2
	c-0.1,0-0.2,0-0.3-0.1l0,0l0,0l0,0l0,0c-0.1-0.1-0.2-0.1-0.3-0.2c-0.1-0.2-0.2-0.4-0.2-0.6v0c0-0.6,0.1-1.2,0.2-1.9
	c0.1-0.6,0.2-1.1,0.4-1.8c-0.9-0.8-1.8-1.6-2.6-2.4l0,0l0,0l0,0l0,0l0,0l0,0l0,0l0,0l0,0l0,0l0,0l0,0l0,0l0,0l0,0l0,0l0,0l0,0l0,0
	l0,0l0,0l0,0l0,0l0,0v0l0,0v0l0,0v0l0,0v0l0,0l0,0v0l0,0v-0.1l0,0v0l0,0v0l0,0v0l0,0l0,0l0,0l0,0l0,0l0,0l0,0l0,0l0,0l0,0l0,0l0,0
	l0,0l0,0l0,0l0,0l0,0l0,0l0,0l0,0l0,0l0,0l0,0l0,0l0,0l0,0l0,0l0,0l0,0l0,0l0,0l0,0l0,0l0,0l0,0l0,0l0,0l0,0l0,0l0,0l0,0l0,0l0,0
	l0,0l0,0l0,0l0,0l0,0l0,0l0,0l0,0l0,0l0,0l0,0l0,0l0,0l0,0l0,0l0,0l0,0l0,0l0,0l0,0l0,0l0,0l0,0h0l0,0h0l0,0h0l0,0h0l0,0
	c0.6-0.1,1.2-0.2,1.9-0.3c0.5-0.1,1.1-0.1,1.7-0.2c0.3-0.7,0.6-1.3,0.8-1.8c0.3-0.6,0.6-1.1,0.8-1.5v0l0,0v0l0,0v0l0,0l0,0l0,0l0,0
	l0,0l0,0l0,0l0,0l0,0l0,0l0,0l0,0l0,0l0,0l0,0l0,0l0,0l0,0l0,0h0l0.1,0h0l0,0l0,0l0,0l0,0l0.1-0.1l0,0l0,0l0,0l0,0l0.1,0h0l0,0h0
	l0,0h0.2l0,0h0l0,0h0l0.1,0l0,0l0,0l0,0l0,0l0.1,0.1l0,0l0,0l0,0l0,0h0l0.1,0h0l0,0l0,0l0,0l0,0l0,0l0,0l0,0l0,0l0,0l0,0l0,0l0,0
	l0,0l0,0l0,0l0,0l0,0l0,0l0,0v0l0,0v0l0,0v0c0.2,0.4,0.5,0.9,0.8,1.5c0.2,0.5,0.5,1.1,0.8,1.8c0.6,0,1.2,0.1,1.7,0.2
	c0.7,0.1,1.3,0.2,1.9,0.3l0,0h0l0,0h0l0,0h0l0,0h0l0,0l0,0l0,0l0,0l0,0l0,0l0,0l0,0l0,0l0,0l0,0l0,0l0,0l0,0l0,0l0,0l0,0l0,0l0,0
	l0,0l0,0l0,0l0,0l0,0l0,0l0,0l0,0l0,0l0,0l0,0l0,0l0,0l0,0l0,0l0,0l0,0l0,0l0,0l0,0l0,0l0,0l0,0l0,0l0,0l0,0l0,0l0,0l0,0l0,0l0,0
	l0,0l0,0l0,0l0,0l0,0l0,0l0,0l0,0l0,0l0,0l0,0l0,0l0,0l0,0l0,0l0,0v0l0,0v0l0,0v0l0,0v0.1l0,0v0l0,0l0,0v0l0,0v0l0,0v0l0,0v0l0,0
	l0,0l0,0l0,0l0,0l0,0l0,0l0,0l0,0l0,0l0,0l0,0l0,0l0,0l0,0l0,0l0,0l0,0l0,0l0,0l0,0l0,0l0,0l-0.1,0l-1.4,1.3l-1.2,1.1
	c0.1,0.6,0.3,1.2,0.4,1.8c0.1,0.7,0.2,1.3,0.2,1.9v0.1l0,0v0l0,0v0l0,0v0l0,0v0l0,0v0l0,0l0,0.1l0,0v0l0,0v0l0,0v0l0,0v0l0,0l0,0
	l0,0l0,0l0,0l0,0l0,0l0,0l0,0l0,0l0,0l0,0l0,0l0,0l0,0l0,0l0,0l0,0l0,0l0,0l0,0l0,0l0,0l0,0v0l0,0l0,0l0,0l0,0l0,0l0,0l0,0h0l0,0
	l0,0l0,0h0l0,0h0l0,0h0l0,0l0,0l0,0h0l0,0l-0.1,0l0,0h0l0,0h0l0,0h0l0,0h0l0,0h-0.2l0,0h0l0,0h0l0,0h0l0,0h0l0,0h0l0,0l-0.1,0l0,0h0
	l0,0h0l0,0h0l0,0h0l0,0l0,0L28.8,55.1L28.8,55.1L28.8,55.1L28.8,55.1L28.8,55.1L28.8,55.1L28.8,55.1L28.8,55.1L28.8,55.1L28.8,55.1z
	 M25.5,51.5c0.1,0,0.2-0.1,0.3-0.1l0,0l0.1,0h0c0.2,0,0.3,0,0.5,0.1c0.5,0.3,1.1,0.6,1.6,1l0.2,0.1c-0.1-0.6-0.2-1.3-0.4-2.1l0,0
	l0,0l0-0.1c0,0,0-0.1,0-0.1v-0.1l0-0.1v0c0-0.2,0.1-0.4,0.3-0.5l0,0l1.6-1.4l0.1-0.1c-0.7-0.1-1.4-0.1-2.1-0.2l0,0h0l0,0h0
	c-0.1,0-0.2-0.1-0.3-0.1l-0.1,0l0,0l0,0l0,0l0,0l0,0v0l0,0v0l0,0v0c0,0-0.1-0.1-0.1-0.1l0,0l0,0l0-0.1l0,0l0,0l0,0l0,0l0,0
	c-0.4-0.8-0.7-1.6-1-2.1l0,0l0,0c-0.3,0.6-0.6,1.3-1,2.2l0,0l0,0l0,0l0,0l0,0l0,0.1l0,0l0,0c0,0.1-0.1,0.1-0.1,0.1v0l0,0v0l0,0v0
	l0,0l0,0l0,0l0,0l0,0l-0.1,0c-0.1,0.1-0.2,0.1-0.3,0.1h0l0,0h0l0,0c-0.8,0-1.5,0.1-2.1,0.2c0.5,0.5,1.1,1,1.6,1.5l0,0l0,0l0,0l0,0
	l0,0l0,0l0,0l0,0l0,0l0,0l0,0l0,0l0,0l0,0l0,0l0,0l0,0v0l0.1,0.1l0,0.1v0l0,0v0l0,0l0,0l0,0.1v0.1l0,0.1v0l0,0v0l0,0l0,0v0l0,0l0,0
	l0,0l0,0c-0.2,0.8-0.3,1.4-0.4,2.1l0.1,0C24.1,52.2,24.8,51.8,25.5,51.5L25.5,51.5L25.5,51.5L25.5,51.5z M57.1,55.1
	c-0.6-0.4-1.2-0.8-1.7-1.1c-0.4-0.3-0.8-0.5-1.2-0.7c-0.5,0.3-1,0.5-1.5,0.8c-0.6,0.3-1.1,0.7-1.5,1c-0.2,0.1-0.4,0.2-0.6,0.2
	c-0.1,0-0.2,0-0.3-0.1l0,0l0,0l0,0l0,0c-0.1-0.1-0.2-0.1-0.3-0.2c-0.1-0.2-0.2-0.4-0.2-0.6v0c0-0.6,0.1-1.2,0.2-1.9
	c0.1-0.6,0.2-1.1,0.4-1.8l-1.2-1.1l-1.4-1.3l-0.1,0l0,0l0,0l0,0l0,0l0,0l0,0l0,0l0,0l0,0l0,0l0,0l0,0l0,0l0,0l0,0l0,0l0,0l0,0l0,0
	l0,0l0,0l0,0l0,0v0l0,0v0l0,0v0l0,0v0l0,0l0,0v0l0,0v-0.1l0,0v0l0,0v0l0,0v0l0,0l0,0l0,0l0,0l0,0l0,0l0,0l0,0l0,0l0,0l0,0l0,0l0,0
	l0,0l0,0l0,0l0,0l0,0l0,0l0,0l0,0l0,0l0,0l0,0l0,0l0,0l0,0l0,0l0,0l0,0l0,0l0,0l0,0l0,0l0,0l0,0l0,0l0,0l0,0l0,0l0,0l0,0l0,0l0,0
	l0,0l0,0l0,0l0,0l0,0l0,0l0,0l0,0l0,0l0,0l0,0l0,0l0,0l0,0l0,0l0,0l0,0l0,0l0,0l0,0l0,0l0,0h0l0,0h0l0,0h0l0,0h0l0,0
	c0.6-0.1,1.2-0.2,1.9-0.3c0.5-0.1,1.1-0.1,1.7-0.2c0.3-0.7,0.6-1.3,0.8-1.8c0.3-0.6,0.6-1.1,0.8-1.5v0l0-0.1v0l0,0l0,0l0,0l0,0l0,0
	l0,0l0,0l0,0l0,0l0,0l0,0l0,0l0,0l0,0l0,0l0,0l0,0l0,0l0,0h0l0.1,0h0l0,0l0,0l0,0l0,0l0.1-0.1l0,0l0,0l0,0l0,0l0.1,0h0l0,0h0l0,0
	h0.2l0,0h0l0,0h0l0.1,0l0,0l0,0l0,0l0,0l0.1,0.1l0,0l0,0l0,0l0,0h0l0.1,0h0l0,0l0,0l0,0l0,0l0,0l0,0l0,0l0,0l0,0l0,0l0,0l0,0l0,0
	l0,0l0,0l0,0l0,0l0,0l0,0v0l0,0v0l0,0v0c0.2,0.4,0.5,0.9,0.8,1.5c0.2,0.5,0.5,1.1,0.8,1.8c0.6,0,1.2,0.1,1.7,0.2
	c0.7,0.1,1.3,0.2,1.9,0.3c0.5,0.1,0.8,0.6,0.7,1c0,0.2-0.2,0.4-0.3,0.5l-1.4,1.3l-1.2,1.1c0.1,0.6,0.3,1.2,0.4,1.8
	c0.1,0.7,0.2,1.4,0.2,1.9v0.1l0,0v0l0,0v0l0,0v0l0,0v0l0,0v0l0,0l0,0.1l0,0v0l0,0v0l0,0v0l0,0v0l0,0l0,0l0,0l0,0l0,0l0,0l0,0l0,0
	l0,0l0,0l0,0l0,0l0,0l0,0l0,0l0,0l0,0l0,0l0,0l0,0l0,0l0,0l0,0l0,0v0l0,0l0,0l0,0l0,0l0,0l0,0l0,0h0l0,0l0,0l0,0h0l0,0h0l0,0h0l0,0
	l0,0l0,0h0l0,0l-0.1,0l0,0h0l0,0h0l0,0h0l0,0h0l0,0h-0.2l0,0h0l0,0h0l0,0h0l0,0h0l0,0h0l0,0l-0.1,0l0,0h0l0,0h0l0,0h0l0,0h0l0,0l0,0
	L57.1,55.1L57.1,55.1L57.1,55.1L57.1,55.1L57.1,55.1L57.1,55.1L57.1,55.1L57.1,55.1L57.1,55.1L57.1,55.1z M53.8,51.5
	c0.1,0,0.2-0.1,0.3-0.1l0,0l0.1,0h0c0.2,0,0.3,0,0.5,0.1c0.5,0.3,1.1,0.6,1.6,1l0.2,0.1c-0.1-0.6-0.2-1.3-0.4-2.1l0,0l0,0l0,0l0,0v0
	l0,0l0,0v0l0,0v0l0-0.1v-0.1l0-0.1l0,0l0,0v0l0,0v0l0-0.1l0.1-0.1v0l0,0l0,0l0,0l0,0l0,0l0,0l0,0l0,0l0,0l0,0l0,0l0,0l0,0l0,0l0,0
	l1.5-1.4l0.1-0.1c-0.7-0.1-1.4-0.1-2.1-0.2l0,0h0l0,0h0c-0.1,0-0.2-0.1-0.3-0.1l-0.1,0l0,0l0,0l0,0l0,0l0,0v0l0,0v0l0,0v0
	c0,0-0.1-0.1-0.1-0.1l0,0l0,0l0-0.1l0,0l0,0l0,0l0,0l0,0c-0.4-0.8-0.7-1.6-1-2.1l0,0l0,0c-0.3,0.6-0.6,1.3-1,2.1l0,0l0,0l0,0l0,0
	l0,0l0,0.1l0,0l0,0c0,0.1-0.1,0.1-0.1,0.1v0l0,0v0l0,0v0l0,0l0,0l0,0l0,0l0,0l-0.1,0c-0.1,0.1-0.2,0.1-0.3,0.1h0l0,0h0l0,0
	c-0.8,0-1.5,0.1-2.1,0.2l0.1,0.1l1.6,1.4l0,0c0.2,0.1,0.2,0.3,0.3,0.5v0l0,0.1v0.1c0,0,0,0.1,0,0.1l0,0.1l0,0l0,0
	c-0.2,0.7-0.3,1.4-0.4,2l0.1,0C52.4,52.2,53.1,51.9,53.8,51.5L53.8,51.5L53.8,51.5L53.8,51.5z M42.9,55.1c-0.6-0.4-1.2-0.8-1.7-1.1
	c-0.4-0.3-0.8-0.5-1.2-0.7c-0.5,0.3-1,0.5-1.5,0.8c-0.6,0.3-1.1,0.7-1.5,1c-0.2,0.1-0.4,0.2-0.6,0.2c-0.1,0-0.2,0-0.3-0.1l0,0l0,0
	l0,0l0,0c-0.1-0.1-0.2-0.1-0.3-0.2c-0.1-0.2-0.2-0.4-0.2-0.6v0c0-0.6,0.1-1.2,0.2-1.9c0.1-0.6,0.2-1.2,0.4-1.8L35,49.6l-1.4-1.3
	c-0.2-0.1-0.3-0.3-0.3-0.5c-0.1-0.5,0.2-1,0.7-1c0.6-0.1,1.2-0.2,1.9-0.3c0.5-0.1,1.1-0.1,1.7-0.2c0.3-0.7,0.6-1.3,0.8-1.8
	c0.3-0.6,0.6-1.1,0.8-1.5v0l0,0v0l0,0v0l0,0l0,0l0,0l0,0l0,0l0,0l0,0l0,0l0,0l0,0l0,0l0,0l0,0l0,0l0,0l0,0l0,0l0,0l0,0h0l0.1,0h0
	l0,0l0,0l0,0l0,0l0.1-0.1l0,0l0,0l0,0l0,0l0.1,0h0l0,0h0l0,0h0.2l0,0h0l0,0h0l0.1,0l0,0l0,0l0,0l0,0l0.1,0.1l0,0l0,0l0,0l0,0h0
	l0.1,0h0l0,0l0,0l0,0l0,0l0,0l0,0l0,0l0,0l0,0l0,0l0,0l0,0l0,0l0,0l0,0l0,0l0,0l0,0l0,0v0l0,0.1v0c0.2,0.4,0.5,0.9,0.8,1.5
	c0.2,0.5,0.5,1.1,0.8,1.8c0.6,0,1.2,0.1,1.7,0.2c0.7,0.1,1.3,0.2,1.9,0.3l0,0h0l0,0h0l0,0h0l0,0h0l0,0l0,0l0,0l0,0l0,0l0,0l0,0l0,0
	l0,0l0,0l0,0l0,0l0,0l0,0l0,0l0,0l0,0l0,0l0,0l0,0l0,0l0,0l0,0l0,0l0,0l0,0l0,0l0,0l0,0l0,0l0,0l0,0l0,0l0,0l0,0l0,0l0,0l0,0l0,0
	l0,0l0,0l0,0l0,0l0,0l0,0l0,0l0,0l0,0l0,0l0,0l0,0l0,0l0,0l0,0l0,0l0,0l0,0l0,0l0,0l0,0l0,0l0,0l0,0l0,0l0,0l0,0v0l0,0v0l0,0v0l0,0
	v0.1l0,0v0l0,0l0,0v0l0,0v0l0,0v0l0,0v0l0,0l0,0l0,0l0,0l0,0l0,0l0,0l0,0l0,0l0,0l0,0l0,0l0,0l0,0l0,0l0,0l0,0l0,0l0,0l0,0l0,0l0,0
	l0,0l-0.1,0l-1.5,1.3l-1.2,1c0.1,0.6,0.3,1.2,0.4,1.8c0.1,0.7,0.2,1.4,0.2,1.9v0.1l0,0v0l0,0v0l0,0v0l0,0v0l0,0v0l0,0l0,0.1l0,0v0
	l0,0v0l0,0v0l0,0v0l0,0l0,0l0,0l0,0l0,0l0,0l0,0l0,0l0,0l0,0l0,0l0,0l0,0l0,0l0,0l0,0l0,0l0,0l0,0l0,0l0,0l0,0l0,0l0,0v0l0,0l0,0
	l0,0l0,0l0,0l0,0l0,0h0l0,0l0,0l0,0h0l0,0h0l0,0h0l0,0l0,0l0,0h0l0,0l-0.1,0l0,0h0l0,0h0l0,0h0l0,0h0l0,0h-0.2l0,0h0l0,0h0l0,0h0
	l0,0h0l0,0h0l0,0l-0.1,0l0,0h0l0,0h0l0,0h0l0,0h0l0,0l0,0L42.9,55.1L42.9,55.1L42.9,55.1L42.9,55.1L42.9,55.1L42.9,55.1L42.9,55.1
	L42.9,55.1L42.9,55.1L42.9,55.1z M39.7,51.5c0.1,0,0.2-0.1,0.2-0.1l0,0l0.1,0h0c0.2,0,0.3,0,0.5,0.1c0.5,0.3,1.1,0.6,1.6,1l0.2,0.1
	c-0.1-0.6-0.2-1.3-0.4-2.1l0,0l0,0l0,0l0,0v0l0,0l0,0v0l0,0v0l0-0.1v-0.1l0-0.1l0,0l0,0v0l0,0v0l0-0.1l0.1-0.1v0l0,0l0,0l0,0l0,0
	l0,0l0,0l0,0l0,0l0,0l0,0l0,0l0,0l0,0l0,0l0,0l1.5-1.4l0.1-0.1c-0.7-0.1-1.4-0.1-2.1-0.2l0,0h0l0,0h0c-0.1,0-0.2-0.1-0.3-0.1l-0.1,0
	l0,0l0,0l0,0l0,0l0,0v0l0,0v0l0,0v0c0,0-0.1-0.1-0.1-0.1l0,0l0,0l0-0.1l0,0l0,0l0,0l0,0l0,0c-0.4-0.8-0.7-1.6-1-2.1l0,0l0,0
	c-0.3,0.6-0.6,1.3-1,2.2l0,0l0,0l0,0l0,0l0,0l0,0.1l0,0l0,0c0,0.1-0.1,0.1-0.1,0.1v0l0,0v0l0,0v0l0,0l0,0l0,0l0,0l0,0l-0.1,0
	c-0.1,0.1-0.2,0.1-0.3,0.1h0l0,0h0l0,0c-0.8,0-1.5,0.1-2.1,0.2l0.1,0.1l1.5,1.4l0,0l0,0l0,0l0,0l0,0l0,0l0,0l0,0l0,0l0,0l0,0l0,0
	l0,0l0,0l0,0v0l0.1,0.1l0,0.1v0l0,0v0l0,0l0,0l0,0.1v0.1l0,0.1v0l0,0v0l0,0l0,0v0l0,0l0,0l0,0l0,0c-0.2,0.8-0.3,1.4-0.4,2.1l0.1,0
	C38.2,52.2,38.9,51.9,39.7,51.5L39.7,51.5L39.7,51.5L39.7,51.5L39.7,51.5z M34.8,60.7H4.3l-0.1,0c-1.1,0-2-0.3-2.7-1
	c-0.7-0.6-1.2-1.5-1.4-2.7l0,0v0l0,0c0-0.1,0-0.1,0-0.2V41c0-0.1,0-0.2,0-0.3c0.3-1.2,0.8-2.1,1.4-2.7c0.7-0.7,1.6-1.1,2.6-1.1
	c0,0,0.1,0,0.1,0l24.1,0.1c-1-1.1-1.8-2.4-2.4-3.7c-0.9-2-1.4-4.2-1.4-6.5c0-4.3,1.7-8.1,4.5-10.9c2.8-2.8,6.7-4.5,10.9-4.5
	s8.1,1.7,10.9,4.5c2.8,2.8,4.5,6.7,4.5,10.9c0,2.3-0.5,4.4-1.4,6.4c-0.6,1.4-1.4,2.6-2.4,3.7l24.1,0l0.1,0c1.2,0,2.1,0.4,2.8,1.1
	c0.7,0.7,1.1,1.6,1.3,2.9v0l0,0c0,0,0,0.1,0,0.1v15.8c0,0.1,0,0.1,0,0.2c-0.1,1.2-0.6,2.1-1.3,2.7c-0.7,0.6-1.6,1-2.8,1l-0.1,0H45.5
	c-0.6,1.2-1.2,2.4-1.9,3.8c-0.8,1.6-1.7,3.3-2.8,5.3c-0.1,0.2-0.2,0.3-0.4,0.4h0c-0.3,0.1-0.5,0.1-0.8,0c-0.2-0.1-0.3-0.2-0.4-0.4
	l0,0l0,0c-0.6-1.2-1.3-2.6-2.1-4.1C36.5,64.1,35.7,62.5,34.8,60.7L34.8,60.7z M31.1,37.1c0.1,0,0.1,0.1,0.1,0.1
	c1.2,1,2.6,1.8,4.1,2.4c1.5,0.5,3.1,0.8,4.7,0.8c1.7,0,3.3-0.3,4.8-0.9c1.5-0.6,2.9-1.4,4.1-2.5c0,0,0.1-0.1,0.1-0.1
	c1.4-1.3,2.6-2.8,3.4-4.6c0.8-1.7,1.2-3.6,1.2-5.7c0-3.8-1.5-7.2-4-9.7c-2.5-2.5-5.9-4-9.7-4c-3.8,0-7.2,1.5-9.7,4
	c-2.5,2.5-4,5.9-4,9.7c0,2.1,0.4,4,1.3,5.7C28.4,34.2,29.6,35.8,31.1,37.1L31.1,37.1z M46.6,26.7c0-0.5,0.4-0.9,0.9-0.9
	s0.9,0.4,0.9,0.9c0,2.3-0.9,4.4-2.5,5.9l-0.1,0.1c-1.5,1.5-3.6,2.4-5.9,2.4c-2.3,0-4.4-0.9-5.9-2.5L34,32.6
	c-1.5-1.5-2.4-3.6-2.4-5.9c0-0.5,0.4-0.9,0.9-0.9c0.5,0,0.9,0.4,0.9,0.9c0,1.8,0.7,3.4,1.9,4.6l0.1,0c1.2,1.2,2.9,1.9,4.7,1.9
	c1.8,0,3.4-0.7,4.6-1.9l0,0C45.9,30.2,46.6,28.6,46.6,26.7L46.6,26.7z M34.9,23.9c-0.7,0-1.3-0.3-1.7-0.7c-0.4-0.4-0.7-1-0.7-1.7
	c0-0.7,0.3-1.3,0.7-1.7c0.4-0.4,1-0.7,1.7-0.7s1.3,0.3,1.7,0.7c0.4,0.4,0.7,1,0.7,1.7c0,0.7-0.3,1.3-0.7,1.7
	C36.2,23.6,35.6,23.9,34.9,23.9z M34.5,21.9c0.1,0.1,0.3,0.2,0.5,0.2s0.3-0.1,0.5-0.2c0.1-0.1,0.2-0.3,0.2-0.5
	c0-0.2-0.1-0.3-0.2-0.5c-0.1-0.1-0.3-0.2-0.5-0.2s-0.3,0.1-0.5,0.2c-0.1,0.1-0.2,0.3-0.2,0.5C34.3,21.6,34.3,21.8,34.5,21.9z
	 M44.9,23.9c-0.7,0-1.3-0.3-1.7-0.7c-0.4-0.4-0.7-1-0.7-1.7c0-0.7,0.3-1.3,0.7-1.7l0.1-0.1c0.4-0.4,1-0.6,1.7-0.6
	c0.7,0,1.3,0.3,1.7,0.7c0.4,0.4,0.7,1.1,0.7,1.7c0,0.7-0.3,1.3-0.7,1.7C46.1,23.6,45.5,23.9,44.9,23.9L44.9,23.9z M44.4,21.9
	c0.1,0.1,0.3,0.2,0.5,0.2s0.3-0.1,0.5-0.2c0.1-0.1,0.2-0.3,0.2-0.5c0-0.2-0.1-0.3-0.2-0.5c-0.1-0.1-0.3-0.2-0.5-0.2
	c-0.2,0-0.3,0.1-0.4,0.2l0,0c-0.1,0.1-0.2,0.3-0.2,0.5C44.2,21.6,44.3,21.8,44.4,21.9L44.4,21.9z"/>
</svg>
