<svg width="21" height="21" viewBox="0 0 21 21" fill="none" xmlns="http://www.w3.org/2000/svg">
<path d="M17.6055 6.49953L18.3955 4.74953L20.1455 3.95953C20.5355 3.77953 20.5355 3.22953 20.1455 3.04953L18.3955 2.25953L17.6055 0.499531C17.4255 0.109531 16.8755 0.109531 16.6955 0.499531L15.9055 2.24953L14.1455 3.03953C13.7555 3.21953 13.7555 3.76953 14.1455 3.94953L15.8955 4.73953L16.6855 6.49953C16.8655 6.88953 17.4255 6.88953 17.6055 6.49953ZM9.64555 7.99953L8.05555 4.49953C7.70555 3.71953 6.58555 3.71953 6.23555 4.49953L4.64555 7.99953L1.14555 9.58953C0.365547 9.94953 0.365547 11.0595 1.14555 11.4095L4.64555 12.9995L6.23555 16.4995C6.59555 17.2795 7.70555 17.2795 8.05555 16.4995L9.64555 12.9995L13.1455 11.4095C13.9255 11.0495 13.9255 9.93953 13.1455 9.58953L9.64555 7.99953ZM16.6855 14.4995L15.8955 16.2495L14.1455 17.0395C13.7555 17.2195 13.7555 17.7695 14.1455 17.9495L15.8955 18.7395L16.6855 20.4995C16.8655 20.8895 17.4155 20.8895 17.5955 20.4995L18.3855 18.7495L20.1455 17.9595C20.5355 17.7795 20.5355 17.2295 20.1455 17.0495L18.3955 16.2595L17.6055 14.4995C17.4255 14.1095 16.8655 14.1095 16.6855 14.4995Z" fill="#1032CF"/>
</svg>
