<svg width="25" height="24" viewBox="0 0 25 24" fill="none" xmlns="http://www.w3.org/2000/svg">
<path d="M19.9322 12.98C19.9722 12.66 20.0022 12.34 20.0022 12C20.0022 11.66 19.9722 11.34 19.9322 11.02L22.0422 9.37C22.2322 9.22 22.2822 8.95 22.1622 8.73L20.1622 5.27C20.0722 5.11 19.9022 5.02 19.7222 5.02C19.6622 5.02 19.6022 5.03 19.5522 5.05L17.0622 6.05C16.5422 5.65 15.9822 5.32 15.3722 5.07L14.9922 2.42C14.9622 2.18 14.7522 2 14.5022 2H10.5022C10.2522 2 10.0422 2.18 10.0122 2.42L9.6322 5.07C9.0222 5.32 8.4622 5.66 7.9422 6.05L5.4522 5.05C5.3922 5.03 5.3322 5.02 5.2722 5.02C5.1022 5.02 4.9322 5.11 4.8422 5.27L2.8422 8.73C2.7122 8.95 2.7722 9.22 2.9622 9.37L5.0722 11.02C5.0322 11.34 5.0022 11.67 5.0022 12C5.0022 12.33 5.0322 12.66 5.0722 12.98L2.9622 14.63C2.7722 14.78 2.7222 15.05 2.8422 15.27L4.8422 18.73C4.9322 18.89 5.1022 18.98 5.2822 18.98C5.3422 18.98 5.4022 18.97 5.4522 18.95L7.9422 17.95C8.4622 18.35 9.0222 18.68 9.6322 18.93L10.0122 21.58C10.0422 21.82 10.2522 22 10.5022 22H14.5022C14.7522 22 14.9622 21.82 14.9922 21.58L15.3722 18.93C15.9822 18.68 16.5422 18.34 17.0622 17.95L19.5522 18.95C19.6122 18.97 19.6722 18.98 19.7322 18.98C19.9022 18.98 20.0722 18.89 20.1622 18.73L22.1622 15.27C22.2822 15.05 22.2322 14.78 22.0422 14.63L19.9322 12.98ZM17.9522 11.27C17.9922 11.58 18.0022 11.79 18.0022 12C18.0022 12.21 17.9822 12.43 17.9522 12.73L17.8122 13.86L18.7022 14.56L19.7822 15.4L19.0822 16.61L17.8122 16.1L16.7722 15.68L15.8722 16.36C15.4422 16.68 15.0322 16.92 14.6222 17.09L13.5622 17.52L13.4022 18.65L13.2022 20H11.8022L11.4522 17.52L10.3922 17.09C9.9622 16.91 9.5622 16.68 9.1622 16.38L8.2522 15.68L7.1922 16.11L5.9222 16.62L5.2222 15.41L6.3022 14.57L7.1922 13.87L7.0522 12.74C7.0222 12.43 7.0022 12.2 7.0022 12C7.0022 11.8 7.0222 11.57 7.0522 11.27L7.1922 10.14L6.3022 9.44L5.2222 8.6L5.9222 7.39L7.1922 7.9L8.2322 8.32L9.1322 7.64C9.5622 7.32 9.9722 7.08 10.3822 6.91L11.4422 6.48L11.6022 5.35L11.8022 4H13.1922L13.5422 6.48L14.6022 6.91C15.0322 7.09 15.4322 7.32 15.8322 7.62L16.7422 8.32L17.8022 7.89L19.0722 7.38L19.7722 8.59L18.7022 9.44L17.8122 10.14L17.9522 11.27ZM12.5022 8C10.2922 8 8.5022 9.79 8.5022 12C8.5022 14.21 10.2922 16 12.5022 16C14.7122 16 16.5022 14.21 16.5022 12C16.5022 9.79 14.7122 8 12.5022 8ZM12.5022 14C11.4022 14 10.5022 13.1 10.5022 12C10.5022 10.9 11.4022 10 12.5022 10C13.6022 10 14.5022 10.9 14.5022 12C14.5022 13.1 13.6022 14 12.5022 14Z" fill="#141414"/>
</svg>
