<svg xmlns="http://www.w3.org/2000/svg" width="256" height="256"><path d="M0 16.063C0 7.19 7.164 0 16 0h224c8.836 0 16 7.191 16 16.063v223.46c0 8.872-7.164 16.063-16 16.063H16c-8.836 0-16-7.191-16-16.063Zm0 0" style="stroke:none;fill-rule:nonzero;fill:#00a2ff;fill-opacity:1"/><path d="M58.723 58.89v68.903c0 38 31.078 68.898 69.297 68.898s69.296-30.898 69.296-68.898V58.891ZM128 225.25c-54.016-.012-98-43.71-98-97.457V30.336h196v97.457c0 53.707-43.945 97.445-98 97.457m13.18-62.348-.004.004h-33.168l.055-.113-29.114-50.887h33.203l11 19.223 23.04-48.34h33.203l-38.149 79.969.082.144Zm0 0" style="stroke:none;fill-rule:evenodd;fill:#000;fill-opacity:1"/></svg>