<svg width="21" height="20" viewBox="0 0 21 20" fill="none" xmlns="http://www.w3.org/2000/svg">
<path d="M10.5 0C4.98 0 0.5 4.48 0.5 10C0.5 15.52 4.98 20 10.5 20C16.02 20 20.5 15.52 20.5 10C20.5 4.48 16.02 0 10.5 0ZM17.96 7.12L15.18 8.27C14.67 6.91 13.6 5.83 12.23 5.33L13.38 2.55C15.48 3.35 17.15 5.02 17.96 7.12ZM10.5 13C8.84 13 7.5 11.66 7.5 10C7.5 8.34 8.84 7 10.5 7C12.16 7 13.5 8.34 13.5 10C13.5 11.66 12.16 13 10.5 13ZM7.63 2.54L8.8 5.32C7.42 5.82 6.33 6.91 5.82 8.29L3.04 7.13C3.85 5.02 5.52 3.35 7.63 2.54ZM3.04 12.87L5.82 11.72C6.33 13.1 7.41 14.18 8.79 14.68L7.62 17.46C5.52 16.65 3.85 14.98 3.04 12.87ZM13.38 17.46L12.23 14.68C13.6 14.17 14.68 13.09 15.18 11.71L17.96 12.88C17.15 14.98 15.48 16.65 13.38 17.46Z" fill="#141414"/>
</svg>
