<svg width="111" height="32" viewBox="0 0 111 32" fill="none" xmlns="http://www.w3.org/2000/svg">
    <rect width="110" height="32" fill="none"/>
    <path
        d="M76.1897 28.3087L72.9223 23.9603L76.0925 20.3286H73.5053L70.5173 23.9117V17.292H68.416V28.3208H70.5173V26.2803L71.4526 25.2843L73.5539 28.3208H76.1897V28.3087Z"
        fill="#141414"/>
    <path
        d="M77.5737 19.5265H77.6101C77.9433 19.5205 78.2612 19.3855 78.4968 19.1499C78.7324 18.9143 78.8674 18.5964 78.8733 18.2632C78.8674 17.9301 78.7324 17.6122 78.4968 17.3766C78.2612 17.1409 77.9433 17.006 77.6101 17C77.2807 16.9977 76.9635 17.1251 76.7272 17.3546C76.4908 17.5841 76.3542 17.8974 76.3469 18.2268V18.2632C76.3437 18.427 76.373 18.5897 76.433 18.742C76.4931 18.8944 76.5827 19.0333 76.6968 19.1507C76.8109 19.2682 76.9471 19.3619 77.0976 19.4264C77.2482 19.4909 77.41 19.5249 77.5737 19.5265Z"
        fill="#141414"/>
    <path d="M76.5176 28.4176H78.5582V20.4253H76.5176V28.4176Z" fill="#141414"/>
    <path
        d="M106.289 26.4132C106.289 27.8829 107.078 28.6238 108.548 28.6238C109.157 28.6516 109.759 28.4904 110.273 28.1622L109.86 26.5832C109.646 26.7297 109.39 26.8022 109.131 26.7897H109.083C108.874 26.759 108.686 26.6476 108.559 26.4794C108.431 26.3113 108.375 26.1 108.402 25.8909V22.2713H110.03V20.4372H108.402V18.2266H106.301V20.4372H104.989V22.2713H106.301V26.4132H106.289Z"
        fill="#141414"/>
    <path
        d="M90.4236 27.3729C90.7173 27.7493 91.0934 28.0534 91.5229 28.2618C91.9524 28.4703 92.424 28.5775 92.9014 28.5754C94.8934 28.5754 96.4239 27.0571 96.4239 24.3727C96.4239 21.7491 94.9056 20.1701 92.9014 20.1701C92.4242 20.1692 91.9531 20.2771 91.5237 20.4854C91.0944 20.6938 90.7182 20.9972 90.4236 21.3726V17.2793H88.3223V28.3082H90.4236V27.3729ZM90.4236 22.9516C90.6289 22.6686 90.8969 22.4368 91.2066 22.2746C91.5164 22.1123 91.8595 22.024 92.2091 22.0164C93.4116 22.0164 94.2011 22.9516 94.2011 24.3242C94.2011 25.6967 93.4116 26.632 92.2091 26.632C91.8628 26.6273 91.5221 26.5439 91.2128 26.3882C90.9035 26.2325 90.6336 26.0085 90.4236 25.7331V22.9516Z"
        fill="#141414"/>
    <path
        d="M84.861 26.1948C84.4088 26.4968 83.8588 26.6158 83.3222 26.5278C82.7856 26.4399 82.3024 26.1516 81.9702 25.7211L87.0716 22.7817L86.8651 22.3687C85.5533 20.1217 83.2941 19.3686 81.2414 20.5347C81.1806 20.5711 81.1199 20.6075 81.0713 20.644C80.6186 20.9235 80.2257 21.2898 79.9151 21.7218C79.6045 22.1538 79.3824 22.643 79.2616 23.1612C79.1408 23.6793 79.1237 24.2163 79.2112 24.7411C79.2988 25.2659 79.4892 25.7682 79.7717 26.2191C79.8324 26.3284 79.8931 26.4256 79.9417 26.5228C80.2291 26.9708 80.6021 27.3576 81.0393 27.6612C81.4765 27.9648 81.9692 28.1792 82.4894 28.292C83.0096 28.4049 83.5469 28.414 84.0705 28.3188C84.5942 28.2236 85.094 28.026 85.5412 27.7374C86.5588 27.1862 87.3468 26.2905 87.7639 25.211L86.2942 24.4822C86.041 25.2086 85.5314 25.8176 84.861 26.1948ZM82.0795 21.9558C82.0916 21.9436 82.1038 21.9436 82.1159 21.9315C82.3208 21.801 82.5498 21.7127 82.7893 21.672C83.0288 21.6313 83.274 21.6389 83.5106 21.6943C83.7471 21.7498 83.9702 21.852 84.1666 21.9949C84.3631 22.1379 84.5289 22.3187 84.6545 22.5266L81.29 24.4822C81.078 24.0392 81.0417 23.5325 81.1881 23.0638C81.3346 22.5951 81.653 22.1992 82.0795 21.9558Z"
        fill="#141414"/>
    <path
        d="M51.0821 27.3489C50.6776 27.7815 50.1886 28.1266 49.6454 28.3627C49.1022 28.5987 48.5164 28.7208 47.9241 28.7214C46.7531 28.7182 45.6314 28.2499 44.8056 27.4196C43.9799 26.5894 43.5178 25.4651 43.521 24.2941C43.5243 23.1231 43.9925 22.0014 44.8228 21.1756C45.6531 20.3499 46.7774 19.8878 47.9484 19.891C49.0993 19.8898 50.204 20.3439 51.0214 21.1543C51.5153 20.4694 52.1647 19.9116 52.9162 19.5267C51.9847 18.494 50.7606 17.7699 49.407 17.4509C48.0534 17.1319 46.6347 17.2332 45.3401 17.7412C44.0456 18.2493 42.9367 19.14 42.1614 20.2945C41.386 21.449 40.9811 22.8124 41.0007 24.203C40.9877 26.0274 41.6993 27.7825 42.9791 29.0828C44.2589 30.3831 46.0025 31.1225 47.8269 31.1385H47.8755C48.8352 31.1312 49.7832 30.927 50.6607 30.5383C51.5382 30.1497 52.3266 29.5851 52.9769 28.8793C52.2487 28.502 51.6042 27.9815 51.0821 27.3489Z"
        fill="#141414"/>
    <path
        d="M55.0182 20.0249C53.9052 20.0394 52.8436 20.4954 52.0668 21.2927C51.2901 22.09 50.8618 23.1631 50.8763 24.2761C50.8908 25.3891 51.3469 26.4508 52.1441 27.2275C52.9414 28.0043 54.0145 28.4325 55.1275 28.418C55.1397 28.418 55.1397 28.418 55.1397 28.4302C56.244 28.4186 57.2988 27.9698 58.0729 27.1821C58.8469 26.3944 59.2772 25.3319 59.2694 24.2275V24.1668C59.2636 23.6153 59.1488 23.0704 58.9318 22.5634C58.7147 22.0564 58.3996 21.5973 58.0046 21.2124C57.6095 20.8275 57.1424 20.5245 56.6299 20.3207C56.1174 20.1169 55.5697 20.0164 55.0182 20.0249ZM55.1275 26.4139C54.5438 26.4057 53.9862 26.1702 53.5734 25.7574C53.1606 25.3445 52.9251 24.787 52.9169 24.2032C52.9169 23.766 53.0466 23.3386 53.2895 22.9751C53.5324 22.6115 53.8776 22.3282 54.2816 22.1609C54.6855 21.9936 55.13 21.9498 55.5588 22.0351C55.9876 22.1204 56.3815 22.3309 56.6907 22.6401C56.9999 22.9493 57.2104 23.3432 57.2957 23.772C57.381 24.2008 57.3372 24.6453 57.1699 25.0492C57.0026 25.4532 56.7192 25.7984 56.3557 26.0413C55.9922 26.2842 55.5648 26.4139 55.1275 26.4139Z"
        fill="#141414"/>
    <path
        d="M63.7389 20.0249C63.1878 20.0321 62.6435 20.1477 62.1371 20.3653C61.6307 20.5828 61.1721 20.8979 60.7875 21.2927C60.0108 22.09 59.5825 23.1631 59.597 24.2761C59.6115 25.3891 60.0676 26.4508 60.8648 27.2275C61.6621 28.0043 62.7353 28.4325 63.8482 28.418C63.8604 28.418 63.8604 28.418 63.8604 28.4302C64.9647 28.4186 66.0195 27.9698 66.7936 27.1821C67.5676 26.3944 67.9979 25.3319 67.9901 24.2275V24.1668C67.9843 23.6153 67.8695 23.0704 67.6525 22.5634C67.4354 22.0564 67.1203 21.5973 66.7253 21.2124C66.3302 20.8275 65.8631 20.5245 65.3506 20.3207C64.8381 20.1169 64.2904 20.0164 63.7389 20.0249ZM63.8482 26.4139C63.2639 26.4076 62.7053 26.1726 62.2921 25.7594C61.8789 25.3462 61.6439 24.7876 61.6376 24.2032C61.6376 23.766 61.7673 23.3386 62.0102 22.9751C62.2531 22.6115 62.5983 22.3282 63.0023 22.1609C63.4062 21.9936 63.8507 21.9498 64.2795 22.0351C64.7083 22.1204 65.1022 22.3309 65.4114 22.6401C65.7206 22.9493 65.9311 23.3432 66.0164 23.772C66.1017 24.2008 66.0579 24.6453 65.8906 25.0492C65.7233 25.4532 65.4399 25.7984 65.0764 26.0413C64.7129 26.2842 64.2855 26.4139 63.8482 26.4139Z"
        fill="#141414"/>
    <path
        d="M100.979 28.4177C101.527 28.4156 102.068 28.3054 102.573 28.0935C103.078 27.8816 103.536 27.5721 103.921 27.1827C104.306 26.7934 104.61 26.3319 104.816 25.8247C105.022 25.3175 105.126 24.7746 105.121 24.2272V24.1664C105.11 23.3365 104.854 22.5285 104.384 21.8445C103.913 21.1605 103.251 20.6313 102.48 20.3237C101.709 20.0161 100.865 19.944 100.053 20.1166C99.2409 20.2891 98.4985 20.6985 97.9193 21.2929C97.3401 21.8874 96.9502 22.6403 96.7989 23.4563C96.6475 24.2724 96.7416 25.115 97.0691 25.8776C97.3967 26.6402 97.943 27.2886 98.639 27.7407C99.335 28.1928 100.149 28.4284 100.979 28.4177ZM101.04 22.0044C101.626 22.0044 102.189 22.2373 102.603 22.6519C103.018 23.0665 103.251 23.6287 103.251 24.215C103.251 24.8013 103.018 25.3636 102.603 25.7782C102.189 26.1928 101.626 26.4257 101.04 26.4257C100.454 26.4257 99.8915 26.1928 99.477 25.7782C99.0624 25.3636 98.8295 24.8013 98.8295 24.215C98.8295 23.6287 99.0624 23.0665 99.477 22.6519C99.8915 22.2373 100.454 22.0044 101.04 22.0044Z"
        fill="#141414"/>
    <path
        d="M9.03522 9.6633C9.03522 11.5689 7.72101 12.9488 5.58541 12.9488C3.44981 12.9488 2.1356 11.5689 2.1356 9.6633V0.595215H0V9.86043C0 12.8174 2.20131 14.9202 5.58541 14.9202C8.96951 14.9202 11.1708 12.8174 11.1708 9.86043V0.595215H9.03522V9.6633Z"
        fill="#141414"/>
    <path
        d="M18.8275 8.74268L17.1519 8.34842C16.002 8.08558 15.4763 7.69131 15.5091 6.96849C15.5091 6.14711 16.3962 5.58857 17.5462 5.58857C18.8275 5.58857 19.4189 6.31139 19.6489 7.00135L21.5217 6.6728C21.0946 5.03003 19.8132 3.9458 17.5462 3.9458C15.1477 3.9458 13.4721 5.1943 13.4721 7.06706C13.4721 8.57841 14.3921 9.56407 16.3634 9.99119L18.1376 10.3855C19.1561 10.6154 19.6161 11.0754 19.6161 11.7325C19.6161 12.5539 18.729 13.1782 17.3819 13.1782C16.1662 13.1782 15.3777 12.6525 15.1149 11.6011L13.1436 11.8968C13.4721 13.7696 15.0492 14.8209 17.4148 14.8209C19.9775 14.8209 21.7188 13.4739 21.7188 11.5682C21.7188 10.0898 20.766 9.1698 18.8275 8.74268Z"
        fill="#141414"/>
    <path
        d="M27.8938 3.9458C24.9368 3.9458 23.0312 6.17996 23.0312 9.43264C23.0312 12.6853 24.9368 14.8538 28.0581 14.8538C30.3579 14.8538 32.0007 13.7038 32.4607 11.9954L30.5222 11.634C30.1608 12.6196 29.2737 13.1453 28.0909 13.1453C26.3168 13.1453 25.134 11.9954 25.1011 9.95833H32.5921V9.23551C32.5592 5.42429 30.2922 3.9458 27.8938 3.9458ZM25.0683 8.44698C25.1668 6.93564 26.2511 5.65428 27.8938 5.65428C29.5366 5.65428 30.5222 6.83707 30.5551 8.44698H25.0683Z"
        fill="#141414"/>
    <path
        d="M36.4673 5.75326H36.3688V4.07764H34.3975V14.6242H36.4673V8.18456C36.4673 6.80464 37.5187 5.81897 38.9972 5.81897C39.3629 5.81302 39.7277 5.85725 40.0814 5.9504V3.97908C39.7866 3.95046 39.4904 3.93949 39.1943 3.94622C38.6057 3.91307 38.0221 4.07112 37.5307 4.39678C37.0392 4.72244 36.6662 5.19827 36.4673 5.75326Z"
        fill="#141414"/>
    <path
        d="M45.4059 5.68714C45.9459 5.66236 46.4772 5.83056 46.9046 6.16164C47.332 6.49272 47.6276 6.96507 47.7386 7.49418H49.7428C49.5128 5.35858 47.7714 3.9458 45.373 3.9458C42.3832 3.9458 40.4775 6.17997 40.4775 9.39979C40.4775 12.6196 42.3174 14.8538 45.4059 14.8538C47.9029 14.8538 49.5128 13.3424 49.7428 11.3054H47.7386C47.6332 11.8374 47.3391 12.3133 46.9103 12.6454C46.4816 12.9775 45.9473 13.1434 45.4059 13.1124C43.6645 13.1124 42.5474 11.6668 42.5474 9.36693C42.5474 7.06706 43.6645 5.68714 45.4059 5.68714Z"
        fill="#141414"/>
    <path
        d="M55.8529 3.9458C52.9287 3.9458 50.9902 6.17996 50.9902 9.43264C50.9902 12.6853 52.8959 14.8538 56.0171 14.8538C58.317 14.8538 59.9598 13.7038 60.4198 11.9954L58.4813 11.634C58.1199 12.6196 57.2328 13.1453 56.05 13.1453C54.2758 13.1453 53.1258 11.9954 53.0601 9.95833H60.5512V9.23551C60.5183 5.42429 58.2513 3.9458 55.8529 3.9458ZM53.0273 8.44698C53.1258 6.93564 54.2101 5.65428 55.8529 5.65428C57.4956 5.65428 58.4813 6.83707 58.5142 8.44698H53.0273Z"
        fill="#141414"/>
    <path
        d="M67.5511 3.9458C65.9741 3.9458 64.9227 4.66862 64.4299 5.78571H64.2985V4.07722H62.3271V14.6238H64.397V8.34843C64.397 6.6728 65.4155 5.68714 66.8612 5.68714C68.2411 5.68714 69.0953 6.60709 69.0953 8.11844V14.591H71.1652V7.88845C71.1324 5.32573 69.6867 3.9458 67.5511 3.9458Z"
        fill="#141414"/>
    <path
        d="M77.4055 12.9487C76.7484 12.9487 76.157 12.7187 76.157 11.5359V5.72049H78.3255V4.07772H76.157V1.54785H74.0872V4.07772H72.543V5.72049H74.0872V11.963C74.0872 13.8686 75.5328 14.8214 77.1755 14.7886C77.635 14.7966 78.0919 14.7186 78.5226 14.5586L78.1612 12.8501C77.9141 12.9127 77.6604 12.9458 77.4055 12.9487Z"
        fill="#141414"/>
    <path
        d="M82.2027 5.75326H82.1041V4.07764H80.1328V14.6242H82.2027V8.18456C82.2027 6.80464 83.254 5.81897 84.7325 5.81897C85.0982 5.81302 85.463 5.85725 85.8167 5.9504V3.97908C85.5219 3.95046 85.2257 3.93949 84.9296 3.94622C84.341 3.91307 83.7574 4.07112 83.266 4.39678C82.7745 4.72244 82.4016 5.19827 82.2027 5.75326Z"
        fill="#141414"/>
    <path
        d="M88.0847 0.00328554C87.7501 -0.00657324 87.425 0.115251 87.1792 0.342569C86.9335 0.569887 86.7867 0.884551 86.7705 1.21892C86.776 1.38535 86.8145 1.54904 86.8837 1.70049C86.9529 1.85195 87.0515 1.98816 87.1737 2.10123C87.2959 2.21431 87.4394 2.30199 87.5958 2.35921C87.7522 2.41643 87.9184 2.44204 88.0847 2.43455C88.2519 2.44685 88.4198 2.42454 88.5779 2.36903C88.736 2.31351 88.881 2.22597 89.0038 2.11189C89.1266 1.9978 89.2245 1.85962 89.2915 1.70598C89.3585 1.55233 89.3931 1.38653 89.3931 1.21892C89.3931 1.05131 89.3585 0.885509 89.2915 0.731864C89.2245 0.57822 89.1266 0.44004 89.0038 0.325955C88.881 0.21187 88.736 0.124332 88.5779 0.068814C88.4198 0.0132957 88.2519 -0.00901221 88.0847 0.00328554Z"
        fill="#141414"/>
    <path d="M89.1382 4.07812H87.0684V14.6247H89.1382V4.07812Z" fill="#141414"/>
    <path
        d="M95.8394 5.68714C96.3794 5.66236 96.9107 5.83056 97.3381 6.16164C97.7655 6.49272 98.0611 6.96507 98.1721 7.49418H100.176C99.9463 5.35858 98.205 3.9458 95.8065 3.9458C92.8167 3.9458 90.9111 6.17997 90.9111 9.39979C90.9111 12.6196 92.751 14.8538 95.8394 14.8538C98.3364 14.8538 99.9463 13.3424 100.176 11.3054H98.1721C98.0668 11.8374 97.7726 12.3133 97.3439 12.6454C96.9152 12.9775 96.3808 13.1434 95.8394 13.1124C94.0981 13.1124 92.981 11.6668 92.981 9.36693C92.981 7.06706 94.1309 5.68714 95.8394 5.68714Z"
        fill="#141414"/>
    <path
        d="M107.109 8.74268L105.433 8.34842C104.283 8.08558 103.758 7.69131 103.79 6.96849C103.79 6.14711 104.678 5.58857 105.827 5.58857C107.109 5.58857 107.7 6.31139 107.93 7.00135L109.803 6.6728C109.376 5.03003 108.094 3.9458 105.827 3.9458C103.429 3.9458 101.753 5.1943 101.753 7.06706C101.753 8.57841 102.673 9.56407 104.645 9.99119L106.419 10.3855C107.437 10.6154 107.897 11.0754 107.897 11.7325C107.897 12.5539 107.01 13.1782 105.663 13.1782C104.448 13.1782 103.659 12.6525 103.396 11.6011L101.425 11.8968C101.753 13.7696 103.33 14.8209 105.696 14.8209C108.259 14.8209 110 13.4739 110 11.5682C110 10.0898 109.047 9.1698 107.109 8.74268Z"
        fill="#141414"/>
</svg>
