<svg xmlns="http://www.w3.org/2000/svg" id="Layer_2" viewBox="0 0 1500 335.21" width="155" height="45">
    <g id="Layer_1-2">
        <g>
            <g>
                <path
                    d="M39.53,295.5h8.21c-.21,4.46-1.11,8.31-2.7,11.53-1.59,3.23-3.9,5.7-6.92,7.43-3.02,1.72-6.79,2.59-11.31,2.59-3.24,0-6.17-.64-8.79-1.92-2.62-1.28-4.86-3.12-6.71-5.51-1.86-2.39-3.28-5.27-4.26-8.63s-1.47-7.14-1.47-11.33v-12c0-4.16.5-7.93,1.5-11.29,1-3.36,2.44-6.24,4.33-8.63,1.89-2.39,4.19-4.23,6.92-5.51,2.72-1.28,5.81-1.92,9.26-1.92,4.22,0,7.8.84,10.73,2.52,2.93,1.68,5.19,4.14,6.78,7.36,1.59,3.23,2.48,7.18,2.65,11.85h-8.21c-.21-3.42-.74-6.21-1.61-8.37-.86-2.16-2.13-3.75-3.82-4.77-1.68-1.03-3.86-1.54-6.54-1.54-2.38,0-4.44.48-6.18,1.43-1.74.95-3.17,2.31-4.28,4.08s-1.95,3.9-2.5,6.38c-.55,2.48-.83,5.26-.83,8.32v12.09c0,2.86.23,5.52.69,7.99.46,2.47,1.2,4.63,2.23,6.49,1.03,1.86,2.37,3.31,4.04,4.35,1.67,1.04,3.69,1.56,6.07,1.56,3,0,5.38-.49,7.14-1.47,1.75-.98,3.06-2.54,3.9-4.68s1.41-4.94,1.67-8.39Z"/>
                <path
                    d="M56.61,294.34v-4.6c0-3.75.48-7.04,1.43-9.88.95-2.84,2.28-5.21,3.97-7.12,1.7-1.9,3.67-3.34,5.93-4.31,2.26-.97,4.68-1.45,7.27-1.45s5.1.48,7.36,1.45c2.26.97,4.25,2.4,5.96,4.31,1.71,1.9,3.04,4.28,3.99,7.12.95,2.84,1.43,6.13,1.43,9.88v4.6c0,3.75-.48,7.04-1.43,9.88s-2.28,5.21-3.97,7.12c-1.7,1.9-3.67,3.33-5.93,4.28s-4.7,1.43-7.32,1.43-5.06-.48-7.32-1.43c-2.26-.95-4.25-2.38-5.96-4.28-1.71-1.9-3.04-4.28-3.99-7.12-.95-2.84-1.43-6.13-1.43-9.88ZM64.51,289.74v4.6c0,2.65.27,4.97.8,6.96s1.29,3.66,2.28,5c.98,1.34,2.13,2.34,3.44,3.01,1.31.67,2.74,1,4.28,1,1.78,0,3.35-.33,4.71-1,1.35-.67,2.48-1.67,3.37-3.01.89-1.34,1.56-3,2.01-5s.67-4.31.67-6.96v-4.6c0-2.65-.27-4.96-.8-6.94-.54-1.98-1.29-3.64-2.28-5-.98-1.35-2.13-2.36-3.46-3.03-1.32-.67-2.76-1-4.31-1s-2.93.33-4.24,1c-1.31.67-2.45,1.68-3.41,3.03-.97,1.35-1.72,3.02-2.25,5-.54,1.98-.8,4.29-.8,6.94Z"/>
                <path
                    d="M102.24,294.34v-4.6c0-3.75.48-7.04,1.43-9.88.95-2.84,2.28-5.21,3.97-7.12,1.7-1.9,3.67-3.34,5.93-4.31,2.26-.97,4.68-1.45,7.27-1.45s5.1.48,7.36,1.45c2.26.97,4.25,2.4,5.96,4.31,1.71,1.9,3.04,4.28,3.99,7.12.95,2.84,1.43,6.13,1.43,9.88v4.6c0,3.75-.48,7.04-1.43,9.88s-2.28,5.21-3.97,7.12c-1.7,1.9-3.67,3.33-5.93,4.28s-4.7,1.43-7.32,1.43-5.06-.48-7.32-1.43c-2.26-.95-4.25-2.38-5.96-4.28-1.71-1.9-3.04-4.28-3.99-7.12-.95-2.84-1.43-6.13-1.43-9.88ZM110.14,289.74v4.6c0,2.65.27,4.97.8,6.96s1.29,3.66,2.28,5c.98,1.34,2.13,2.34,3.44,3.01,1.31.67,2.74,1,4.28,1,1.78,0,3.35-.33,4.71-1,1.35-.67,2.48-1.67,3.37-3.01.89-1.34,1.56-3,2.01-5s.67-4.31.67-6.96v-4.6c0-2.65-.27-4.96-.8-6.94-.54-1.98-1.29-3.64-2.28-5-.98-1.35-2.13-2.36-3.46-3.03-1.32-.67-2.76-1-4.31-1s-2.93.33-4.24,1c-1.31.67-2.45,1.68-3.41,3.03-.97,1.35-1.72,3.02-2.25,5-.54,1.98-.8,4.29-.8,6.94Z"/>
                <path
                    d="M157.3,247.62v68.53h-7.9v-68.53h7.9ZM181.79,267.88l-17.18,22.53-10.62,12.23-.54-8.79,7.32-10.08,11.51-15.88h9.5ZM174.57,316.15l-13.56-23.02,4.06-7.36,18.69,30.38h-9.19Z"/>
                <path
                    d="M191.05,255.07c0-1.34.37-2.47,1.12-3.39.74-.92,1.86-1.38,3.35-1.38s2.61.46,3.37,1.38,1.14,2.05,1.14,3.39-.38,2.37-1.14,3.28c-.76.91-1.88,1.36-3.37,1.36s-2.6-.45-3.35-1.36c-.74-.91-1.12-2-1.12-3.28ZM199.34,267.88v48.28h-7.85v-48.28h7.85Z"/>
                <path
                    d="M228.27,317.05c-2.89,0-5.49-.43-7.81-1.29-2.32-.86-4.3-2.18-5.93-3.95-1.64-1.77-2.89-4.01-3.75-6.71-.86-2.71-1.29-5.9-1.29-9.59v-5.44c0-4.25.5-7.85,1.49-10.8,1-2.95,2.34-5.32,4.04-7.12,1.7-1.8,3.61-3.11,5.76-3.93,2.14-.82,4.34-1.23,6.6-1.23,3.03,0,5.62.49,7.76,1.47,2.14.98,3.88,2.44,5.22,4.37,1.34,1.93,2.33,4.31,2.97,7.14.64,2.83.96,6.08.96,9.77v4.6h-30.16v-6.74h22.26v-1.11c-.12-2.5-.45-4.7-1-6.6-.55-1.9-1.45-3.4-2.7-4.48-1.25-1.09-3.02-1.63-5.31-1.63-1.46,0-2.8.24-4.04.74-1.23.49-2.29,1.34-3.17,2.54-.88,1.2-1.56,2.86-2.05,4.98-.49,2.11-.74,4.79-.74,8.03v5.44c0,2.59.25,4.81.74,6.67.49,1.86,1.22,3.39,2.19,4.6.97,1.2,2.16,2.1,3.57,2.68,1.41.58,3.03.87,4.84.87,2.65,0,4.83-.51,6.56-1.54,1.72-1.03,3.23-2.34,4.51-3.95l4.15,4.95c-.86,1.22-1.99,2.39-3.37,3.5-1.38,1.11-3.08,2.02-5.09,2.72-2.01.7-4.41,1.05-7.21,1.05Z"/>
                <path
                    d="M253.84,247.62h7.9v59.16l-.67,9.37h-7.23v-68.53ZM288.82,289.83v4.51c0,3.81-.35,7.13-1.05,9.97-.7,2.84-1.73,5.21-3.1,7.09-1.37,1.89-3.03,3.3-5,4.24-1.96.94-4.21,1.41-6.74,1.41s-4.66-.51-6.47-1.52c-1.81-1.01-3.33-2.47-4.55-4.37-1.22-1.9-2.18-4.21-2.88-6.91-.7-2.71-1.18-5.76-1.45-9.15v-6.02c.27-3.42.74-6.49,1.43-9.21.68-2.72,1.64-5.04,2.86-6.96,1.22-1.92,2.74-3.38,4.55-4.39,1.81-1.01,3.97-1.52,6.47-1.52s4.83.45,6.8,1.34c1.98.89,3.64,2.27,5,4.13,1.35,1.86,2.38,4.22,3.08,7.09.7,2.87,1.05,6.3,1.05,10.28ZM280.92,294.34v-4.51c0-2.68-.17-5.01-.51-7-.34-1.99-.9-3.64-1.67-4.95-.77-1.31-1.81-2.29-3.1-2.95-1.29-.65-2.89-.98-4.8-.98-1.61,0-3.01.33-4.22.98-1.2.65-2.24,1.54-3.1,2.65-.86,1.12-1.58,2.38-2.14,3.79-.57,1.41-.98,2.88-1.25,4.39v12.67c.39,1.93,1,3.78,1.85,5.55.85,1.77,2,3.22,3.46,4.35,1.46,1.13,3.27,1.7,5.44,1.7,1.81,0,3.35-.31,4.62-.94,1.26-.62,2.3-1.58,3.1-2.88s1.39-2.93,1.76-4.91c.37-1.98.56-4.31.56-6.98Z"/>
                <path
                    d="M297.21,294.34v-4.6c0-3.75.48-7.04,1.43-9.88.95-2.84,2.28-5.21,3.97-7.12,1.7-1.9,3.67-3.34,5.93-4.31,2.26-.97,4.68-1.45,7.27-1.45s5.1.48,7.36,1.45c2.26.97,4.25,2.4,5.96,4.31,1.71,1.9,3.04,4.28,3.99,7.12.95,2.84,1.43,6.13,1.43,9.88v4.6c0,3.75-.48,7.04-1.43,9.88s-2.28,5.21-3.97,7.12c-1.7,1.9-3.67,3.33-5.93,4.28s-4.7,1.43-7.32,1.43-5.06-.48-7.32-1.43c-2.26-.95-4.25-2.38-5.96-4.28-1.71-1.9-3.04-4.28-3.99-7.12-.95-2.84-1.43-6.13-1.43-9.88ZM305.11,289.74v4.6c0,2.65.27,4.97.8,6.96s1.29,3.66,2.28,5c.98,1.34,2.13,2.34,3.44,3.01,1.31.67,2.74,1,4.28,1,1.78,0,3.35-.33,4.71-1,1.35-.67,2.48-1.67,3.37-3.01.89-1.34,1.56-3,2.01-5s.67-4.31.67-6.96v-4.6c0-2.65-.27-4.96-.8-6.94-.54-1.98-1.29-3.64-2.28-5-.98-1.35-2.13-2.36-3.46-3.03-1.32-.67-2.76-1-4.31-1s-2.93.33-4.24,1c-1.31.67-2.45,1.68-3.41,3.03-.97,1.35-1.72,3.02-2.25,5-.54,1.98-.8,4.29-.8,6.94Z"/>
                <path
                    d="M362.16,267.88v6.34h-22.53v-6.34h22.53ZM346.99,256.14h7.9v48.05c0,1.64.2,2.87.6,3.7.4.83.91,1.38,1.54,1.65.62.27,1.29.4,2.01.4.54,0,1.13-.07,1.78-.2.65-.13,1.1-.24,1.34-.33l-.04,6.74c-.54.21-1.25.41-2.14.6s-2.02.29-3.39.29c-1.7,0-3.27-.4-4.73-1.2-1.46-.8-2.63-2.15-3.52-4.04-.89-1.89-1.34-4.44-1.34-7.65v-48.01Z"/>
                <path
                    d="M426.14,295.5h8.21c-.21,4.46-1.11,8.31-2.7,11.53-1.59,3.23-3.9,5.7-6.92,7.43-3.02,1.72-6.79,2.59-11.31,2.59-3.24,0-6.17-.64-8.79-1.92-2.62-1.28-4.86-3.12-6.71-5.51-1.86-2.39-3.28-5.27-4.26-8.63s-1.47-7.14-1.47-11.33v-12c0-4.16.5-7.93,1.5-11.29,1-3.36,2.44-6.24,4.33-8.63,1.89-2.39,4.19-4.23,6.92-5.51,2.72-1.28,5.81-1.92,9.26-1.92,4.22,0,7.8.84,10.73,2.52,2.93,1.68,5.19,4.14,6.78,7.36,1.59,3.23,2.48,7.18,2.65,11.85h-8.21c-.21-3.42-.74-6.21-1.61-8.37-.86-2.16-2.13-3.75-3.82-4.77-1.68-1.03-3.86-1.54-6.54-1.54-2.38,0-4.44.48-6.18,1.43-1.74.95-3.17,2.31-4.28,4.08s-1.95,3.9-2.5,6.38c-.55,2.48-.83,5.26-.83,8.32v12.09c0,2.86.23,5.52.69,7.99.46,2.47,1.2,4.63,2.23,6.49,1.03,1.86,2.37,3.31,4.04,4.35,1.67,1.04,3.69,1.56,6.07,1.56,3,0,5.38-.49,7.14-1.47,1.75-.98,3.06-2.54,3.9-4.68s1.41-4.94,1.67-8.39Z"/>
                <path
                    d="M443.23,294.34v-4.6c0-3.75.48-7.04,1.43-9.88.95-2.84,2.28-5.21,3.97-7.12,1.7-1.9,3.67-3.34,5.93-4.31,2.26-.97,4.68-1.45,7.27-1.45s5.1.48,7.36,1.45c2.26.97,4.25,2.4,5.96,4.31,1.71,1.9,3.04,4.28,3.99,7.12.95,2.84,1.43,6.13,1.43,9.88v4.6c0,3.75-.48,7.04-1.43,9.88s-2.28,5.21-3.97,7.12c-1.7,1.9-3.67,3.33-5.93,4.28s-4.7,1.43-7.32,1.43-5.06-.48-7.32-1.43c-2.26-.95-4.25-2.38-5.96-4.28-1.71-1.9-3.04-4.28-3.99-7.12-.95-2.84-1.43-6.13-1.43-9.88ZM451.12,289.74v4.6c0,2.65.27,4.97.8,6.96s1.29,3.66,2.28,5c.98,1.34,2.13,2.34,3.44,3.01,1.31.67,2.74,1,4.28,1,1.78,0,3.35-.33,4.71-1,1.35-.67,2.48-1.67,3.37-3.01.89-1.34,1.56-3,2.01-5s.67-4.31.67-6.96v-4.6c0-2.65-.27-4.96-.8-6.94-.54-1.98-1.29-3.64-2.28-5-.98-1.35-2.13-2.36-3.46-3.03-1.32-.67-2.76-1-4.31-1s-2.93.33-4.24,1c-1.31.67-2.45,1.68-3.41,3.03-.97,1.35-1.72,3.02-2.25,5-.54,1.98-.8,4.29-.8,6.94Z"/>
                <path
                    d="M498.28,278.19v37.97h-7.9v-48.28h7.45l.45,10.31ZM496.37,290.19l-3.21-.13c-.03-3.3.35-6.36,1.14-9.17.79-2.81,1.92-5.26,3.39-7.34,1.47-2.08,3.23-3.7,5.29-4.84s4.33-1.72,6.83-1.72c1.96,0,3.75.32,5.35.96,1.61.64,2.97,1.66,4.1,3.06,1.13,1.4,2,3.21,2.61,5.42.61,2.22.91,4.92.91,8.1v31.63h-7.9v-31.72c0-2.53-.28-4.56-.83-6.09-.55-1.53-1.38-2.65-2.5-3.35-1.12-.7-2.52-1.05-4.22-1.05-1.55,0-2.99.43-4.33,1.29-1.34.86-2.51,2.05-3.5,3.57-1,1.52-1.77,3.25-2.32,5.2-.55,1.95-.83,4.01-.83,6.18Z"/>
                <path
                    d="M556.88,303.8c0-1.22-.3-2.29-.89-3.21-.6-.92-1.57-1.81-2.92-2.68-1.35-.86-3.18-1.78-5.47-2.77-2.23-.92-4.23-1.84-6-2.74-1.77-.91-3.27-1.9-4.48-2.97-1.22-1.07-2.15-2.31-2.79-3.73-.64-1.41-.96-3.09-.96-5.02s.36-3.73,1.09-5.38c.73-1.65,1.76-3.1,3.1-4.35,1.34-1.25,2.94-2.22,4.82-2.92s3.97-1.05,6.29-1.05c3.3,0,6.11.64,8.43,1.92,2.32,1.28,4.1,3.03,5.33,5.24,1.23,2.22,1.85,4.71,1.85,7.47h-7.85c0-1.34-.3-2.6-.89-3.79-.6-1.19-1.47-2.16-2.63-2.92-1.16-.76-2.57-1.14-4.24-1.14-1.76,0-3.18.31-4.28.94-1.1.62-1.9,1.43-2.39,2.43-.49,1-.74,2.09-.74,3.28,0,.89.13,1.66.38,2.3.25.64.69,1.23,1.32,1.78.62.55,1.48,1.12,2.57,1.7,1.09.58,2.48,1.24,4.17,1.99,3.27,1.28,6.02,2.57,8.25,3.88,2.23,1.31,3.93,2.84,5.09,4.6,1.16,1.76,1.74,3.93,1.74,6.51,0,2.11-.38,4.02-1.14,5.73-.76,1.71-1.84,3.18-3.23,4.4s-3.07,2.15-5.02,2.79c-1.95.64-4.13.96-6.54.96-3.63,0-6.7-.72-9.21-2.16-2.51-1.44-4.42-3.33-5.71-5.67-1.29-2.33-1.94-4.84-1.94-7.52h7.9c.09,2.26.6,4.02,1.54,5.26.94,1.25,2.07,2.11,3.41,2.59,1.34.48,2.68.71,4.02.71,1.75,0,3.23-.26,4.42-.78,1.19-.52,2.09-1.27,2.7-2.25.61-.98.91-2.13.91-3.44Z"/>
                <path
                    d="M591.83,317.05c-2.89,0-5.49-.43-7.81-1.29-2.32-.86-4.3-2.18-5.93-3.95-1.64-1.77-2.89-4.01-3.75-6.71-.86-2.71-1.29-5.9-1.29-9.59v-5.44c0-4.25.5-7.85,1.49-10.8,1-2.95,2.34-5.32,4.04-7.12,1.7-1.8,3.61-3.11,5.76-3.93,2.14-.82,4.34-1.23,6.6-1.23,3.03,0,5.62.49,7.76,1.47,2.14.98,3.88,2.44,5.22,4.37,1.34,1.93,2.33,4.31,2.97,7.14.64,2.83.96,6.08.96,9.77v4.6h-30.16v-6.74h22.26v-1.11c-.12-2.5-.45-4.7-1-6.6-.55-1.9-1.45-3.4-2.7-4.48-1.25-1.09-3.02-1.63-5.31-1.63-1.46,0-2.8.24-4.04.74-1.23.49-2.29,1.34-3.17,2.54-.88,1.2-1.56,2.86-2.05,4.98-.49,2.11-.74,4.79-.74,8.03v5.44c0,2.59.25,4.81.74,6.67.49,1.86,1.22,3.39,2.19,4.6.97,1.2,2.16,2.1,3.57,2.68,1.41.58,3.03.87,4.84.87,2.65,0,4.83-.51,6.56-1.54,1.72-1.03,3.23-2.34,4.51-3.95l4.15,4.95c-.86,1.22-1.99,2.39-3.37,3.5-1.38,1.11-3.08,2.02-5.09,2.72-2.01.7-4.41,1.05-7.21,1.05Z"/>
                <path
                    d="M625.29,278.19v37.97h-7.9v-48.28h7.45l.45,10.31ZM623.37,290.19l-3.21-.13c-.03-3.3.35-6.36,1.14-9.17.79-2.81,1.92-5.26,3.39-7.34,1.47-2.08,3.23-3.7,5.29-4.84s4.33-1.72,6.83-1.72c1.96,0,3.75.32,5.35.96,1.61.64,2.97,1.66,4.1,3.06,1.13,1.4,2,3.21,2.61,5.42.61,2.22.91,4.92.91,8.1v31.63h-7.9v-31.72c0-2.53-.28-4.56-.83-6.09-.55-1.53-1.38-2.65-2.5-3.35-1.12-.7-2.52-1.05-4.22-1.05-1.55,0-2.99.43-4.33,1.29-1.34.86-2.51,2.05-3.5,3.57-1,1.52-1.77,3.25-2.32,5.2-.55,1.95-.83,4.01-.83,6.18Z"/>
                <path
                    d="M679.25,267.88v6.34h-22.53v-6.34h22.53ZM664.08,256.14h7.9v48.05c0,1.64.2,2.87.6,3.7.4.83.91,1.38,1.54,1.65.62.27,1.29.4,2.01.4.54,0,1.13-.07,1.78-.2.65-.13,1.1-.24,1.34-.33l-.04,6.74c-.54.21-1.25.41-2.14.6s-2.02.29-3.39.29c-1.7,0-3.27-.4-4.73-1.2-1.46-.8-2.63-2.15-3.52-4.04-.89-1.89-1.34-4.44-1.34-7.65v-48.01Z"/>
                <path
                    d="M710.71,251.19h6.96l1.2,39.62v25.34h-8.16v-64.96ZM713.29,251.19h7.94l17,52.96,16.95-52.96h7.94l-21.82,64.96h-6.25l-21.77-64.96ZM758.71,251.19h6.96v64.96h-8.16v-25.34l1.2-39.62Z"/>
                <path
                    d="M802.62,286.89l.09,5.8h-5.49c-1.87,0-3.58.21-5.11.62-1.53.42-2.85,1.02-3.95,1.81-1.1.79-1.94,1.76-2.52,2.92-.58,1.16-.87,2.48-.87,3.97,0,1.93.27,3.47.8,4.62.54,1.15,1.34,1.97,2.41,2.48,1.07.51,2.42.76,4.06.76,1.99,0,3.75-.46,5.26-1.38,1.52-.92,2.7-2.04,3.55-3.35.85-1.31,1.24-2.53,1.18-3.66l1.74,3.7c-.12,1.16-.5,2.42-1.14,3.77-.64,1.35-1.52,2.65-2.65,3.88-1.13,1.23-2.46,2.25-3.99,3.03-1.53.79-3.25,1.18-5.15,1.18-2.8,0-5.24-.54-7.34-1.61-2.1-1.07-3.73-2.65-4.89-4.73-1.16-2.08-1.74-4.65-1.74-7.72,0-2.32.4-4.46,1.2-6.42s1.99-3.67,3.57-5.11c1.58-1.44,3.56-2.57,5.96-3.37,2.39-.8,5.17-1.2,8.32-1.2h6.69ZM801.37,307.9v-26.19c0-1.9-.29-3.44-.87-4.6-.58-1.16-1.44-2.01-2.59-2.54-1.15-.54-2.58-.8-4.31-.8s-3.1.34-4.31,1.03c-1.2.69-2.13,1.59-2.77,2.72-.64,1.13-.96,2.38-.96,3.75h-7.9c0-1.72.38-3.44,1.14-5.13.76-1.7,1.85-3.23,3.28-4.62,1.43-1.38,3.15-2.48,5.15-3.3,2.01-.82,4.26-1.23,6.76-1.23,2.97,0,5.61.48,7.9,1.45,2.29.97,4.09,2.54,5.4,4.71,1.31,2.17,1.96,5.06,1.96,8.66v23.83c0,1.61.13,3.32.38,5.13.25,1.81.62,3.38,1.09,4.69v.71h-8.17c-.39-.95-.68-2.22-.89-3.82-.21-1.59-.31-3.07-.31-4.44Z"/>
                <path
                    d="M828.76,278.19v37.97h-7.9v-48.28h7.45l.45,10.31ZM826.84,290.19l-3.21-.13c-.03-3.3.35-6.36,1.14-9.17.79-2.81,1.92-5.26,3.39-7.34,1.47-2.08,3.23-3.7,5.29-4.84s4.33-1.72,6.83-1.72c1.96,0,3.75.32,5.35.96,1.61.64,2.97,1.66,4.1,3.06,1.13,1.4,2,3.21,2.61,5.42.61,2.22.91,4.92.91,8.1v31.63h-7.9v-31.72c0-2.53-.28-4.56-.83-6.09-.55-1.53-1.38-2.65-2.5-3.35-1.12-.7-2.52-1.05-4.22-1.05-1.55,0-2.99.43-4.33,1.29-1.34.86-2.51,2.05-3.5,3.57-1,1.52-1.77,3.25-2.32,5.2-.55,1.95-.83,4.01-.83,6.18Z"/>
                <path
                    d="M888.82,286.89l.09,5.8h-5.49c-1.87,0-3.58.21-5.11.62-1.53.42-2.85,1.02-3.95,1.81-1.1.79-1.94,1.76-2.52,2.92-.58,1.16-.87,2.48-.87,3.97,0,1.93.27,3.47.8,4.62.54,1.15,1.34,1.97,2.41,2.48,1.07.51,2.42.76,4.06.76,1.99,0,3.75-.46,5.26-1.38,1.52-.92,2.7-2.04,3.55-3.35.85-1.31,1.24-2.53,1.18-3.66l1.74,3.7c-.12,1.16-.5,2.42-1.14,3.77-.64,1.35-1.52,2.65-2.65,3.88-1.13,1.23-2.46,2.25-3.99,3.03-1.53.79-3.25,1.18-5.15,1.18-2.8,0-5.24-.54-7.34-1.61-2.1-1.07-3.73-2.65-4.89-4.73-1.16-2.08-1.74-4.65-1.74-7.72,0-2.32.4-4.46,1.2-6.42s1.99-3.67,3.57-5.11c1.58-1.44,3.56-2.57,5.96-3.37,2.39-.8,5.17-1.2,8.32-1.2h6.69ZM887.58,307.9v-26.19c0-1.9-.29-3.44-.87-4.6-.58-1.16-1.44-2.01-2.59-2.54-1.15-.54-2.58-.8-4.31-.8s-3.1.34-4.31,1.03c-1.2.69-2.13,1.59-2.77,2.72-.64,1.13-.96,2.38-.96,3.75h-7.9c0-1.72.38-3.44,1.14-5.13.76-1.7,1.85-3.23,3.28-4.62,1.43-1.38,3.15-2.48,5.15-3.3,2.01-.82,4.26-1.23,6.76-1.23,2.97,0,5.61.48,7.9,1.45,2.29.97,4.09,2.54,5.4,4.71,1.31,2.17,1.96,5.06,1.96,8.66v23.83c0,1.61.13,3.32.38,5.13.25,1.81.62,3.38,1.09,4.69v.71h-8.17c-.39-.95-.68-2.22-.89-3.82-.21-1.59-.31-3.07-.31-4.44Z"/>
                <path
                    d="M905.35,294.34v-4.51c0-3.99.37-7.41,1.12-10.28.74-2.87,1.82-5.24,3.23-7.09,1.41-1.86,3.12-3.23,5.11-4.13,1.99-.89,4.22-1.34,6.69-1.34s4.65.51,6.47,1.52c1.81,1.01,3.32,2.48,4.53,4.39,1.2,1.92,2.16,4.24,2.86,6.96.7,2.72,1.18,5.79,1.45,9.21v6.02c-.27,3.39-.75,6.44-1.45,9.15-.7,2.71-1.67,5.01-2.9,6.91-1.23,1.9-2.76,3.36-4.57,4.37-1.81,1.01-3.97,1.52-6.47,1.52s-4.64-.47-6.6-1.41c-1.96-.94-3.65-2.35-5.06-4.24-1.41-1.89-2.5-4.25-3.26-7.09-.76-2.84-1.14-6.16-1.14-9.97ZM933.1,267.88h7.09v48.68c0,4.25-.74,7.76-2.21,10.53-1.47,2.77-3.52,4.81-6.13,6.14-2.62,1.32-5.64,1.98-9.06,1.98-1.22,0-2.75-.22-4.6-.67-1.84-.45-3.69-1.12-5.53-2.03-1.85-.91-3.36-2.05-4.55-3.41l3.26-5.49c1.7,1.72,3.49,2.96,5.4,3.7s3.72,1.12,5.44,1.12c2.05,0,3.84-.37,5.35-1.12s2.69-1.96,3.52-3.64c.83-1.68,1.25-3.92,1.25-6.71v-38.46l.76-10.62ZM913.25,289.83v4.51c0,2.68.19,5,.58,6.98.39,1.98.99,3.61,1.81,4.91.82,1.29,1.87,2.25,3.17,2.88,1.29.63,2.85.94,4.66.94,2.2,0,4-.54,5.4-1.61,1.4-1.07,2.52-2.49,3.37-4.26.85-1.77,1.52-3.68,2.03-5.73v-12.67c-.3-1.52-.72-2.98-1.27-4.39-.55-1.41-1.26-2.68-2.12-3.79-.86-1.11-1.9-2-3.1-2.65-1.2-.65-2.61-.98-4.22-.98-1.81,0-3.38.33-4.68.98-1.31.65-2.38,1.64-3.21,2.95-.83,1.31-1.44,2.96-1.83,4.95-.39,1.99-.58,4.33-.58,7Z"/>
                <path
                    d="M968.94,317.05c-2.89,0-5.49-.43-7.81-1.29-2.32-.86-4.3-2.18-5.93-3.95-1.64-1.77-2.89-4.01-3.75-6.71-.86-2.71-1.29-5.9-1.29-9.59v-5.44c0-4.25.5-7.85,1.49-10.8,1-2.95,2.34-5.32,4.04-7.12,1.7-1.8,3.61-3.11,5.76-3.93,2.14-.82,4.34-1.23,6.6-1.23,3.03,0,5.62.49,7.76,1.47,2.14.98,3.88,2.44,5.22,4.37,1.34,1.93,2.33,4.31,2.97,7.14.64,2.83.96,6.08.96,9.77v4.6h-30.16v-6.74h22.26v-1.11c-.12-2.5-.45-4.7-1-6.6-.55-1.9-1.45-3.4-2.7-4.48-1.25-1.09-3.02-1.63-5.31-1.63-1.46,0-2.8.24-4.04.74-1.23.49-2.29,1.34-3.17,2.54-.88,1.2-1.56,2.86-2.05,4.98-.49,2.11-.74,4.79-.74,8.03v5.44c0,2.59.25,4.81.74,6.67.49,1.86,1.22,3.39,2.19,4.6.97,1.2,2.16,2.1,3.57,2.68,1.41.58,3.03.87,4.84.87,2.65,0,4.83-.51,6.56-1.54,1.72-1.03,3.23-2.34,4.51-3.95l4.15,4.95c-.86,1.22-1.99,2.39-3.37,3.5-1.38,1.11-3.08,2.02-5.09,2.72-2.01.7-4.41,1.05-7.21,1.05Z"/>
                <path
                    d="M1002.34,277.47v38.68h-7.85v-48.28h7.41l.45,9.59ZM1000.73,290.19l-3.66-.13c-.03-3.3.3-6.36.98-9.17.68-2.81,1.72-5.26,3.1-7.34,1.38-2.08,3.12-3.7,5.22-4.84s4.54-1.72,7.34-1.72c1.84,0,3.56.32,5.15.96,1.59.64,2.98,1.64,4.17,3.01,1.19,1.37,2.12,3.12,2.79,5.26.67,2.14,1,4.73,1,7.76v32.17h-7.9v-31.77c0-2.53-.33-4.55-1-6.07-.67-1.52-1.61-2.62-2.83-3.32-1.22-.7-2.68-1.05-4.37-1.05-1.93,0-3.55.43-4.84,1.29-1.29.86-2.32,2.05-3.08,3.57s-1.29,3.25-1.61,5.2c-.31,1.95-.47,4.01-.47,6.18ZM1026.74,285.64l-5.26,1.7c-.03-2.65.3-5.19.98-7.63s1.7-4.61,3.06-6.51c1.35-1.9,3.04-3.41,5.06-4.53,2.02-1.12,4.37-1.67,7.05-1.67,2.2,0,4.15.34,5.84,1.03,1.7.68,3.13,1.73,4.31,3.15,1.17,1.41,2.06,3.22,2.65,5.42.59,2.2.89,4.82.89,7.85v31.72h-7.9v-31.81c0-2.71-.33-4.81-1-6.31-.67-1.5-1.61-2.56-2.83-3.17-1.22-.61-2.68-.91-4.37-.91-1.37,0-2.58.31-3.64.94-1.06.62-1.94,1.48-2.65,2.57-.71,1.09-1.26,2.33-1.63,3.73-.37,1.4-.56,2.89-.56,4.46Z"/>
                <path
                    d="M1080.01,317.05c-2.89,0-5.49-.43-7.81-1.29-2.32-.86-4.3-2.18-5.93-3.95-1.64-1.77-2.89-4.01-3.75-6.71-.86-2.71-1.29-5.9-1.29-9.59v-5.44c0-4.25.5-7.85,1.49-10.8,1-2.95,2.34-5.32,4.04-7.12,1.7-1.8,3.61-3.11,5.76-3.93,2.14-.82,4.34-1.23,6.6-1.23,3.03,0,5.62.49,7.76,1.47,2.14.98,3.88,2.44,5.22,4.37,1.34,1.93,2.33,4.31,2.97,7.14.64,2.83.96,6.08.96,9.77v4.6h-30.16v-6.74h22.26v-1.11c-.12-2.5-.45-4.7-1-6.6-.55-1.9-1.45-3.4-2.7-4.48-1.25-1.09-3.02-1.63-5.31-1.63-1.46,0-2.8.24-4.04.74-1.23.49-2.29,1.34-3.17,2.54-.88,1.2-1.56,2.86-2.05,4.98-.49,2.11-.74,4.79-.74,8.03v5.44c0,2.59.25,4.81.74,6.67.49,1.86,1.22,3.39,2.19,4.6.97,1.2,2.16,2.1,3.57,2.68,1.41.58,3.03.87,4.84.87,2.65,0,4.83-.51,6.56-1.54,1.72-1.03,3.23-2.34,4.51-3.95l4.15,4.95c-.86,1.22-1.99,2.39-3.37,3.5-1.38,1.11-3.08,2.02-5.09,2.72-2.01.7-4.41,1.05-7.21,1.05Z"/>
                <path
                    d="M1113.48,278.19v37.97h-7.9v-48.28h7.45l.45,10.31ZM1111.56,290.19l-3.21-.13c-.03-3.3.35-6.36,1.14-9.17.79-2.81,1.92-5.26,3.39-7.34,1.47-2.08,3.23-3.7,5.29-4.84s4.33-1.72,6.83-1.72c1.96,0,3.75.32,5.35.96,1.61.64,2.97,1.66,4.1,3.06,1.13,1.4,2,3.21,2.61,5.42.61,2.22.91,4.92.91,8.1v31.63h-7.9v-31.72c0-2.53-.28-4.56-.83-6.09-.55-1.53-1.38-2.65-2.5-3.35-1.12-.7-2.52-1.05-4.22-1.05-1.55,0-2.99.43-4.33,1.29-1.34.86-2.51,2.05-3.5,3.57-1,1.52-1.77,3.25-2.32,5.2-.55,1.95-.83,4.01-.83,6.18Z"/>
                <path
                    d="M1167.43,267.88v6.34h-22.53v-6.34h22.53ZM1152.26,256.14h7.9v48.05c0,1.64.2,2.87.6,3.7.4.83.91,1.38,1.54,1.65.62.27,1.29.4,2.01.4.54,0,1.13-.07,1.78-.2.65-.13,1.1-.24,1.34-.33l-.04,6.74c-.54.21-1.25.41-2.14.6s-2.02.29-3.39.29c-1.7,0-3.27-.4-4.73-1.2-1.46-.8-2.63-2.15-3.52-4.04-.89-1.89-1.34-4.44-1.34-7.65v-48.01Z"/>
                <path
                    d="M1219.59,290.68h-14.19v-7h14.19c2.68,0,4.84-.54,6.49-1.61,1.65-1.07,2.86-2.56,3.61-4.46.76-1.9,1.14-4.07,1.14-6.51,0-2.23-.38-4.33-1.14-6.29s-1.96-3.55-3.61-4.75c-1.65-1.2-3.81-1.81-6.49-1.81h-12.49v57.91h-8.21v-64.96h20.7c4.19,0,7.73.85,10.62,2.54,2.88,1.7,5.08,4.04,6.58,7.03,1.5,2.99,2.25,6.4,2.25,10.24,0,4.16-.75,7.72-2.25,10.66-1.5,2.95-3.7,5.18-6.58,6.72-2.89,1.53-6.43,2.3-10.62,2.3Z"/>
                <path d="M1256.62,247.62v68.53h-7.85v-68.53h7.85Z"/>
                <path
                    d="M1292.72,286.89l.09,5.8h-5.49c-1.87,0-3.58.21-5.11.62-1.53.42-2.85,1.02-3.95,1.81-1.1.79-1.94,1.76-2.52,2.92-.58,1.16-.87,2.48-.87,3.97,0,1.93.27,3.47.8,4.62.54,1.15,1.34,1.97,2.41,2.48,1.07.51,2.42.76,4.06.76,1.99,0,3.75-.46,5.26-1.38,1.52-.92,2.7-2.04,3.55-3.35.85-1.31,1.24-2.53,1.18-3.66l1.74,3.7c-.12,1.16-.5,2.42-1.14,3.77-.64,1.35-1.52,2.65-2.65,3.88-1.13,1.23-2.46,2.25-3.99,3.03-1.53.79-3.25,1.18-5.15,1.18-2.8,0-5.24-.54-7.34-1.61-2.1-1.07-3.73-2.65-4.89-4.73-1.16-2.08-1.74-4.65-1.74-7.72,0-2.32.4-4.46,1.2-6.42s1.99-3.67,3.57-5.11c1.58-1.44,3.56-2.57,5.96-3.37,2.39-.8,5.17-1.2,8.32-1.2h6.69ZM1291.47,307.9v-26.19c0-1.9-.29-3.44-.87-4.6-.58-1.16-1.44-2.01-2.59-2.54-1.15-.54-2.58-.8-4.31-.8s-3.1.34-4.31,1.03c-1.2.69-2.13,1.59-2.77,2.72-.64,1.13-.96,2.38-.96,3.75h-7.9c0-1.72.38-3.44,1.14-5.13.76-1.7,1.85-3.23,3.28-4.62,1.43-1.38,3.15-2.48,5.15-3.3,2.01-.82,4.26-1.23,6.76-1.23,2.97,0,5.61.48,7.9,1.45,2.29.97,4.09,2.54,5.4,4.71,1.31,2.17,1.96,5.06,1.96,8.66v23.83c0,1.61.13,3.32.38,5.13.25,1.81.62,3.38,1.09,4.69v.71h-8.17c-.39-.95-.68-2.22-.89-3.82-.21-1.59-.31-3.07-.31-4.44Z"/>
                <path
                    d="M1329.15,267.88v6.34h-22.53v-6.34h22.53ZM1313.98,256.14h7.9v48.05c0,1.64.2,2.87.6,3.7.4.83.91,1.38,1.54,1.65.62.27,1.29.4,2.01.4.54,0,1.13-.07,1.78-.2.65-.13,1.1-.24,1.34-.33l-.04,6.74c-.54.21-1.25.41-2.14.6s-2.02.29-3.39.29c-1.7,0-3.27-.4-4.73-1.2-1.46-.8-2.63-2.15-3.52-4.04-.89-1.89-1.34-4.44-1.34-7.65v-48.01Z"/>
                <path
                    d="M1358.84,267.88v6.34h-22.4v-6.34h22.4ZM1350.63,316.15h-7.9v-53.36c0-3.48.56-6.42,1.67-8.81,1.12-2.39,2.71-4.21,4.77-5.44,2.07-1.23,4.53-1.85,7.38-1.85.8,0,1.61.06,2.43.18.82.12,1.6.3,2.34.54l-.36,6.74c-.48-.15-1.05-.25-1.72-.31-.67-.06-1.3-.09-1.9-.09-1.43,0-2.65.35-3.66,1.05-1.01.7-1.78,1.72-2.3,3.06-.52,1.34-.78,2.99-.78,4.95v53.36Z"/>
                <path
                    d="M1365.08,294.34v-4.6c0-3.75.48-7.04,1.43-9.88.95-2.84,2.28-5.21,3.97-7.12,1.7-1.9,3.67-3.34,5.93-4.31,2.26-.97,4.68-1.45,7.27-1.45s5.1.48,7.36,1.45c2.26.97,4.25,2.4,5.96,4.31,1.71,1.9,3.04,4.28,3.99,7.12.95,2.84,1.43,6.13,1.43,9.88v4.6c0,3.75-.48,7.04-1.43,9.88s-2.28,5.21-3.97,7.12c-1.7,1.9-3.67,3.33-5.93,4.28s-4.7,1.43-7.32,1.43-5.06-.48-7.32-1.43c-2.26-.95-4.25-2.38-5.96-4.28-1.71-1.9-3.04-4.28-3.99-7.12-.95-2.84-1.43-6.13-1.43-9.88ZM1372.98,289.74v4.6c0,2.65.27,4.97.8,6.96s1.29,3.66,2.28,5c.98,1.34,2.13,2.34,3.44,3.01,1.31.67,2.74,1,4.28,1,1.78,0,3.35-.33,4.71-1,1.35-.67,2.48-1.67,3.37-3.01.89-1.34,1.56-3,2.01-5s.67-4.31.67-6.96v-4.6c0-2.65-.27-4.96-.8-6.94-.54-1.98-1.29-3.64-2.28-5-.98-1.35-2.13-2.36-3.46-3.03-1.32-.67-2.76-1-4.31-1s-2.93.33-4.24,1c-1.31.67-2.45,1.68-3.41,3.03-.97,1.35-1.72,3.02-2.25,5-.54,1.98-.8,4.29-.8,6.94Z"/>
                <path
                    d="M1420.14,275.46v40.69h-7.9v-48.28h7.63l.27,7.59ZM1432.14,267.61l.04,7.67c-.65-.15-1.24-.25-1.76-.29-.52-.04-1.12-.07-1.81-.07-1.49,0-2.79.3-3.9.89s-2.07,1.43-2.88,2.5-1.44,2.34-1.92,3.82c-.48,1.47-.8,3.09-.98,4.84l-2.05,1.34c0-2.91.23-5.65.69-8.21.46-2.56,1.18-4.83,2.16-6.8.98-1.98,2.24-3.52,3.77-4.64,1.53-1.12,3.37-1.67,5.51-1.67.48,0,1.06.07,1.76.2.7.13,1.15.28,1.36.42Z"/>
                <path
                    d="M1448.04,277.47v38.68h-7.85v-48.28h7.41l.45,9.59ZM1446.43,290.19l-3.66-.13c-.03-3.3.3-6.36.98-9.17.68-2.81,1.72-5.26,3.1-7.34,1.38-2.08,3.12-3.7,5.22-4.84s4.54-1.72,7.34-1.72c1.84,0,3.56.32,5.15.96,1.59.64,2.98,1.64,4.17,3.01,1.19,1.37,2.12,3.12,2.79,5.26.67,2.14,1,4.73,1,7.76v32.17h-7.9v-31.77c0-2.53-.33-4.55-1-6.07-.67-1.52-1.61-2.62-2.83-3.32-1.22-.7-2.68-1.05-4.37-1.05-1.93,0-3.55.43-4.84,1.29-1.29.86-2.32,2.05-3.08,3.57s-1.29,3.25-1.61,5.2c-.31,1.95-.47,4.01-.47,6.18ZM1472.44,285.64l-5.26,1.7c-.03-2.65.3-5.19.98-7.63s1.7-4.61,3.06-6.51c1.35-1.9,3.04-3.41,5.06-4.53,2.02-1.12,4.37-1.67,7.05-1.67,2.2,0,4.15.34,5.84,1.03,1.7.68,3.13,1.73,4.31,3.15,1.17,1.41,2.06,3.22,2.65,5.42.59,2.2.89,4.82.89,7.85v31.72h-7.9v-31.81c0-2.71-.33-4.81-1-6.31-.67-1.5-1.61-2.56-2.83-3.17-1.22-.61-2.68-.91-4.37-.91-1.37,0-2.58.31-3.64.94-1.06.62-1.94,1.48-2.65,2.57-.71,1.09-1.26,2.33-1.63,3.73-.37,1.4-.56,2.89-.56,4.46Z"/>
            </g>
            <g id="Design">
                <path
                    d="M274.64,3.12v149.34c0,11.44,3.48,17.55,12.08,17.55,9.11,0,11.91-6.96,11.91-17.55V3.12h38.18v146.9c0,34.76-15.96,51.95-50.68,51.95s-49.47-16.62-49.47-52.26V3.12h37.98Z"/>
                <path
                    d="M389.91,138.8v13.59c0,12.9,3.2,18.89,11.81,18.89s10.73-8.88,10.73-18.14c0-18.51-3.48-23.87-23.5-40.62-22.09-18.71-33.45-29.8-33.45-58.68S364.78,0,401.92,0c39.45,0,45.27,26.91,45.27,49.35v11.28h-35.62v-11.75c0-11.9-1.95-17.78-9.41-17.78-6.96,0-9.21,5.99-9.21,17.1,0,11.81,2.14,17.64,18.36,30.29,28.84,22.66,39.19,35.38,39.19,67.68s-10.49,56.01-49.45,56.01-48.08-22.57-48.08-51.63v-11.76h36.94,0Z"/>
                <path
                    d="M545.17,112.62h-40.43v53.46h47.4l-4.53,33.17h-80.64V3.12h80.35v33.36h-42.58v42.98h40.43v33.17h0Z"/>
                <path
                    d="M603.28,113.98v85.26h-37.66V3.12h48.94c32.87,0,49.11,14.44,49.11,48.73v7.05c0,27.95-11.16,36.26-19.57,40.24,12.2,5.89,17.92,14.86,17.92,42.22,0,18.93-.29,47.56,1.35,57.88h-36.49c-2.44-8.87-2.26-34.4-2.26-59.43,0-22.06-2.53-25.82-16.89-25.82h-4.45ZM603.39,84.26h4.67c12.6,0,17.74-3.98,17.74-22.24v-9.47c0-13.16-2.65-19.71-16.52-19.71h-5.89v51.42Z"/>
                <path
                    d="M777.83,135.23v10.62c0,24.75-4.56,56.33-49.52,56.33-33.21,0-47.64-17.69-47.64-53.75V52.26c0-34.11,17.01-52.08,48.43-52.08,41.42,0,48.15,27.27,48.15,52.94v12.31h-37.98v-16.73c0-10.8-2.3-16.26-10.17-16.26s-10.28,5.16-10.28,16.26v103.72c0,10.46,1.75,17.61,10.27,17.61s10.57-6,10.57-18.5v-16.3h38.17Z"/>
                <path
                    d="M872.28,112.62h-40.43v53.46h47.4l-4.53,33.17h-80.64V3.12h80.35v33.36h-42.58v42.98h40.43v33.17h0Z"/>
                <path
                    d="M892.72,199.24V3.12h41.73c6.23,23.93,25.88,112.76,27.44,121.37h.91c-2.09-26.1-3.43-61.77-3.43-89.15V3.12h35.02v196.12h-42.12c-4.06-18.66-25.51-120.13-26.77-126.41h-1.02c1.47,23.08,2.62,62.08,2.62,92.91v33.5h-34.38Z"/>
                <path d="M1036.03,36.48h-28.55V3.12h94.97v33.36h-28.74v162.76h-37.66V36.48h0Z"/>
                <path
                    d="M1153.45,113.98v85.26h-37.67V3.12h48.94c32.87,0,49.11,14.44,49.11,48.73v7.05c0,27.95-11.16,36.26-19.57,40.24,12.2,5.89,17.92,14.86,17.92,42.22,0,18.93-.29,47.56,1.35,57.88h-36.49c-2.44-8.87-2.26-34.4-2.26-59.43,0-22.06-2.53-25.82-16.89-25.82h-4.45,0ZM1153.56,84.26h4.67c12.6,0,17.74-3.98,17.74-22.24v-9.47c0-13.16-2.64-19.71-16.52-19.71h-5.89v51.42h0Z"/>
                <path d="M1272,3.12v196.12h-37.66V3.12h37.66Z"/>
                <path
                    d="M1389.72,135.23v10.62c0,24.75-4.56,56.33-49.52,56.33-33.21,0-47.64-17.69-47.64-53.75V52.26c0-34.11,17.01-52.08,48.43-52.08,41.42,0,48.15,27.27,48.15,52.94v12.31h-37.98v-16.73c0-10.8-2.3-16.26-10.17-16.26s-10.28,5.16-10.28,16.26v103.72c0,10.46,1.75,17.61,10.27,17.61s10.57-6,10.57-18.5v-16.3h38.17Z"/>
                <path
                    d="M1439.4,138.8v13.59c0,12.9,3.2,18.89,11.81,18.89s10.73-8.88,10.73-18.14c0-18.51-3.48-23.87-23.5-40.62-22.09-18.71-33.45-29.8-33.45-58.68s9.28-53.83,46.43-53.83c39.45,0,45.27,26.91,45.27,49.35v11.28h-35.62v-11.75c0-11.9-1.95-17.78-9.41-17.78-6.96,0-9.21,5.99-9.21,17.1,0,11.81,2.14,17.64,18.36,30.29,28.84,22.66,39.19,35.38,39.19,67.68s-10.49,56.01-49.45,56.01-48.08-22.57-48.08-51.63v-11.76h36.94,0Z"/>
                <path
                    d="M0,3.09v99.35c0,54.78,44.57,99.35,99.35,99.35s99.35-44.57,99.35-99.35V3.09H0ZM169.58,102.43c0,38.73-31.51,70.23-70.24,70.23S29.11,141.15,29.11,102.43V32.2h140.47v70.23h0Z"/>
                <polygon
                    points="79.05 138.22 79.19 138.22 79.19 138.22 112.83 138.22 112.76 138.08 151.42 56.52 117.78 56.52 94.41 105.81 83.27 86.2 49.62 86.2 79.11 138.08 79.05 138.22"/>
            </g>
        </g>
    </g>
</svg>
