<svg width="110" height="32" viewBox="0 0 110 32" fill="none" xmlns="http://www.w3.org/2000/svg">
<g clip-path="url(#clip0_533_11180)">
<g clip-path="url(#clip1_533_11180)">
<path d="M32.0211 23.5454C31.6571 23.5255 31.2958 23.6163 30.9845 23.8058C30.6731 23.9953 30.4265 24.2746 30.277 24.607H30.2011V21.5928H29.0068V29.7065H30.1632V28.7587H30.258C30.4117 29.0919 30.6619 29.3712 30.9763 29.5605C31.2907 29.7498 31.6546 29.8403 32.0211 29.8203C33.4997 29.8203 34.5613 28.6449 34.5613 26.6733C34.5613 24.7018 33.4997 23.5454 32.0211 23.5454ZM31.7746 28.8155C30.7509 28.8155 30.1822 27.9435 30.1822 26.6544C30.1822 25.3653 30.732 24.5312 31.7746 24.5312C32.8552 24.5312 33.386 25.4411 33.386 26.6544C33.386 27.8677 32.8362 28.8155 31.7746 28.8155Z" fill="#141414"/>
<path d="M37.8215 28.3604H37.7647L36.2291 23.6401H34.959L37.196 29.8012L37.0443 30.1993C36.741 31.0144 36.3239 31.0713 35.6604 30.9007L35.376 31.8675C35.6384 31.9573 35.914 32.0022 36.1912 32.0002C37.177 32.0002 37.7836 31.4884 38.1438 30.5216L40.6462 23.6211H39.376L37.8215 28.3604Z" fill="#141414"/>
<path d="M49.4613 26.8436C49.4613 27.9431 48.703 28.7393 47.4708 28.7393C46.2386 28.7393 45.4803 27.9431 45.4803 26.8436V21.6113H44.248V26.9573C44.248 28.6635 45.5182 29.8767 47.4708 29.8767C49.4234 29.8767 50.6935 28.6635 50.6935 26.9573V21.6113H49.4613V26.8436Z" fill="#141414"/>
<path d="M55.1107 26.3127L54.1439 26.0852C53.4803 25.9335 53.177 25.7061 53.196 25.289C53.196 24.8151 53.7078 24.4928 54.3713 24.4928C55.1107 24.4928 55.4519 24.9099 55.5846 25.308L56.6652 25.1184C56.4187 24.1705 55.6794 23.5449 54.3713 23.5449C52.9875 23.5449 52.0206 24.2653 52.0206 25.3459C52.0206 26.2179 52.5514 26.7866 53.6889 27.0331L54.7126 27.2606C55.3003 27.3933 55.5657 27.6587 55.5657 28.0378C55.5657 28.5117 55.0538 28.8719 54.2766 28.8719C53.5751 28.8719 53.1202 28.5686 52.9685 27.962L51.8311 28.1326C52.0206 29.2132 52.9306 29.8198 54.2955 29.8198C55.7742 29.8198 56.7789 29.0425 56.7789 27.943C56.7789 27.0899 56.2292 26.5591 55.1107 26.3127Z" fill="#141414"/>
<path d="M60.3428 23.5449C58.6366 23.5449 57.5371 24.834 57.5371 26.7108C57.5371 28.5876 58.6366 29.8388 60.4376 29.8388C61.7646 29.8388 62.7124 29.1752 62.9778 28.1895L61.8594 27.9809C61.6508 28.5497 61.139 28.853 60.4565 28.853C59.4328 28.853 58.7504 28.1895 58.7314 27.0141H63.0537V26.5971C63.0347 24.398 61.7267 23.5449 60.3428 23.5449ZM58.7125 26.1421C58.7693 25.27 59.3949 24.5307 60.3428 24.5307C61.2906 24.5307 61.8594 25.2132 61.8783 26.1421H58.7125Z" fill="#141414"/>
<path d="M65.291 24.5881H65.2341V23.6213H64.0967V29.7066H65.291V25.991C65.291 25.1948 65.8976 24.626 66.7507 24.626C66.9617 24.6226 67.1722 24.6481 67.3763 24.7019V23.5644C67.2062 23.5479 67.0353 23.5416 66.8644 23.5455C66.5248 23.5263 66.1881 23.6175 65.9045 23.8054C65.621 23.9933 65.4057 24.2679 65.291 24.5881Z" fill="#141414"/>
<path d="M70.4471 24.5497C70.7587 24.5354 71.0653 24.6324 71.3119 24.8234C71.5585 25.0145 71.7291 25.287 71.7931 25.5923H72.9495C72.8168 24.3601 71.8121 23.5449 70.4282 23.5449C68.703 23.5449 67.6035 24.834 67.6035 26.6918C67.6035 28.5497 68.6651 29.8388 70.4471 29.8388C71.8879 29.8388 72.8168 28.9667 72.9495 27.7914H71.7931C71.7323 28.0983 71.5626 28.3729 71.3152 28.5645C71.0678 28.7562 70.7595 28.8519 70.4471 28.834C69.4424 28.834 68.7978 27.9999 68.7978 26.6729C68.7978 25.3459 69.4424 24.5497 70.4471 24.5497Z" fill="#141414"/>
<path d="M76.4756 23.5449C74.7884 23.5449 73.6699 24.834 73.6699 26.7108C73.6699 28.5876 74.7695 29.8388 76.5704 29.8388C77.8974 29.8388 78.8453 29.1752 79.1107 28.1895L77.9922 27.9809C77.7837 28.5497 77.2718 28.853 76.5894 28.853C75.5657 28.853 74.9022 28.1895 74.8642 27.0141H79.1865V26.5971C79.1676 24.398 77.8595 23.5449 76.4756 23.5449ZM74.8453 26.1421C74.9022 25.27 75.5277 24.5307 76.4756 24.5307C77.4235 24.5307 77.9922 25.2132 78.0112 26.1421H74.8453Z" fill="#141414"/>
<path d="M83.2242 23.5449C82.3142 23.5449 81.7076 23.962 81.4232 24.6065H81.3474V23.6208H80.21V29.7061H81.4043V26.0852C81.4043 25.1184 81.9919 24.5497 82.8261 24.5497C83.6223 24.5497 84.1152 25.0805 84.1152 25.9525V29.6871H85.3095V25.8198C85.2905 24.3411 84.4564 23.5449 83.2242 23.5449Z" fill="#141414"/>
<path d="M88.9121 28.7393C88.533 28.7393 88.1917 28.6066 88.1917 27.9242V24.5687H89.4429V23.6208H88.1917V22.1611H86.9974V23.6208H86.1064V24.5687H86.9974V28.1706C86.9974 29.2701 87.8316 29.8199 88.7794 29.8009C89.0445 29.8056 89.3081 29.7606 89.5567 29.6682L89.3481 28.6825C89.2056 28.7186 89.0592 28.7377 88.9121 28.7393Z" fill="#141414"/>
<path d="M91.6796 24.5881H91.6228V23.6213H90.4854V29.7066H91.6796V25.991C91.6796 25.1948 92.2863 24.626 93.1393 24.626C93.3503 24.6226 93.5608 24.6481 93.7649 24.7019V23.5644C93.5948 23.5479 93.4239 23.5416 93.2531 23.5455C92.9134 23.5263 92.5767 23.6175 92.2932 23.8054C92.0096 23.9933 91.7944 24.2679 91.6796 24.5881Z" fill="#141414"/>
<path d="M95.0727 21.2705C94.8797 21.2648 94.6921 21.3351 94.5503 21.4662C94.4085 21.5974 94.3238 21.7789 94.3145 21.9719C94.3176 22.0679 94.3398 22.1623 94.3797 22.2497C94.4197 22.3371 94.4766 22.4157 94.5471 22.481C94.6176 22.5462 94.7004 22.5968 94.7906 22.6298C94.8809 22.6628 94.9768 22.6776 95.0727 22.6733C95.1692 22.6804 95.2661 22.6675 95.3573 22.6355C95.4486 22.6034 95.5322 22.5529 95.6031 22.4871C95.6739 22.4213 95.7304 22.3415 95.7691 22.2529C95.8077 22.1642 95.8276 22.0686 95.8276 21.9719C95.8276 21.8752 95.8077 21.7795 95.7691 21.6908C95.7304 21.6022 95.6739 21.5225 95.6031 21.4566C95.5322 21.3908 95.4486 21.3403 95.3573 21.3083C95.2661 21.2762 95.1692 21.2634 95.0727 21.2705Z" fill="#141414"/>
<path d="M95.6797 23.6211H94.4854V29.7064H95.6797V23.6211Z" fill="#141414"/>
<path d="M99.5467 24.5497C99.8583 24.5354 100.165 24.6324 100.411 24.8234C100.658 25.0145 100.829 25.287 100.893 25.5923H102.049C101.916 24.3601 100.912 23.5449 99.5277 23.5449C97.8026 23.5449 96.7031 24.834 96.7031 26.6918C96.7031 28.5497 97.7647 29.8388 99.5467 29.8388C100.987 29.8388 101.916 28.9667 102.049 27.7914H100.893C100.832 28.0983 100.662 28.3729 100.415 28.5645C100.167 28.7562 99.8591 28.8519 99.5467 28.834C98.542 28.834 97.8974 27.9999 97.8974 26.6729C97.8974 25.3459 98.5609 24.5497 99.5467 24.5497Z" fill="#141414"/>
<path d="M106.049 26.3127L105.082 26.0852C104.419 25.9335 104.116 25.7061 104.134 25.289C104.134 24.8151 104.646 24.4928 105.31 24.4928C106.049 24.4928 106.39 24.9099 106.523 25.308L107.604 25.1184C107.357 24.1705 106.618 23.5449 105.31 23.5449C103.926 23.5449 102.959 24.2653 102.959 25.3459C102.959 26.2179 103.49 26.7866 104.627 27.0331L105.651 27.2606C106.239 27.3933 106.504 27.6587 106.504 28.0378C106.504 28.5117 105.992 28.8719 105.215 28.8719C104.514 28.8719 104.059 28.5686 103.907 27.962L102.77 28.1326C102.959 29.2132 103.869 29.8198 105.234 29.8198C106.713 29.8198 107.717 29.0425 107.717 27.943C107.717 27.0899 107.168 26.5591 106.049 26.3127Z" fill="#141414"/>
<path d="M54.9218 17.6494L49.8222 10.8627L54.7701 5.19442H50.7322L46.0687 10.7868V0.455078H42.7891V17.6684H46.0687V14.4835L47.5284 12.929L50.808 17.6684H54.9218V17.6494Z" fill="#141414"/>
<path d="M57.0821 3.94318H57.1389C57.6589 3.93393 58.155 3.72324 58.5228 3.35549C58.8906 2.98773 59.1012 2.49161 59.1105 1.97161C59.1012 1.45161 58.8906 0.955493 58.5228 0.587738C58.155 0.219984 57.6589 0.00929717 57.1389 4.83686e-05C56.6247 -0.00356331 56.1297 0.195215 55.7609 0.553457C55.392 0.9117 55.1788 1.40066 55.1674 1.91474V1.97161C55.1623 2.22713 55.208 2.48111 55.3018 2.71886C55.3955 2.95661 55.5354 3.17342 55.7135 3.35676C55.8915 3.5401 56.1042 3.68632 56.3391 3.78698C56.574 3.88763 56.8265 3.94072 57.0821 3.94318Z" fill="#141414"/>
<path d="M55.4336 17.8196H58.6184V5.3457H55.4336V17.8196Z" fill="#141414"/>
<path d="M101.898 14.6923C101.898 16.9861 103.13 18.1425 105.424 18.1425C106.374 18.186 107.314 17.9343 108.116 17.4222L107.471 14.9577C107.137 15.1862 106.738 15.2994 106.334 15.28H106.258C105.932 15.232 105.639 15.0581 105.44 14.7957C105.241 14.5333 105.154 14.2034 105.196 13.8771V8.22784H107.736V5.36528H105.196V1.91504H101.917V5.36528H99.8691V8.22784H101.917V14.6923H101.898Z" fill="#141414"/>
<path d="M77.139 16.1891C77.5974 16.7765 78.1844 17.2512 78.8548 17.5765C79.5251 17.9018 80.2611 18.0692 81.0063 18.0659C84.1153 18.0659 86.5039 15.6962 86.5039 11.5066C86.5039 7.41185 84.1343 4.9474 81.0063 4.9474C80.2615 4.94602 79.5261 5.11431 78.8561 5.4395C78.186 5.76468 77.5988 6.23822 77.139 6.82417V0.435547H73.8594V17.6488H77.139V16.1891ZM77.139 9.28863C77.4594 8.84684 77.8777 8.48518 78.3612 8.23194C78.8446 7.97871 79.3801 7.84077 79.9257 7.82891C81.8025 7.82891 83.0347 9.28863 83.0347 11.4308C83.0347 13.573 81.8025 15.0327 79.9257 15.0327C79.3853 15.0254 78.8536 14.8953 78.3708 14.6522C77.888 14.4092 77.4668 14.0596 77.139 13.6299V9.28863Z" fill="#141414"/>
<path d="M68.4564 14.351C67.7506 14.8222 66.8922 15.008 66.0547 14.8708C65.2172 14.7335 64.463 14.2835 63.9445 13.6117L71.9066 9.02401L71.5843 8.37946C69.537 4.87235 66.0109 3.697 62.8071 5.5169C62.7123 5.57378 62.6175 5.63065 62.5417 5.68752C61.8351 6.12381 61.2218 6.69553 60.7371 7.36978C60.2523 8.04402 59.9057 8.80749 59.7172 9.61622C59.5286 10.425 59.5019 11.263 59.6386 12.0821C59.7752 12.9012 60.0725 13.6852 60.5133 14.3889C60.6081 14.5596 60.7028 14.7112 60.7787 14.8629C61.2272 15.5621 61.8094 16.1659 62.4917 16.6397C63.174 17.1136 63.9431 17.4481 64.755 17.6242C65.5668 17.8003 66.4054 17.8145 67.2227 17.666C68.0401 17.5174 68.82 17.2091 69.518 16.7586C71.1062 15.8983 72.3361 14.5004 72.9872 12.8155L70.6934 11.678C70.2981 12.8117 69.5027 13.7622 68.4564 14.351ZM64.1152 7.73491C64.1341 7.71595 64.1531 7.71595 64.172 7.697C64.4918 7.4933 64.8492 7.35561 65.223 7.29205C65.5968 7.22849 65.9796 7.24034 66.3487 7.32689C66.7179 7.41344 67.066 7.57295 67.3726 7.79604C67.6793 8.01913 67.9382 8.30128 68.1341 8.62591L62.8829 11.678C62.5522 10.9867 62.4954 10.1958 62.724 9.46427C62.9526 8.73276 63.4496 8.11491 64.1152 7.73491Z" fill="#141414"/>
<path d="M15.7366 16.1518C15.1053 16.8271 14.3421 17.3656 13.4943 17.7341C12.6465 18.1025 11.7321 18.2931 10.8077 18.294C8.98011 18.2889 7.22936 17.5581 5.9406 16.2622C4.65184 14.9664 3.93065 13.2116 3.93568 11.384C3.94071 9.55642 4.67154 7.80566 5.96741 6.51691C7.26328 5.22815 9.01803 4.50696 10.8456 4.51199C12.642 4.51006 14.3662 5.21881 15.6418 6.48355C16.4127 5.41473 17.4263 4.54411 18.5992 3.94327C17.1454 2.33156 15.2348 1.2014 13.1221 0.703524C11.0095 0.205652 8.79529 0.363733 6.77481 1.15668C4.75433 1.94963 3.02363 3.33976 1.81356 5.14165C0.603481 6.94355 -0.0284565 9.07155 0.00202988 11.2418C-0.0181691 14.0894 1.09238 16.8286 3.08988 18.858C5.08738 20.8875 7.80857 22.0415 10.6561 22.0665H10.7319C12.2297 22.0551 13.7093 21.7363 15.0789 21.1298C16.4485 20.5232 17.6789 19.6419 18.694 18.5404C17.5573 17.9516 16.5514 17.1391 15.7366 16.1518Z" fill="#141414"/>
<path d="M21.8781 4.7205C20.141 4.74313 18.484 5.45489 17.2717 6.69921C16.0594 7.94353 15.391 9.61847 15.4136 11.3556C15.4363 13.0927 16.148 14.7497 17.3923 15.962C18.6367 17.1743 20.3116 17.8427 22.0487 17.82C22.0677 17.82 22.0677 17.82 22.0677 17.839C23.7913 17.821 25.4375 17.1205 26.6456 15.8911C27.8537 14.6616 28.5253 13.0034 28.5132 11.2797V11.185C28.504 10.3242 28.3249 9.47377 27.9861 8.68246C27.6474 7.89115 27.1556 7.17457 26.539 6.57388C25.9225 5.97319 25.1933 5.50024 24.3935 5.18218C23.5936 4.86412 22.7388 4.70722 21.8781 4.7205ZM22.0487 14.6921C21.1376 14.6793 20.2674 14.3117 19.6231 13.6674C18.9788 13.0231 18.6112 12.1529 18.5985 11.2418C18.5985 10.5594 18.8008 9.89237 19.1799 9.32498C19.5591 8.75759 20.0979 8.31537 20.7284 8.05423C21.3588 7.79309 22.0525 7.72476 22.7218 7.85789C23.3911 7.99102 24.0059 8.31962 24.4884 8.80215C24.9709 9.28467 25.2995 9.89944 25.4327 10.5687C25.5658 11.238 25.4975 11.9317 25.2363 12.5622C24.9752 13.1926 24.533 13.7315 23.9656 14.1106C23.3982 14.4897 22.7311 14.6921 22.0487 14.6921Z" fill="#141414"/>
<path d="M35.4904 4.7205C34.6303 4.73171 33.7808 4.91222 32.9904 5.25172C32.2 5.59123 31.4843 6.08308 30.884 6.69921C29.6717 7.94353 29.0033 9.61847 29.0259 11.3556C29.0486 13.0927 29.7603 14.7497 31.0046 15.962C32.249 17.1743 33.9239 17.8427 35.661 17.82C35.68 17.82 35.68 17.82 35.68 17.839C37.4036 17.821 39.0498 17.1205 40.2579 15.8911C41.466 14.6616 42.1376 13.0034 42.1255 11.2797V11.185C42.1163 10.3242 41.9372 9.47377 41.5984 8.68246C41.2597 7.89115 40.7679 7.17457 40.1513 6.57388C39.5348 5.97319 38.8056 5.50024 38.0058 5.18218C37.2059 4.86412 36.3511 4.70722 35.4904 4.7205ZM35.661 14.6921C34.749 14.6822 33.8772 14.3155 33.2322 13.6706C32.5873 13.0257 32.2206 12.1538 32.2108 11.2418C32.2108 10.5594 32.4131 9.89237 32.7922 9.32498C33.1714 8.75759 33.7102 8.31537 34.3407 8.05423C34.9711 7.79309 35.6648 7.72476 36.3341 7.85789C37.0034 7.99102 37.6182 8.31962 38.1007 8.80215C38.5832 9.28467 38.9118 9.89944 39.045 10.5687C39.1781 11.238 39.1098 11.9317 38.8486 12.5622C38.5875 13.1926 38.1453 13.7315 37.5779 14.1106C37.0105 14.4897 36.3434 14.6921 35.661 14.6921Z" fill="#141414"/>
<path d="M93.613 17.8197C94.4675 17.8165 95.3128 17.6445 96.1006 17.3138C96.8884 16.983 97.6031 16.5 98.2038 15.8923C98.8044 15.2846 99.2791 14.5643 99.6007 13.7727C99.9222 12.9811 100.084 12.1338 100.078 11.2794V11.1846C100.061 9.88935 99.6599 8.62821 98.9262 7.56065C98.1924 6.4931 97.1587 5.66708 95.9555 5.18704C94.7524 4.707 93.4339 4.59451 92.1668 4.86377C90.8997 5.13304 89.7409 5.77198 88.837 6.6998C87.933 7.62761 87.3245 8.80264 87.0883 10.0763C86.8521 11.35 86.9989 12.6651 87.5101 13.8553C88.0214 15.0455 88.874 16.0574 89.9603 16.7631C91.0466 17.4687 92.3178 17.8364 93.613 17.8197ZM93.7078 7.8102C94.6229 7.8102 95.5005 8.17371 96.1475 8.82075C96.7946 9.4678 97.1581 10.3454 97.1581 11.2604C97.1581 12.1755 96.7946 13.0531 96.1475 13.7001C95.5005 14.3472 94.6229 14.7107 93.7078 14.7107C92.7928 14.7107 91.9152 14.3472 91.2681 13.7001C90.6211 13.0531 90.2576 12.1755 90.2576 11.2604C90.2576 10.3454 90.6211 9.4678 91.2681 8.82075C91.9152 8.17371 92.7928 7.8102 93.7078 7.8102Z" fill="#141414"/>
</g>
</g>
<defs>
<clipPath id="clip0_533_11180">
<rect width="109.333" height="32" fill="white"/>
</clipPath>
<clipPath id="clip1_533_11180">
<rect width="109.333" height="32.0001" fill="white"/>
</clipPath>
</defs>
</svg>
