<svg width="256" height="256" viewBox="0 0 256 256" fill="none" xmlns="http://www.w3.org/2000/svg">
<mask id="mask0_114_651" style="mask-type:luminance" maskUnits="userSpaceOnUse" x="40" y="97" width="19" height="36">
<path d="M58.615 97.5931H40.3113V132.309H58.615V97.5931Z" fill="white"/>
</mask>
<g mask="url(#mask0_114_651)">
<path d="M47.4134 98.2407V123.337C47.4134 125.26 48.0036 126.286 49.4596 126.286C51.0073 126.286 51.4795 125.117 51.4795 123.337V98.2407H57.9589V122.928C57.9589 128.767 55.2504 131.657 49.3612 131.657C43.472 131.657 40.9668 128.865 40.9668 122.876V98.2407H47.4134Z" fill="black"/>
</g>
<mask id="mask1_114_651" style="mask-type:luminance" maskUnits="userSpaceOnUse" x="60" y="97" width="18" height="36">
<path d="M77.9187 97.067H60.0544V132.348H77.9187V97.067Z" fill="white"/>
</mask>
<g mask="url(#mask1_114_651)">
<path d="M66.9727 121.043V123.329C66.9727 125.498 67.517 126.505 68.9729 126.505C70.4288 126.505 70.7961 125.011 70.7961 123.459C70.7961 120.348 70.2058 119.445 66.8087 116.632C63.064 113.489 61.136 111.625 61.136 106.773C61.136 101.921 62.7099 97.7255 69.0123 97.7255C75.7081 97.7255 76.6918 102.246 76.6918 106.02V107.916H70.6452V105.942C70.6452 103.941 70.3108 102.954 69.0516 102.954C67.8711 102.954 67.4908 103.961 67.4908 105.825C67.4908 107.812 67.858 108.793 70.6059 110.917C75.4982 114.723 77.2558 116.866 77.2558 122.29C77.2558 127.713 75.4786 131.701 68.8614 131.701C62.2443 131.701 60.7031 127.908 60.7031 123.024V121.049H66.9727V121.043Z" fill="black"/>
</g>
<mask id="mask2_114_651" style="mask-type:luminance" maskUnits="userSpaceOnUse" x="79" y="97" width="17" height="35">
<path d="M95.1661 97.5937H79.4004V131.855H95.1661V97.5937Z" fill="white"/>
</mask>
<g mask="url(#mask2_114_651)">
<path d="M93.322 116.641H86.4622V125.624H94.5025L93.7352 131.197H80.0549V98.2409H93.6892V103.846H86.4622V111.069H93.322V116.641Z" fill="black"/>
</g>
<mask id="mask3_114_651" style="mask-type:luminance" maskUnits="userSpaceOnUse" x="96" y="97" width="19" height="35">
<path d="M114.087 97.5927H96.137V131.854H114.087V97.5927Z" fill="white"/>
</mask>
<g mask="url(#mask3_114_651)">
<path d="M103.199 111.874H103.993C106.131 111.874 107.003 111.205 107.003 108.139V106.548C107.003 104.34 106.557 103.236 104.196 103.236H103.199V111.874ZM103.186 116.869V131.197H96.7917V98.2408H105.094C110.675 98.2408 113.43 100.67 113.43 106.431V107.62C113.43 112.316 111.534 113.712 110.111 114.381C112.184 115.375 113.154 116.882 113.154 121.48C113.154 124.663 113.102 129.475 113.384 131.203H107.193C106.78 129.716 106.806 125.422 106.806 121.214C106.806 117.505 106.38 116.875 103.94 116.875H103.186V116.869Z" fill="black"/>
</g>
<mask id="mask4_114_651" style="mask-type:luminance" maskUnits="userSpaceOnUse" x="115" y="97" width="19" height="36">
<path d="M133.46 97.1H115.661V132.348H133.46V97.1Z" fill="white"/>
</mask>
<g mask="url(#mask4_114_651)">
<path d="M132.802 120.445V122.231C132.802 126.388 132.028 131.701 124.401 131.701C118.768 131.701 116.322 128.726 116.322 122.666V106.507C116.322 100.771 119.207 97.7513 124.539 97.7513C131.569 97.7513 132.71 102.33 132.71 106.649V108.721H126.264V105.909C126.264 104.097 125.87 103.175 124.539 103.175C123.208 103.175 122.794 104.038 122.794 105.909V123.335C122.794 125.095 123.09 126.297 124.539 126.297C125.988 126.297 126.329 125.29 126.329 123.192V120.451H132.809L132.802 120.445Z" fill="black"/>
</g>
<mask id="mask5_114_651" style="mask-type:luminance" maskUnits="userSpaceOnUse" x="134" y="97" width="17" height="35">
<path d="M150.669 97.5937H134.904V131.855H150.669V97.5937Z" fill="white"/>
</mask>
<g mask="url(#mask5_114_651)">
<path d="M148.832 116.641H141.965V125.624H150.012L149.245 131.197H135.558V98.2409H149.192V103.846H141.965V111.069H148.832V116.641Z" fill="black"/>
</g>
<mask id="mask6_114_651" style="mask-type:luminance" maskUnits="userSpaceOnUse" x="151" y="97" width="20" height="35">
<path d="M170.205 97.5937H151.639V131.855H170.205V97.5937Z" fill="white"/>
</mask>
<g mask="url(#mask6_114_651)">
<path d="M152.299 131.197V98.2409H159.382C160.438 102.261 163.776 117.193 164.038 118.635H164.196C163.842 114.251 163.612 108.256 163.612 103.651V98.2409H169.554V131.203H162.405C161.717 128.066 158.077 111.017 157.861 109.958H157.69C157.939 113.835 158.136 120.395 158.136 125.572V131.203H152.299V131.197Z" fill="black"/>
</g>
<mask id="mask7_114_651" style="mask-type:luminance" maskUnits="userSpaceOnUse" x="171" y="97" width="18" height="35">
<path d="M188.536 97.5927H171.111V131.854H188.536V97.5927Z" fill="white"/>
</mask>
<g mask="url(#mask7_114_651)">
<path d="M176.614 103.846H171.767V98.2408H187.88V103.846H183.001V131.197H176.614V103.846Z" fill="black"/>
</g>
<mask id="mask8_114_651" style="mask-type:luminance" maskUnits="userSpaceOnUse" x="189" y="97" width="19" height="35">
<path d="M207.447 97.5931H189.497V131.854H207.447V97.5931Z" fill="white"/>
</mask>
<g mask="url(#mask8_114_651)">
<path d="M196.559 111.874H197.352C199.49 111.874 200.362 111.205 200.362 108.139V106.548C200.362 104.34 199.916 103.236 197.555 103.236H196.559V111.874ZM196.539 116.869V131.197H190.145V98.2408H198.447C204.028 98.2408 206.783 100.67 206.783 106.431V107.62C206.783 112.316 204.887 113.712 203.464 114.381C205.537 115.375 206.507 116.882 206.507 121.48C206.507 124.663 206.455 129.475 206.737 131.203H200.546C200.133 129.716 200.159 125.422 200.159 121.214C200.159 117.505 199.733 116.875 197.293 116.875H196.539V116.869Z" fill="black"/>
</g>
<mask id="mask9_114_651" style="mask-type:luminance" maskUnits="userSpaceOnUse" x="209" y="97" width="9" height="35">
<path d="M217.32 97.5937H209.614V131.855H217.32V97.5937Z" fill="white"/>
</mask>
<g mask="url(#mask9_114_651)">
<path d="M216.662 98.2409H210.268V131.203H216.662V98.2409Z" fill="black"/>
</g>
<mask id="mask10_114_651" style="mask-type:luminance" maskUnits="userSpaceOnUse" x="219" y="97" width="19" height="36">
<path d="M237.294 97.1003H219.495V132.349H237.294V97.1003Z" fill="white"/>
</mask>
<g mask="url(#mask10_114_651)">
<path d="M236.637 120.445V122.231C236.637 126.388 235.863 131.701 228.236 131.701C222.603 131.701 220.156 128.726 220.156 122.666V106.507C220.156 100.772 223.042 97.7515 228.374 97.7515C235.404 97.7515 236.545 102.331 236.545 106.65V108.722H230.099V105.909C230.099 104.097 229.705 103.175 228.374 103.175C227.043 103.175 226.629 104.039 226.629 105.909V123.335C226.629 125.096 226.924 126.297 228.374 126.297C229.823 126.297 230.164 125.29 230.164 123.192V120.452H236.644L236.637 120.445Z" fill="black"/>
</g>
<mask id="mask11_114_651" style="mask-type:luminance" maskUnits="userSpaceOnUse" x="238" y="97" width="18" height="36">
<path d="M256 97.067H238.136V132.348H256V97.067Z" fill="white"/>
</mask>
<g mask="url(#mask11_114_651)">
<path d="M245.063 121.042V123.328C245.063 125.498 245.608 126.504 247.064 126.504C248.52 126.504 248.887 125.011 248.887 123.458C248.887 120.347 248.297 119.444 244.9 116.632C241.155 113.488 239.227 111.624 239.227 106.773C239.227 101.921 240.801 97.725 247.103 97.725C253.799 97.725 254.783 102.246 254.783 106.019V107.916H248.736V105.941C248.736 103.941 248.402 102.954 247.142 102.954C245.962 102.954 245.582 103.96 245.582 105.824C245.582 107.812 245.949 108.793 248.697 110.916C253.589 114.722 255.347 116.866 255.347 122.289C255.347 127.713 253.569 131.7 246.952 131.7C240.335 131.7 238.794 127.907 238.794 123.023V121.049H245.063V121.042Z" fill="black"/>
</g>
<mask id="mask12_114_651" style="mask-type:luminance" maskUnits="userSpaceOnUse" x="0" y="97" width="36" height="36">
<path d="M35.1449 97.2356H0V132.049H35.1449V97.2356Z" fill="white"/>
</mask>
<g mask="url(#mask12_114_651)">
<path d="M5.6115 102.794V114.641C5.6115 121.175 10.976 126.488 17.5735 126.488C24.171 126.488 29.5355 121.175 29.5355 114.641V102.794H5.6115ZM17.5735 131.398C8.24786 131.398 0.653564 123.883 0.653564 114.641V97.8835H34.4869V114.641C34.4869 123.877 26.8991 131.398 17.5669 131.398H17.5735Z" fill="black"/>
</g>
<mask id="mask13_114_651" style="mask-type:luminance" maskUnits="userSpaceOnUse" x="8" y="111" width="13" height="11">
<path d="M20.5217 111.257H8.44824V121.331H20.5217V111.257Z" fill="white"/>
</mask>
<g mask="url(#mask13_114_651)">
<path d="M9.10278 111.909L14.1394 120.678H19.8712L14.8346 111.909H9.10278Z" fill="black"/>
</g>
<mask id="mask14_114_651" style="mask-type:luminance" maskUnits="userSpaceOnUse" x="13" y="106" width="15" height="16">
<path d="M27.0989 106.255H13.4646V121.336H27.0989V106.255Z" fill="white"/>
</mask>
<g mask="url(#mask14_114_651)">
<path d="M20.71 106.903L14.1191 120.679H19.8444L26.4418 106.903H20.71Z" fill="black"/>
</g>
<path d="M6.67271 152.446H8.05846C8.02332 153.199 7.87018 153.849 7.59906 154.397C7.33295 154.939 6.94383 155.356 6.43171 155.647C5.9246 155.938 5.28946 156.084 4.5263 156.084C3.97902 156.084 3.48447 155.976 3.04263 155.76C2.6008 155.544 2.22173 155.235 1.90541 154.833C1.59412 154.427 1.35563 153.94 1.18994 153.372C1.02425 152.805 0.941409 152.167 0.941409 151.459V149.434C0.941409 148.731 1.02425 148.095 1.18994 147.528C1.36065 146.961 1.60416 146.476 1.92047 146.075C2.24181 145.668 2.63093 145.357 3.08782 145.141C3.54974 144.925 4.07191 144.817 4.65433 144.817C5.36729 144.817 5.96979 144.96 6.46183 145.246C6.9589 145.527 7.34048 145.942 7.60659 146.489C7.87771 147.031 8.02834 147.696 8.05846 148.485H6.67271C6.63756 147.907 6.54719 147.438 6.40158 147.076C6.25598 146.71 6.04008 146.441 5.75389 146.27C5.47273 146.095 5.1062 146.007 4.65433 146.007C4.25266 146.007 3.90371 146.087 3.60748 146.248C3.31627 146.408 3.07527 146.639 2.88448 146.941C2.69871 147.237 2.55812 147.596 2.46273 148.018C2.37235 148.434 2.32716 148.901 2.32716 149.418V151.459C2.32716 151.941 2.36482 152.391 2.44013 152.808C2.52047 153.224 2.64599 153.591 2.8167 153.907C2.99243 154.218 3.22087 154.462 3.50204 154.638C3.78321 154.813 4.12463 154.901 4.5263 154.901C5.0334 154.901 5.43507 154.818 5.7313 154.653C6.02753 154.487 6.24594 154.223 6.38652 153.862C6.53213 153.5 6.62752 153.028 6.67271 152.446ZM9.47434 152.25V151.475C9.47434 150.842 9.55468 150.287 9.71534 149.81C9.87601 149.328 10.0994 148.926 10.3856 148.605C10.6718 148.284 11.0057 148.043 11.3873 147.882C11.7689 147.716 12.1781 147.634 12.6149 147.634C13.0617 147.634 13.476 147.716 13.8575 147.882C14.2391 148.043 14.573 148.284 14.8592 148.605C15.1504 148.926 15.3764 149.328 15.537 149.81C15.6977 150.287 15.778 150.842 15.778 151.475V152.25C15.778 152.883 15.6977 153.44 15.537 153.922C15.3764 154.399 15.1529 154.798 14.8667 155.12C14.5805 155.441 14.2467 155.682 13.8651 155.843C13.4835 156.003 13.0718 156.084 12.6299 156.084C12.1881 156.084 11.7764 156.003 11.3948 155.843C11.0132 155.682 10.6768 155.441 10.3856 155.12C10.0994 154.798 9.87601 154.399 9.71534 153.922C9.55468 153.44 9.47434 152.883 9.47434 152.25ZM10.8074 151.475V152.25C10.8074 152.697 10.8526 153.089 10.9429 153.425C11.0333 153.762 11.1613 154.043 11.327 154.269C11.4927 154.495 11.686 154.665 11.9069 154.781C12.1279 154.891 12.3689 154.946 12.6299 154.946C12.9312 154.946 13.1948 154.891 13.4207 154.781C13.6517 154.665 13.8425 154.495 13.9931 154.269C14.1437 154.043 14.2567 153.762 14.332 153.425C14.4073 153.089 14.445 152.697 14.445 152.25V151.475C14.445 151.028 14.3998 150.639 14.3094 150.307C14.219 149.971 14.091 149.69 13.9253 149.464C13.7596 149.233 13.5638 149.062 13.3379 148.952C13.117 148.836 12.876 148.778 12.6149 148.778C12.3588 148.778 12.1203 148.836 11.8994 148.952C11.6785 149.062 11.4852 149.233 11.3195 149.464C11.1588 149.69 11.0333 149.971 10.9429 150.307C10.8526 150.639 10.8074 151.028 10.8074 151.475ZM17.2165 152.25V151.475C17.2165 150.842 17.2968 150.287 17.4575 149.81C17.6182 149.328 17.8416 148.926 18.1278 148.605C18.414 148.284 18.7479 148.043 19.1294 147.882C19.511 147.716 19.9202 147.634 20.357 147.634C20.8039 147.634 21.2181 147.716 21.5997 147.882C21.9813 148.043 22.3152 148.284 22.6014 148.605C22.8926 148.926 23.1185 149.328 23.2792 149.81C23.4398 150.287 23.5202 150.842 23.5202 151.475V152.25C23.5202 152.883 23.4398 153.44 23.2792 153.922C23.1185 154.399 22.8951 154.798 22.6089 155.12C22.3227 155.441 21.9888 155.682 21.6072 155.843C21.2256 156.003 20.8139 156.084 20.3721 156.084C19.9303 156.084 19.5186 156.003 19.137 155.843C18.7554 155.682 18.419 155.441 18.1278 155.12C17.8416 154.798 17.6182 154.399 17.4575 153.922C17.2968 153.44 17.2165 152.883 17.2165 152.25ZM18.5495 151.475V152.25C18.5495 152.697 18.5947 153.089 18.6851 153.425C18.7755 153.762 18.9035 154.043 19.0692 154.269C19.2349 154.495 19.4282 154.665 19.6491 154.781C19.87 154.891 20.111 154.946 20.3721 154.946C20.6733 154.946 20.9369 154.891 21.1629 154.781C21.3938 154.665 21.5846 154.495 21.7353 154.269C21.8859 154.043 21.9989 153.762 22.0742 153.425C22.1495 153.089 22.1871 152.697 22.1871 152.25V151.475C22.1871 151.028 22.1419 150.639 22.0516 150.307C21.9612 149.971 21.8332 149.69 21.6675 149.464C21.5018 149.233 21.306 149.062 21.08 148.952C20.8591 148.836 20.6181 148.778 20.357 148.778C20.101 148.778 19.8625 148.836 19.6416 148.952C19.4206 149.062 19.2273 149.233 19.0617 149.464C18.901 149.69 18.7755 149.971 18.6851 150.307C18.5947 150.639 18.5495 151.028 18.5495 151.475ZM26.5779 144.365V155.933H25.2448V144.365H26.5779ZM30.7125 147.784L27.813 151.587L26.0206 153.651L25.9302 152.167L27.1653 150.465L29.1084 147.784H30.7125ZM29.4925 155.933L27.203 152.047L27.8883 150.804L31.0439 155.933H29.4925ZM33.6271 147.784V155.933H32.3016V147.784H33.6271ZM32.2263 145.623C32.2263 145.397 32.2891 145.206 32.4146 145.05C32.5401 144.895 32.7284 144.817 32.9795 144.817C33.2305 144.817 33.4188 144.895 33.5443 145.05C33.6748 145.206 33.7401 145.397 33.7401 145.623C33.7401 145.839 33.6748 146.024 33.5443 146.18C33.4188 146.331 33.2305 146.406 32.9795 146.406C32.7284 146.406 32.5401 146.331 32.4146 146.18C32.2891 146.024 32.2263 145.839 32.2263 145.623ZM38.6505 156.084C38.1635 156.084 37.7242 156.011 37.3325 155.865C36.9409 155.72 36.607 155.499 36.3309 155.203C36.0547 154.901 35.8438 154.522 35.6982 154.065C35.5526 153.608 35.4798 153.069 35.4798 152.446V151.527C35.4798 150.809 35.5627 150.202 35.7284 149.705C35.8991 149.208 36.1275 148.808 36.4137 148.507C36.6999 148.201 37.0237 147.98 37.3852 147.844C37.7467 147.704 38.1183 147.634 38.4999 147.634C39.012 147.634 39.4488 147.716 39.8103 147.882C40.1718 148.048 40.4655 148.294 40.6915 148.62C40.9174 148.947 41.0831 149.348 41.1885 149.825C41.299 150.302 41.3542 150.852 41.3542 151.475V152.25H36.2631V151.113H40.0212V150.925C40.0011 150.503 39.9434 150.131 39.848 149.81C39.7576 149.489 39.607 149.238 39.3961 149.057C39.1852 148.871 38.8865 148.778 38.4999 148.778C38.2539 148.778 38.0254 148.821 37.8145 148.906C37.6087 148.987 37.4304 149.13 37.2798 149.336C37.1342 149.536 37.0187 149.815 36.9334 150.172C36.853 150.528 36.8129 150.98 36.8129 151.527V152.446C36.8129 152.883 36.853 153.259 36.9334 153.576C37.0187 153.887 37.1417 154.146 37.3024 154.351C37.4681 154.552 37.6689 154.703 37.9049 154.803C38.1459 154.899 38.4195 154.946 38.7258 154.946C39.1727 154.946 39.5417 154.861 39.8329 154.69C40.1241 154.515 40.3777 154.291 40.5936 154.02L41.294 154.856C41.1484 155.062 40.9576 155.26 40.7216 155.451C40.4906 155.637 40.2045 155.79 39.863 155.91C39.5266 156.026 39.1225 156.084 38.6505 156.084ZM42.9659 144.365H44.299V154.351L44.186 155.933H42.9659V144.365ZM48.8704 151.49V152.25C48.8704 152.893 48.8102 153.455 48.6897 153.937C48.5742 154.414 48.401 154.813 48.17 155.135C47.9391 155.451 47.6579 155.69 47.3265 155.85C46.9952 156.006 46.6161 156.084 46.1893 156.084C45.7676 156.084 45.4035 155.998 45.0973 155.828C44.791 155.657 44.5349 155.411 44.3291 155.09C44.1232 154.768 43.96 154.379 43.8395 153.922C43.7241 153.465 43.6437 152.951 43.5985 152.378V151.362C43.6437 150.784 43.7241 150.267 43.8395 149.81C43.955 149.348 44.1157 148.957 44.3215 148.635C44.5274 148.309 44.7835 148.06 45.0897 147.89C45.396 147.719 45.76 147.634 46.1818 147.634C46.6136 147.634 46.9952 147.709 47.3265 147.86C47.6629 148.01 47.9441 148.244 48.17 148.56C48.401 148.871 48.5742 149.27 48.6897 149.757C48.8102 150.239 48.8704 150.817 48.8704 151.49ZM47.5374 152.25V151.49C47.5374 151.038 47.5073 150.644 47.447 150.307C47.3918 149.971 47.2989 149.692 47.1684 149.471C47.0378 149.25 46.8621 149.085 46.6412 148.974C46.4253 148.864 46.1567 148.808 45.8353 148.808C45.5642 148.808 45.3257 148.864 45.1199 148.974C44.919 149.085 44.7458 149.235 44.6002 149.426C44.4546 149.612 44.3341 149.825 44.2387 150.066C44.1433 150.302 44.073 150.548 44.0278 150.804V152.943C44.0931 153.269 44.196 153.583 44.3366 153.885C44.4822 154.181 44.678 154.424 44.9241 154.615C45.1701 154.806 45.4763 154.901 45.8429 154.901C46.1491 154.901 46.4077 154.849 46.6186 154.743C46.8345 154.638 47.0102 154.477 47.1458 154.261C47.2813 154.04 47.3792 153.764 47.4395 153.433C47.5048 153.096 47.5374 152.702 47.5374 152.25ZM50.2938 152.25V151.475C50.2938 150.842 50.3742 150.287 50.5348 149.81C50.6955 149.328 50.9189 148.926 51.2051 148.605C51.4913 148.284 51.8252 148.043 52.2068 147.882C52.5884 147.716 52.9976 147.634 53.4344 147.634C53.8812 147.634 54.2955 147.716 54.6771 147.882C55.0586 148.043 55.3925 148.284 55.6787 148.605C55.9699 148.926 56.1959 149.328 56.3565 149.81C56.5172 150.287 56.5975 150.842 56.5975 151.475V152.25C56.5975 152.883 56.5172 153.44 56.3565 153.922C56.1959 154.399 55.9724 154.798 55.6862 155.12C55.4001 155.441 55.0662 155.682 54.6846 155.843C54.303 156.003 53.8913 156.084 53.4495 156.084C53.0076 156.084 52.5959 156.003 52.2143 155.843C51.8327 155.682 51.4963 155.441 51.2051 155.12C50.9189 154.798 50.6955 154.399 50.5348 153.922C50.3742 153.44 50.2938 152.883 50.2938 152.25ZM51.6269 151.475V152.25C51.6269 152.697 51.6721 153.089 51.7624 153.425C51.8528 153.762 51.9809 154.043 52.1465 154.269C52.3122 154.495 52.5055 154.665 52.7265 154.781C52.9474 154.891 53.1884 154.946 53.4495 154.946C53.7507 154.946 54.0143 154.891 54.2402 154.781C54.4712 154.665 54.662 154.495 54.8126 154.269C54.9632 154.043 55.0762 153.762 55.1515 153.425C55.2268 153.089 55.2645 152.697 55.2645 152.25V151.475C55.2645 151.028 55.2193 150.639 55.1289 150.307C55.0386 149.971 54.9105 149.69 54.7448 149.464C54.5791 149.233 54.3833 149.062 54.1574 148.952C53.9365 148.836 53.6955 148.778 53.4344 148.778C53.1783 148.778 52.9398 148.836 52.7189 148.952C52.498 149.062 52.3047 149.233 52.139 149.464C51.9783 149.69 51.8528 149.971 51.7624 150.307C51.6721 150.639 51.6269 151.028 51.6269 151.475ZM61.2895 147.784V148.854H57.4862V147.784H61.2895ZM58.7289 145.803H60.0619V153.915C60.0619 154.191 60.0945 154.399 60.1598 154.54C60.2301 154.68 60.318 154.773 60.4234 154.818C60.5288 154.864 60.6418 154.886 60.7623 154.886C60.8527 154.886 60.9531 154.876 61.0636 154.856C61.174 154.831 61.2493 154.811 61.2895 154.796L61.282 155.933C61.1916 155.968 61.0711 156.001 60.9205 156.031C60.7699 156.066 60.5791 156.084 60.3481 156.084C60.0619 156.084 59.7958 156.016 59.5498 155.88C59.3038 155.745 59.1054 155.519 58.9548 155.203C58.8042 154.881 58.7289 154.449 58.7289 153.907V145.803ZM72.0894 152.446H73.4751C73.44 153.199 73.2868 153.849 73.0157 154.397C72.7496 154.939 72.3605 155.356 71.8484 155.647C71.3413 155.938 70.7061 156.084 69.9429 156.084C69.3957 156.084 68.9011 155.976 68.4593 155.76C68.0174 155.544 67.6384 155.235 67.3221 154.833C67.0108 154.427 66.7723 153.94 66.6066 153.372C66.4409 152.805 66.3581 152.167 66.3581 151.459V149.434C66.3581 148.731 66.4409 148.095 66.6066 147.528C66.7773 146.961 67.0208 146.476 67.3371 146.075C67.6585 145.668 68.0476 145.357 68.5045 145.141C68.9664 144.925 69.4886 144.817 70.071 144.817C70.7839 144.817 71.3864 144.96 71.8785 145.246C72.3755 145.527 72.7571 145.942 73.0232 146.489C73.2944 147.031 73.445 147.696 73.4751 148.485H72.0894C72.0542 147.907 71.9638 147.438 71.8182 147.076C71.6726 146.71 71.4567 146.441 71.1705 146.27C70.8894 146.095 70.5229 146.007 70.071 146.007C69.6693 146.007 69.3204 146.087 69.0241 146.248C68.7329 146.408 68.4919 146.639 68.3011 146.941C68.1154 147.237 67.9748 147.596 67.8794 148.018C67.789 148.434 67.7438 148.901 67.7438 149.418V151.459C67.7438 151.941 67.7815 152.391 67.8568 152.808C67.9371 153.224 68.0626 153.591 68.2333 153.907C68.4091 154.218 68.6375 154.462 68.9187 154.638C69.1999 154.813 69.5413 154.901 69.9429 154.901C70.4501 154.901 70.8517 154.818 71.1479 154.653C71.4442 154.487 71.6626 154.223 71.8032 153.862C71.9488 153.5 72.0442 153.028 72.0894 152.446ZM74.891 152.25V151.475C74.891 150.842 74.9713 150.287 75.132 149.81C75.2927 149.328 75.5161 148.926 75.8023 148.605C76.0885 148.284 76.4224 148.043 76.8039 147.882C77.1855 147.716 77.5947 147.634 78.0315 147.634C78.4784 147.634 78.8926 147.716 79.2742 147.882C79.6558 148.043 79.9897 148.284 80.2759 148.605C80.5671 148.926 80.793 149.328 80.9537 149.81C81.1143 150.287 81.1947 150.842 81.1947 151.475V152.25C81.1947 152.883 81.1143 153.44 80.9537 153.922C80.793 154.399 80.5696 154.798 80.2834 155.12C79.9972 155.441 79.6633 155.682 79.2817 155.843C78.9001 156.003 78.4884 156.084 78.0466 156.084C77.6048 156.084 77.1931 156.003 76.8115 155.843C76.4299 155.682 76.0935 155.441 75.8023 155.12C75.5161 154.798 75.2927 154.399 75.132 153.922C74.9713 153.44 74.891 152.883 74.891 152.25ZM76.224 151.475V152.25C76.224 152.697 76.2692 153.089 76.3596 153.425C76.45 153.762 76.578 154.043 76.7437 154.269C76.9094 154.495 77.1027 154.665 77.3236 154.781C77.5445 154.891 77.7855 154.946 78.0466 154.946C78.3478 154.946 78.6114 154.891 78.8374 154.781C79.0683 154.665 79.2591 154.495 79.4098 154.269C79.5604 154.043 79.6734 153.762 79.7487 153.425C79.824 153.089 79.8616 152.697 79.8616 152.25V151.475C79.8616 151.028 79.8164 150.639 79.7261 150.307C79.6357 149.971 79.5077 149.69 79.342 149.464C79.1763 149.233 78.9805 149.062 78.7545 148.952C78.5336 148.836 78.2926 148.778 78.0315 148.778C77.7755 148.778 77.537 148.836 77.3161 148.952C77.0951 149.062 76.9018 149.233 76.7362 149.464C76.5755 149.69 76.45 149.971 76.3596 150.307C76.2692 150.639 76.224 151.028 76.224 151.475ZM84.2448 149.524V155.933H82.9118V147.784H84.1695L84.2448 149.524ZM83.921 151.55L83.3787 151.527C83.3737 150.97 83.4365 150.455 83.567 149.983C83.7026 149.506 83.8934 149.092 84.1394 148.741C84.3904 148.389 84.6892 148.118 85.0356 147.927C85.3821 147.731 85.7662 147.634 86.1879 147.634C86.5193 147.634 86.8205 147.689 87.0917 147.799C87.3628 147.905 87.5937 148.075 87.7845 148.311C87.9753 148.547 88.1209 148.854 88.2213 149.23C88.3268 149.602 88.3795 150.056 88.3795 150.593V155.933H87.0465V150.578C87.0465 150.152 86.9988 149.81 86.9034 149.554C86.813 149.293 86.6724 149.105 86.4816 148.989C86.2959 148.869 86.0599 148.808 85.7737 148.808C85.5126 148.808 85.2691 148.881 85.0432 149.027C84.8172 149.172 84.6189 149.373 84.4482 149.629C84.2825 149.885 84.152 150.179 84.0566 150.511C83.9662 150.837 83.921 151.183 83.921 151.55ZM94.3367 153.847C94.3367 153.641 94.2865 153.46 94.1861 153.305C94.0857 153.149 93.92 152.998 93.6891 152.853C93.4631 152.707 93.1568 152.552 92.7702 152.386C92.3937 152.23 92.0548 152.077 91.7535 151.926C91.4573 151.771 91.2062 151.603 91.0004 151.422C90.7945 151.241 90.6364 151.033 90.5259 150.797C90.4205 150.556 90.3678 150.272 90.3678 149.946C90.3678 149.619 90.428 149.318 90.5485 149.042C90.674 148.761 90.8498 148.515 91.0757 148.304C91.3016 148.093 91.5728 147.93 91.8891 147.814C92.2054 147.694 92.5594 147.634 92.951 147.634C93.5083 147.634 93.9828 147.742 94.3744 147.957C94.766 148.173 95.0648 148.47 95.2706 148.846C95.4815 149.218 95.5869 149.637 95.5869 150.104H94.2614C94.2614 149.878 94.2112 149.665 94.1108 149.464C94.0104 149.263 93.8623 149.1 93.6665 148.974C93.4706 148.844 93.2322 148.778 92.951 148.778C92.6548 148.778 92.4138 148.831 92.228 148.936C92.0422 149.042 91.9067 149.18 91.8213 149.351C91.741 149.516 91.7008 149.7 91.7008 149.9C91.7008 150.051 91.7209 150.182 91.761 150.292C91.8062 150.398 91.8815 150.498 91.987 150.593C92.0924 150.684 92.2355 150.779 92.4163 150.88C92.602 150.975 92.838 151.085 93.1242 151.211C93.6765 151.427 94.1409 151.645 94.5175 151.866C94.8941 152.087 95.1802 152.346 95.3761 152.642C95.5719 152.938 95.6698 153.305 95.6698 153.741C95.6698 154.098 95.6045 154.422 95.474 154.713C95.3484 154.999 95.1677 155.245 94.9317 155.451C94.6957 155.657 94.4121 155.815 94.0807 155.926C93.7543 156.031 93.3878 156.084 92.9811 156.084C92.3686 156.084 91.8489 155.963 91.4221 155.722C91.0004 155.476 90.6791 155.157 90.4581 154.766C90.2422 154.369 90.1343 153.945 90.1343 153.493H91.4673C91.4824 153.874 91.5677 154.171 91.7234 154.382C91.8841 154.592 92.0774 154.738 92.3033 154.818C92.5292 154.899 92.7552 154.939 92.9811 154.939C93.2773 154.939 93.5259 154.896 93.7267 154.811C93.9275 154.721 94.0782 154.592 94.1786 154.427C94.284 154.261 94.3367 154.068 94.3367 153.847ZM100.332 156.084C99.8446 156.084 99.4053 156.011 99.0137 155.865C98.622 155.72 98.2882 155.499 98.012 155.203C97.7359 154.901 97.525 154.522 97.3794 154.065C97.2338 153.608 97.161 153.069 97.161 152.446V151.527C97.161 150.809 97.2438 150.202 97.4095 149.705C97.5802 149.208 97.8087 148.808 98.0948 148.507C98.381 148.201 98.7049 147.98 99.0664 147.844C99.4279 147.704 99.7994 147.634 100.181 147.634C100.693 147.634 101.13 147.716 101.491 147.882C101.853 148.048 102.147 148.294 102.373 148.62C102.599 148.947 102.764 149.348 102.87 149.825C102.98 150.302 103.035 150.852 103.035 151.475V152.25H97.9442V151.113H101.702V150.925C101.682 150.503 101.625 150.131 101.529 149.81C101.439 149.489 101.288 149.238 101.077 149.057C100.866 148.871 100.568 148.778 100.181 148.778C99.935 148.778 99.7065 148.821 99.4957 148.906C99.2898 148.987 99.1116 149.13 98.9609 149.336C98.8153 149.536 98.6999 149.815 98.6145 150.172C98.5342 150.528 98.494 150.98 98.494 151.527V152.446C98.494 152.883 98.5342 153.259 98.6145 153.576C98.6999 153.887 98.8229 154.146 98.9835 154.351C99.1492 154.552 99.3501 154.703 99.586 154.803C99.827 154.899 100.101 154.946 100.407 154.946C100.854 154.946 101.223 154.861 101.514 154.69C101.805 154.515 102.059 154.291 102.275 154.02L102.975 154.856C102.83 155.062 102.639 155.26 102.403 155.451C102.172 155.637 101.886 155.79 101.544 155.91C101.208 156.026 100.804 156.084 100.332 156.084ZM105.98 149.524V155.933H104.647V147.784H105.905L105.98 149.524ZM105.656 151.55L105.114 151.527C105.109 150.97 105.172 150.455 105.302 149.983C105.438 149.506 105.629 149.092 105.875 148.741C106.126 148.389 106.424 148.118 106.771 147.927C107.117 147.731 107.501 147.634 107.923 147.634C108.255 147.634 108.556 147.689 108.827 147.799C109.098 147.905 109.329 148.075 109.52 148.311C109.711 148.547 109.856 148.854 109.957 149.23C110.062 149.602 110.115 150.056 110.115 150.593V155.933H108.782V150.578C108.782 150.152 108.734 149.81 108.639 149.554C108.548 149.293 108.408 149.105 108.217 148.989C108.031 148.869 107.795 148.808 107.509 148.808C107.248 148.808 107.004 148.881 106.778 149.027C106.552 149.172 106.354 149.373 106.183 149.629C106.018 149.885 105.887 150.179 105.792 150.511C105.701 150.837 105.656 151.183 105.656 151.55ZM115.093 147.784V148.854H111.29V147.784H115.093ZM112.532 145.803H113.865V153.915C113.865 154.191 113.898 154.399 113.963 154.54C114.034 154.68 114.121 154.773 114.227 154.818C114.332 154.864 114.445 154.886 114.566 154.886C114.656 154.886 114.757 154.876 114.867 154.856C114.977 154.831 115.053 154.811 115.093 154.796L115.085 155.933C114.995 155.968 114.875 156.001 114.724 156.031C114.573 156.066 114.382 156.084 114.152 156.084C113.865 156.084 113.599 156.016 113.353 155.88C113.107 155.745 112.909 155.519 112.758 155.203C112.608 154.881 112.532 154.449 112.532 153.907V145.803ZM120.839 144.968H122.18L125.049 153.907L127.911 144.968H129.252L125.569 155.933H124.515L120.839 144.968ZM120.402 144.968H121.577L121.781 151.655V155.933H120.402V144.968ZM128.506 144.968H129.681V155.933H128.303V151.655L128.506 144.968ZM135.872 154.54V150.119C135.872 149.798 135.822 149.539 135.721 149.343C135.626 149.147 135.48 149.004 135.284 148.914C135.093 148.824 134.852 148.778 134.561 148.778C134.28 148.778 134.037 148.836 133.831 148.952C133.63 149.067 133.474 149.22 133.364 149.411C133.258 149.602 133.206 149.813 133.206 150.044H131.873C131.873 149.752 131.935 149.464 132.061 149.177C132.191 148.891 132.377 148.633 132.618 148.402C132.859 148.166 133.148 147.98 133.484 147.844C133.826 147.704 134.207 147.634 134.629 147.634C135.131 147.634 135.575 147.716 135.962 147.882C136.349 148.043 136.652 148.306 136.873 148.673C137.094 149.039 137.205 149.526 137.205 150.134V154.156C137.205 154.427 137.225 154.715 137.265 155.022C137.31 155.328 137.373 155.592 137.453 155.813V155.933H136.075C136.01 155.772 135.96 155.559 135.924 155.293C135.889 155.022 135.872 154.771 135.872 154.54ZM136.083 150.993L136.098 151.972H135.171C134.855 151.972 134.566 152.007 134.305 152.077C134.049 152.147 133.828 152.25 133.642 152.386C133.457 152.516 133.314 152.68 133.213 152.875C133.118 153.071 133.07 153.295 133.07 153.546C133.07 153.872 133.115 154.133 133.206 154.329C133.296 154.52 133.432 154.658 133.612 154.743C133.793 154.828 134.022 154.871 134.298 154.871C134.634 154.871 134.93 154.793 135.186 154.638C135.442 154.482 135.641 154.294 135.781 154.073C135.927 153.852 135.995 153.646 135.985 153.455L136.278 154.08C136.258 154.276 136.193 154.49 136.083 154.721C135.977 154.946 135.829 155.165 135.638 155.376C135.447 155.582 135.222 155.752 134.96 155.888C134.704 156.018 134.416 156.084 134.094 156.084C133.622 156.084 133.208 155.993 132.852 155.813C132.5 155.632 132.227 155.366 132.031 155.014C131.835 154.663 131.737 154.228 131.737 153.711C131.737 153.32 131.805 152.958 131.94 152.627C132.076 152.295 132.277 152.009 132.543 151.768C132.809 151.522 133.143 151.331 133.545 151.196C133.951 151.06 134.421 150.993 134.953 150.993H136.083ZM140.609 149.524V155.933H139.276V147.784H140.534L140.609 149.524ZM140.285 151.55L139.743 151.527C139.738 150.97 139.801 150.455 139.931 149.983C140.067 149.506 140.257 149.092 140.503 148.741C140.755 148.389 141.053 148.118 141.4 147.927C141.746 147.731 142.13 147.634 142.552 147.634C142.883 147.634 143.185 147.689 143.456 147.799C143.727 147.905 143.958 148.075 144.149 148.311C144.339 148.547 144.485 148.854 144.585 149.23C144.691 149.602 144.744 150.056 144.744 150.593V155.933H143.411V150.578C143.411 150.152 143.363 149.81 143.267 149.554C143.177 149.293 143.036 149.105 142.846 148.989C142.66 148.869 142.424 148.808 142.138 148.808C141.877 148.808 141.633 148.881 141.407 149.027C141.181 149.172 140.983 149.373 140.812 149.629C140.647 149.885 140.516 150.179 140.421 150.511C140.33 150.837 140.285 151.183 140.285 151.55ZM150.738 154.54V150.119C150.738 149.798 150.688 149.539 150.588 149.343C150.492 149.147 150.347 149.004 150.151 148.914C149.96 148.824 149.719 148.778 149.428 148.778C149.147 148.778 148.903 148.836 148.697 148.952C148.497 149.067 148.341 149.22 148.231 149.411C148.125 149.602 148.072 149.813 148.072 150.044H146.739C146.739 149.752 146.802 149.464 146.928 149.177C147.058 148.891 147.244 148.633 147.485 148.402C147.726 148.166 148.015 147.98 148.351 147.844C148.692 147.704 149.074 147.634 149.496 147.634C149.998 147.634 150.442 147.716 150.829 147.882C151.215 148.043 151.519 148.306 151.74 148.673C151.961 149.039 152.071 149.526 152.071 150.134V154.156C152.071 154.427 152.092 154.715 152.132 155.022C152.177 155.328 152.24 155.592 152.32 155.813V155.933H150.942C150.877 155.772 150.826 155.559 150.791 155.293C150.756 155.022 150.738 154.771 150.738 154.54ZM150.949 150.993L150.964 151.972H150.038C149.722 151.972 149.433 152.007 149.172 152.077C148.916 152.147 148.695 152.25 148.509 152.386C148.323 152.516 148.18 152.68 148.08 152.875C147.985 153.071 147.937 153.295 147.937 153.546C147.937 153.872 147.982 154.133 148.072 154.329C148.163 154.52 148.298 154.658 148.479 154.743C148.66 154.828 148.888 154.871 149.164 154.871C149.501 154.871 149.797 154.793 150.053 154.638C150.309 154.482 150.507 154.294 150.648 154.073C150.794 153.852 150.861 153.646 150.851 153.455L151.145 154.08C151.125 154.276 151.06 154.49 150.949 154.721C150.844 154.946 150.696 155.165 150.505 155.376C150.314 155.582 150.088 155.752 149.827 155.888C149.571 156.018 149.282 156.084 148.961 156.084C148.489 156.084 148.075 155.993 147.718 155.813C147.367 155.632 147.093 155.366 146.898 155.014C146.702 154.663 146.604 154.228 146.604 153.711C146.604 153.32 146.672 152.958 146.807 152.627C146.943 152.295 147.144 152.009 147.41 151.768C147.676 151.522 148.01 151.331 148.411 151.196C148.818 151.06 149.287 150.993 149.82 150.993H150.949ZM158.556 147.784H159.753V156.001C159.753 156.719 159.628 157.311 159.377 157.778C159.131 158.245 158.787 158.589 158.345 158.81C157.903 159.036 157.394 159.149 156.816 159.149C156.61 159.149 156.352 159.111 156.04 159.036C155.729 158.961 155.418 158.845 155.107 158.689C154.795 158.539 154.539 158.348 154.338 158.117L154.888 157.191C155.174 157.482 155.478 157.69 155.799 157.816C156.121 157.941 156.427 158.004 156.718 158.004C157.065 158.004 157.366 157.941 157.622 157.816C157.878 157.69 158.076 157.484 158.217 157.198C158.358 156.917 158.428 156.541 158.428 156.069V149.577L158.556 147.784ZM153.871 152.25V151.49C153.871 150.817 153.934 150.239 154.06 149.757C154.185 149.27 154.366 148.871 154.602 148.56C154.843 148.244 155.132 148.01 155.468 147.86C155.804 147.709 156.181 147.634 156.598 147.634C157.02 147.634 157.384 147.719 157.69 147.89C157.996 148.06 158.25 148.309 158.45 148.635C158.656 148.957 158.817 149.348 158.932 149.81C159.053 150.267 159.136 150.784 159.181 151.362V152.378C159.136 152.951 159.053 153.465 158.932 153.922C158.817 154.379 158.654 154.768 158.443 155.09C158.237 155.411 157.981 155.657 157.675 155.828C157.368 155.998 157.004 156.084 156.583 156.084C156.171 156.084 155.799 156.006 155.468 155.85C155.137 155.69 154.851 155.451 154.61 155.135C154.374 154.813 154.19 154.414 154.06 153.937C153.934 153.455 153.871 152.893 153.871 152.25ZM155.204 151.49V152.25C155.204 152.702 155.237 153.096 155.302 153.433C155.368 153.764 155.468 154.04 155.604 154.261C155.744 154.477 155.922 154.638 156.138 154.743C156.359 154.849 156.623 154.901 156.929 154.901C157.301 154.901 157.604 154.811 157.84 154.63C158.076 154.449 158.265 154.211 158.405 153.915C158.551 153.613 158.666 153.29 158.752 152.943V150.804C158.702 150.548 158.629 150.302 158.533 150.066C158.443 149.825 158.325 149.612 158.179 149.426C158.034 149.235 157.858 149.085 157.652 148.974C157.451 148.864 157.215 148.808 156.944 148.808C156.638 148.808 156.374 148.864 156.153 148.974C155.933 149.085 155.752 149.25 155.611 149.471C155.471 149.692 155.368 149.971 155.302 150.307C155.237 150.644 155.204 151.038 155.204 151.49ZM164.664 156.084C164.177 156.084 163.737 156.011 163.346 155.865C162.954 155.72 162.62 155.499 162.344 155.203C162.068 154.901 161.857 154.522 161.712 154.065C161.566 153.608 161.493 153.069 161.493 152.446V151.527C161.493 150.809 161.576 150.202 161.742 149.705C161.912 149.208 162.141 148.808 162.427 148.507C162.713 148.201 163.037 147.98 163.399 147.844C163.76 147.704 164.132 147.634 164.513 147.634C165.025 147.634 165.462 147.716 165.824 147.882C166.185 148.048 166.479 148.294 166.705 148.62C166.931 148.947 167.096 149.348 167.202 149.825C167.312 150.302 167.368 150.852 167.368 151.475V152.25H162.276V151.113H166.034V150.925C166.014 150.503 165.957 150.131 165.861 149.81C165.771 149.489 165.62 149.238 165.409 149.057C165.198 148.871 164.9 148.778 164.513 148.778C164.267 148.778 164.039 148.821 163.828 148.906C163.622 148.987 163.444 149.13 163.293 149.336C163.147 149.536 163.032 149.815 162.947 150.172C162.866 150.528 162.826 150.98 162.826 151.527V152.446C162.826 152.883 162.866 153.259 162.947 153.576C163.032 153.887 163.155 154.146 163.316 154.351C163.481 154.552 163.682 154.703 163.918 154.803C164.159 154.899 164.433 154.946 164.739 154.946C165.186 154.946 165.555 154.861 165.846 154.69C166.137 154.515 166.391 154.291 166.607 154.02L167.307 154.856C167.162 155.062 166.971 155.26 166.735 155.451C166.504 155.637 166.218 155.79 165.876 155.91C165.54 156.026 165.136 156.084 164.664 156.084ZM170.312 149.403V155.933H168.987V147.784H170.237L170.312 149.403ZM170.041 151.55L169.424 151.527C169.419 150.97 169.474 150.455 169.589 149.983C169.705 149.506 169.878 149.092 170.109 148.741C170.345 148.389 170.639 148.118 170.99 147.927C171.347 147.731 171.761 147.634 172.233 147.634C172.544 147.634 172.833 147.689 173.099 147.799C173.37 147.905 173.606 148.073 173.807 148.304C174.008 148.535 174.163 148.831 174.274 149.193C174.389 149.554 174.447 149.991 174.447 150.503V155.933H173.114V150.571C173.114 150.144 173.056 149.803 172.941 149.547C172.83 149.29 172.672 149.105 172.466 148.989C172.26 148.869 172.014 148.808 171.728 148.808C171.402 148.808 171.128 148.881 170.907 149.027C170.691 149.172 170.518 149.373 170.388 149.629C170.262 149.885 170.172 150.179 170.116 150.511C170.066 150.837 170.041 151.183 170.041 151.55ZM174.432 150.782L173.543 151.068C173.538 150.621 173.593 150.192 173.709 149.78C173.824 149.368 173.995 149.002 174.221 148.68C174.452 148.359 174.738 148.106 175.08 147.92C175.421 147.729 175.818 147.634 176.269 147.634C176.641 147.634 176.97 147.691 177.256 147.807C177.542 147.922 177.783 148.101 177.979 148.342C178.18 148.578 178.331 148.881 178.431 149.253C178.531 149.624 178.582 150.066 178.582 150.578V155.933H177.249V150.563C177.249 150.106 177.191 149.752 177.075 149.501C176.965 149.245 176.807 149.067 176.601 148.967C176.395 148.861 176.149 148.808 175.863 148.808C175.632 148.808 175.426 148.861 175.245 148.967C175.069 149.072 174.921 149.218 174.801 149.403C174.68 149.584 174.587 149.793 174.522 150.029C174.462 150.265 174.432 150.516 174.432 150.782ZM183.507 156.084C183.02 156.084 182.581 156.011 182.189 155.865C181.797 155.72 181.464 155.499 181.187 155.203C180.911 154.901 180.7 154.522 180.555 154.065C180.409 153.608 180.336 153.069 180.336 152.446V151.527C180.336 150.809 180.419 150.202 180.585 149.705C180.756 149.208 180.984 148.808 181.27 148.507C181.556 148.201 181.88 147.98 182.242 147.844C182.603 147.704 182.975 147.634 183.356 147.634C183.869 147.634 184.305 147.716 184.667 147.882C185.028 148.048 185.322 148.294 185.548 148.62C185.774 148.947 185.94 149.348 186.045 149.825C186.156 150.302 186.211 150.852 186.211 151.475V152.25H181.12V151.113H184.878V150.925C184.858 150.503 184.8 150.131 184.704 149.81C184.614 149.489 184.463 149.238 184.253 149.057C184.042 148.871 183.743 148.778 183.356 148.778C183.11 148.778 182.882 148.821 182.671 148.906C182.465 148.987 182.287 149.13 182.136 149.336C181.991 149.536 181.875 149.815 181.79 150.172C181.71 150.528 181.669 150.98 181.669 151.527V152.446C181.669 152.883 181.71 153.259 181.79 153.576C181.875 153.887 181.998 154.146 182.159 154.351C182.325 154.552 182.525 154.703 182.761 154.803C183.002 154.899 183.276 154.946 183.582 154.946C184.029 154.946 184.398 154.861 184.689 154.69C184.981 154.515 185.234 154.291 185.45 154.02L186.15 154.856C186.005 155.062 185.814 155.26 185.578 155.451C185.347 155.637 185.061 155.79 184.72 155.91C184.383 156.026 183.979 156.084 183.507 156.084ZM189.155 149.524V155.933H187.822V147.784H189.08L189.155 149.524ZM188.832 151.55L188.289 151.527C188.284 150.97 188.347 150.455 188.478 149.983C188.613 149.506 188.804 149.092 189.05 148.741C189.301 148.389 189.6 148.118 189.946 147.927C190.293 147.731 190.677 147.634 191.099 147.634C191.43 147.634 191.731 147.689 192.002 147.799C192.273 147.905 192.504 148.075 192.695 148.311C192.886 148.547 193.032 148.854 193.132 149.23C193.237 149.602 193.29 150.056 193.29 150.593V155.933H191.957V150.578C191.957 150.152 191.909 149.81 191.814 149.554C191.724 149.293 191.583 149.105 191.392 148.989C191.206 148.869 190.971 148.808 190.684 148.808C190.423 148.808 190.18 148.881 189.954 149.027C189.728 149.172 189.53 149.373 189.359 149.629C189.193 149.885 189.063 150.179 188.967 150.511C188.877 150.837 188.832 151.183 188.832 151.55ZM198.268 147.784V148.854H194.465V147.784H198.268ZM195.708 145.803H197.041V153.915C197.041 154.191 197.073 154.399 197.139 154.54C197.209 154.68 197.297 154.773 197.402 154.818C197.508 154.864 197.621 154.886 197.741 154.886C197.832 154.886 197.932 154.876 198.042 154.856C198.153 154.831 198.228 154.811 198.268 154.796L198.261 155.933C198.17 155.968 198.05 156.001 197.899 156.031C197.749 156.066 197.558 156.084 197.327 156.084C197.041 156.084 196.775 156.016 196.529 155.88C196.283 155.745 196.084 155.519 195.934 155.203C195.783 154.881 195.708 154.449 195.708 153.907V145.803ZM207.072 151.633H204.677V150.45H207.072C207.524 150.45 207.888 150.36 208.164 150.179C208.446 149.998 208.649 149.747 208.774 149.426C208.905 149.105 208.97 148.738 208.97 148.326C208.97 147.95 208.905 147.596 208.774 147.265C208.649 146.933 208.446 146.667 208.164 146.466C207.888 146.26 207.524 146.157 207.072 146.157H204.964V155.933H203.578V144.968H207.072C207.78 144.968 208.378 145.111 208.865 145.397C209.352 145.683 209.721 146.08 209.972 146.587C210.228 147.089 210.356 147.664 210.356 148.311C210.356 149.014 210.228 149.614 209.972 150.111C209.721 150.608 209.352 150.988 208.865 151.249C208.378 151.505 207.78 151.633 207.072 151.633ZM213.384 144.365V155.933H212.058V144.365H213.384ZM219.484 154.54V150.119C219.484 149.798 219.434 149.539 219.333 149.343C219.238 149.147 219.092 149.004 218.896 148.914C218.706 148.824 218.465 148.778 218.173 148.778C217.892 148.778 217.649 148.836 217.443 148.952C217.242 149.067 217.086 149.22 216.976 149.411C216.871 149.602 216.818 149.813 216.818 150.044H215.485C215.485 149.752 215.548 149.464 215.673 149.177C215.804 148.891 215.989 148.633 216.23 148.402C216.471 148.166 216.76 147.98 217.097 147.844C217.438 147.704 217.82 147.634 218.241 147.634C218.743 147.634 219.188 147.716 219.574 147.882C219.961 148.043 220.265 148.306 220.486 148.673C220.707 149.039 220.817 149.526 220.817 150.134V154.156C220.817 154.427 220.837 154.715 220.877 155.022C220.922 155.328 220.985 155.592 221.065 155.813V155.933H219.687C219.622 155.772 219.572 155.559 219.537 155.293C219.501 155.022 219.484 154.771 219.484 154.54ZM219.695 150.993L219.71 151.972H218.784C218.467 151.972 218.179 152.007 217.917 152.077C217.661 152.147 217.44 152.25 217.255 152.386C217.069 152.516 216.926 152.68 216.825 152.875C216.73 153.071 216.682 153.295 216.682 153.546C216.682 153.872 216.727 154.133 216.818 154.329C216.908 154.52 217.044 154.658 217.225 154.743C217.405 154.828 217.634 154.871 217.91 154.871C218.246 154.871 218.543 154.793 218.799 154.638C219.055 154.482 219.253 154.294 219.394 154.073C219.539 153.852 219.607 153.646 219.597 153.455L219.891 154.08C219.871 154.276 219.805 154.49 219.695 154.721C219.589 154.946 219.441 155.165 219.25 155.376C219.06 155.582 218.834 155.752 218.573 155.888C218.317 156.018 218.028 156.084 217.707 156.084C217.235 156.084 216.82 155.993 216.464 155.813C216.112 155.632 215.839 155.366 215.643 155.014C215.447 154.663 215.349 154.228 215.349 153.711C215.349 153.32 215.417 152.958 215.553 152.627C215.688 152.295 215.889 152.009 216.155 151.768C216.421 151.522 216.755 151.331 217.157 151.196C217.563 151.06 218.033 150.993 218.565 150.993H219.695ZM225.863 147.784V148.854H222.06V147.784H225.863ZM223.302 145.803H224.635V153.915C224.635 154.191 224.668 154.399 224.733 154.54C224.804 154.68 224.891 154.773 224.997 154.818C225.102 154.864 225.215 154.886 225.336 154.886C225.426 154.886 225.527 154.876 225.637 154.856C225.747 154.831 225.823 154.811 225.863 154.796L225.855 155.933C225.765 155.968 225.645 156.001 225.494 156.031C225.343 156.066 225.152 156.084 224.922 156.084C224.635 156.084 224.369 156.016 224.123 155.88C223.877 155.745 223.679 155.519 223.528 155.203C223.378 154.881 223.302 154.449 223.302 153.907V145.803ZM229.372 155.933H228.039V146.926C228.039 146.338 228.132 145.844 228.318 145.442C228.509 145.035 228.778 144.729 229.124 144.523C229.475 144.312 229.892 144.207 230.374 144.207C230.51 144.207 230.645 144.217 230.781 144.237C230.921 144.257 231.054 144.287 231.18 144.327L231.12 145.465C231.039 145.439 230.941 145.422 230.826 145.412C230.716 145.402 230.61 145.397 230.51 145.397C230.269 145.397 230.063 145.457 229.892 145.578C229.721 145.693 229.591 145.864 229.501 146.09C229.415 146.316 229.372 146.594 229.372 146.926V155.933ZM230.758 147.784V148.854H226.978V147.784H230.758ZM232.054 152.25V151.475C232.054 150.842 232.134 150.287 232.295 149.81C232.455 149.328 232.679 148.926 232.965 148.605C233.251 148.284 233.585 148.043 233.967 147.882C234.348 147.716 234.757 147.634 235.194 147.634C235.641 147.634 236.055 147.716 236.437 147.882C236.818 148.043 237.152 148.284 237.438 148.605C237.73 148.926 237.956 149.328 238.116 149.81C238.277 150.287 238.357 150.842 238.357 151.475V152.25C238.357 152.883 238.277 153.44 238.116 153.922C237.956 154.399 237.732 154.798 237.446 155.12C237.16 155.441 236.826 155.682 236.444 155.843C236.063 156.003 235.651 156.084 235.209 156.084C234.767 156.084 234.356 156.003 233.974 155.843C233.593 155.682 233.256 155.441 232.965 155.12C232.679 154.798 232.455 154.399 232.295 153.922C232.134 153.44 232.054 152.883 232.054 152.25ZM233.387 151.475V152.25C233.387 152.697 233.432 153.089 233.522 153.425C233.613 153.762 233.741 154.043 233.906 154.269C234.072 154.495 234.265 154.665 234.486 154.781C234.707 154.891 234.948 154.946 235.209 154.946C235.51 154.946 235.774 154.891 236 154.781C236.231 154.665 236.422 154.495 236.572 154.269C236.723 154.043 236.836 153.762 236.911 153.425C236.987 153.089 237.024 152.697 237.024 152.25V151.475C237.024 151.028 236.979 150.639 236.889 150.307C236.798 149.971 236.67 149.69 236.505 149.464C236.339 149.233 236.143 149.062 235.917 148.952C235.696 148.836 235.455 148.778 235.194 148.778C234.938 148.778 234.7 148.836 234.479 148.952C234.258 149.062 234.064 149.233 233.899 149.464C233.738 149.69 233.613 149.971 233.522 150.307C233.432 150.639 233.387 151.028 233.387 151.475ZM241.407 149.065V155.933H240.074V147.784H241.362L241.407 149.065ZM243.433 147.739L243.441 149.034C243.33 149.009 243.23 148.994 243.14 148.989C243.054 148.979 242.954 148.974 242.838 148.974C242.587 148.974 242.366 149.024 242.176 149.125C241.99 149.225 241.829 149.366 241.694 149.547C241.558 149.727 241.45 149.943 241.37 150.194C241.289 150.44 241.234 150.711 241.204 151.008L240.858 151.234C240.858 150.741 240.895 150.28 240.971 149.848C241.051 149.416 241.174 149.034 241.34 148.703C241.505 148.367 241.716 148.106 241.972 147.92C242.233 147.729 242.545 147.634 242.906 147.634C242.987 147.634 243.084 147.646 243.2 147.671C243.32 147.691 243.398 147.714 243.433 147.739ZM246.107 149.403V155.933H244.781V147.784H246.032L246.107 149.403ZM245.836 151.55L245.218 151.527C245.213 150.97 245.268 150.455 245.384 149.983C245.499 149.506 245.673 149.092 245.904 148.741C246.14 148.389 246.433 148.118 246.785 147.927C247.141 147.731 247.555 147.634 248.027 147.634C248.339 147.634 248.627 147.689 248.894 147.799C249.165 147.905 249.401 148.073 249.601 148.304C249.802 148.535 249.958 148.831 250.068 149.193C250.184 149.554 250.242 149.991 250.242 150.503V155.933H248.909V150.571C248.909 150.144 248.851 149.803 248.735 149.547C248.625 149.29 248.467 149.105 248.261 148.989C248.055 148.869 247.809 148.808 247.523 148.808C247.196 148.808 246.923 148.881 246.702 149.027C246.486 149.172 246.313 149.373 246.182 149.629C246.057 149.885 245.966 150.179 245.911 150.511C245.861 150.837 245.836 151.183 245.836 151.55ZM250.227 150.782L249.338 151.068C249.333 150.621 249.388 150.192 249.504 149.78C249.619 149.368 249.79 149.002 250.016 148.68C250.247 148.359 250.533 148.106 250.874 147.92C251.216 147.729 251.612 147.634 252.064 147.634C252.436 147.634 252.765 147.691 253.051 147.807C253.337 147.922 253.578 148.101 253.774 148.342C253.975 148.578 254.125 148.881 254.226 149.253C254.326 149.624 254.376 150.066 254.376 150.578V155.933H253.043V150.563C253.043 150.106 252.986 149.752 252.87 149.501C252.76 149.245 252.601 149.067 252.396 148.967C252.19 148.861 251.944 148.808 251.658 148.808C251.427 148.808 251.221 148.861 251.04 148.967C250.864 149.072 250.716 149.218 250.596 149.403C250.475 149.584 250.382 149.793 250.317 150.029C250.257 150.265 250.227 150.516 250.227 150.782Z" fill="black"/>
</svg>
