<svg width="256" height="256" viewBox="0 0 256 256" fill="none" xmlns="http://www.w3.org/2000/svg">
<path d="M176.877 157.724L169.287 147.635L176.649 139.207H170.644L163.709 147.528V132.15H158.832V157.755H163.709V153.015L165.881 150.729L170.758 157.778H176.854L176.877 157.724Z" fill="#1032CF"/>
<path d="M180.085 137.339H180.177C180.95 137.325 181.687 137.011 182.233 136.464C182.779 135.916 183.091 135.178 183.103 134.405C183.094 133.632 182.782 132.893 182.234 132.347C181.687 131.8 180.95 131.486 180.177 131.471C179.411 131.465 178.674 131.76 178.125 132.294C177.576 132.827 177.259 133.555 177.243 134.321V134.405C177.234 134.784 177.301 135.161 177.44 135.515C177.579 135.868 177.786 136.19 178.051 136.462C178.315 136.735 178.631 136.953 178.98 137.102C179.33 137.252 179.705 137.332 180.085 137.339Z" fill="#1032CF"/>
<path d="M177.641 157.976H182.373V139.42H177.641V157.976Z" fill="#1032CF"/>
<path d="M246.748 153.328C246.748 156.734 248.585 158.456 251.999 158.456C253.411 158.522 254.81 158.146 255.999 157.382L255.039 153.731C254.544 154.074 253.949 154.243 253.347 154.212H253.241C252.757 154.141 252.319 153.884 252.023 153.495C251.727 153.106 251.595 152.616 251.656 152.131V143.749H255.466V139.451H251.656V134.322H246.779V139.451H243.73V143.711H246.779V153.328H246.748Z" fill="#1032CF"/>
<path d="M209.92 155.554C210.599 156.427 211.47 157.132 212.465 157.615C213.459 158.099 214.552 158.348 215.658 158.343C220.283 158.343 223.835 154.822 223.835 148.589C223.835 142.492 220.314 138.835 215.658 138.835C214.546 138.838 213.451 139.099 212.457 139.597C211.461 140.079 210.588 140.783 209.904 141.654V132.121H205.027V157.726H209.904L209.92 155.554ZM209.92 145.289C210.398 144.634 211.021 144.097 211.74 143.721C212.458 143.344 213.254 143.138 214.065 143.117C216.854 143.117 218.691 145.289 218.691 148.452C218.691 151.614 216.854 153.786 214.065 153.786C213.271 153.771 212.49 153.578 211.779 153.222C211.058 152.862 210.429 152.341 209.943 151.698L209.92 145.289Z" fill="#1032CF"/>
<path d="M197.011 152.817C195.962 153.52 194.685 153.798 193.438 153.595C192.191 153.391 191.069 152.721 190.298 151.72L202.14 144.861L201.66 143.909C198.612 138.689 193.369 136.944 188.606 139.649C188.47 139.726 188.337 139.81 188.21 139.9C187.159 140.549 186.246 141.399 185.526 142.403C184.805 143.406 184.29 144.542 184.011 145.745C183.722 146.952 183.676 148.204 183.876 149.429C184.076 150.654 184.519 151.826 185.177 152.878C185.322 153.129 185.459 153.35 185.573 153.579C186.239 154.62 187.104 155.519 188.119 156.224C189.134 156.929 190.279 157.426 191.487 157.686C192.695 157.948 193.942 157.968 195.158 157.747C196.374 157.526 197.535 157.068 198.574 156.399C200.936 155.118 202.765 153.038 203.733 150.531L200.319 148.839C199.737 150.524 198.561 151.938 197.011 152.817ZM190.549 142.979C190.549 142.979 190.61 142.979 190.633 142.918C191.111 142.62 191.641 142.416 192.195 142.316C192.752 142.223 193.322 142.241 193.872 142.369C194.421 142.5 194.939 142.738 195.396 143.07C195.852 143.402 196.238 143.822 196.531 144.305L188.72 148.877C188.229 147.85 188.145 146.675 188.484 145.588C188.824 144.501 189.561 143.583 190.549 143.017V142.979Z" fill="#1032CF"/>
<path d="M118.586 155.5C117.648 156.506 116.511 157.308 115.248 157.855C113.987 158.399 112.629 158.682 111.255 158.685C109.909 158.682 108.577 158.413 107.335 157.895C106.093 157.376 104.965 156.619 104.016 155.664C103.066 154.71 102.314 153.578 101.802 152.333C101.291 151.089 101.029 149.755 101.032 148.409C101.036 147.063 101.305 145.731 101.823 144.489C102.341 143.247 103.099 142.119 104.053 141.169C105.008 140.22 106.139 139.468 107.384 138.956C108.629 138.444 109.963 138.183 111.309 138.186C113.981 138.181 116.546 139.236 118.441 141.12C119.586 139.518 121.096 138.212 122.846 137.31C121.032 135.387 118.769 133.943 116.261 133.108C113.752 132.273 111.076 132.073 108.471 132.524C105.866 132.976 103.414 134.066 101.333 135.698C99.2525 137.329 97.6083 139.45 96.5476 141.871C95.4869 144.293 95.0427 146.94 95.2547 149.575C95.4666 152.21 96.3282 154.752 97.7624 156.973C99.1965 159.194 101.159 161.025 103.473 162.303C105.788 163.58 108.383 164.264 111.027 164.294H111.141C113.367 164.279 115.567 163.808 117.604 162.908C119.641 162.009 121.472 160.702 122.983 159.066C121.293 158.185 119.797 156.972 118.586 155.5Z" fill="#1032CF"/>
<path d="M127.726 138.491C126.426 138.475 125.135 138.72 123.931 139.211C122.727 139.702 121.633 140.428 120.715 141.348C119.796 142.268 119.07 143.363 118.58 144.567C118.091 145.772 117.847 147.062 117.864 148.363C117.881 149.663 118.158 150.946 118.678 152.138C119.199 153.33 119.952 154.405 120.895 155.301C121.837 156.197 122.949 156.895 124.166 157.354C125.382 157.814 126.678 158.025 127.977 157.976C130.541 157.952 132.991 156.911 134.789 155.083C136.586 153.254 137.584 150.786 137.564 148.222V148.077C137.524 145.504 136.466 143.051 134.623 141.254C132.779 139.458 130.3 138.464 127.726 138.491ZM127.977 153.328C126.622 153.308 125.328 152.76 124.37 151.801C123.412 150.842 122.866 149.547 122.849 148.192C122.85 147.437 123.017 146.691 123.34 146.009C123.662 145.326 124.131 144.723 124.714 144.243C125.296 143.762 125.977 143.416 126.709 143.229C127.44 143.043 128.204 143.02 128.945 143.162C129.956 143.362 130.884 143.858 131.612 144.587C132.329 145.306 132.817 146.221 133.014 147.217C133.211 148.213 133.109 149.245 132.72 150.182C132.331 151.12 131.673 151.922 130.829 152.485C129.985 153.049 128.992 153.35 127.977 153.351V153.328Z" fill="#1032CF"/>
<path d="M147.976 138.491C146.698 138.503 145.436 138.761 144.257 139.253C143.08 139.757 142.015 140.49 141.125 141.409C139.78 142.789 138.874 144.536 138.523 146.431C138.171 148.325 138.39 150.281 139.15 152.051C139.91 153.821 141.178 155.326 142.794 156.375C144.41 157.425 146.301 157.971 148.227 157.946C150.79 157.918 153.237 156.875 155.034 155.048C156.83 153.22 157.83 150.754 157.813 148.192V148.047C157.765 145.478 156.705 143.033 154.862 141.243C153.019 139.454 150.544 138.464 147.976 138.491ZM148.227 153.328C146.87 153.312 145.574 152.765 144.615 151.805C143.657 150.845 143.112 149.548 143.098 148.192C143.101 147.18 143.404 146.191 143.968 145.351C144.533 144.512 145.333 143.858 146.268 143.472C147.204 143.087 148.233 142.987 149.225 143.186C150.217 143.384 151.128 143.872 151.843 144.588C152.558 145.304 153.045 146.216 153.242 147.209C153.439 148.201 153.338 149.23 152.951 150.165C152.564 151.1 151.909 151.899 151.068 152.462C150.228 153.025 149.239 153.326 148.227 153.328Z" fill="#1032CF"/>
<path d="M234.426 157.975C235.703 157.976 236.966 157.723 238.144 157.231C239.321 156.739 240.389 156.018 241.285 155.109C242.178 154.206 242.885 153.135 243.363 151.958C243.842 150.781 244.083 149.521 244.074 148.251V148.106C244.036 146.177 243.429 144.303 242.329 142.718C241.378 141.33 240.083 140.211 238.57 139.472C237.058 138.732 235.379 138.398 233.699 138.501C232.019 138.603 230.394 139.14 228.983 140.058C227.572 140.976 226.423 142.244 225.648 143.738C224.873 145.233 224.499 146.903 224.561 148.585C224.624 150.267 225.122 151.905 226.006 153.337C226.891 154.769 228.131 155.948 229.607 156.758C231.083 157.568 232.743 157.982 234.426 157.959V157.975ZM234.564 143.061C235.75 143.057 236.901 143.463 237.821 144.211C238.741 144.96 239.373 146.004 239.61 147.166C239.847 148.329 239.673 149.537 239.119 150.586C238.565 151.634 237.665 152.459 236.571 152.918C235.478 153.377 234.259 153.444 233.122 153.105C231.985 152.767 231.001 152.045 230.336 151.063C229.672 150.08 229.368 148.898 229.478 147.717C229.587 146.536 230.103 145.429 230.936 144.585C231.411 144.105 231.975 143.723 232.598 143.462C233.22 143.2 233.888 143.064 234.564 143.061Z" fill="#1032CF"/>
<path d="M20.979 114.44C20.979 118.86 17.9308 122.06 12.9699 122.06C8.00905 122.06 4.96089 118.852 4.96089 114.44V93.3848H0V114.867C0 121.725 5.1133 126.61 12.9547 126.61C20.7961 126.61 25.9094 121.763 25.9094 114.867V93.3848H20.9561L20.979 114.44Z" fill="#1032CF"/>
<path d="M43.7136 112.299L39.8196 111.385C37.1524 110.775 35.9332 109.861 36.0094 108.184C36.0094 106.279 38.0669 104.984 40.734 104.984C43.7136 104.984 45.0853 106.66 45.6187 108.261L49.9623 107.499C48.9717 103.688 45.9997 101.166 40.734 101.166C35.1711 101.151 31.2466 104.062 31.2466 108.413C31.2466 111.918 33.3803 114.212 37.9602 115.203L42.0828 116.117C44.4452 116.651 45.512 117.718 45.512 119.242C45.512 121.147 43.4545 122.602 40.3225 122.602C37.503 122.602 35.6741 121.383 35.0644 118.937L30.4922 119.623C31.2542 123.974 34.9196 126.412 40.3987 126.412C46.3503 126.412 50.3967 123.288 50.3967 118.861C50.4272 115.431 48.2096 113.298 43.7136 112.299Z" fill="#1032CF"/>
<path d="M64.7739 101.15C57.9155 101.15 53.4805 106.34 53.4805 113.892C53.4805 121.444 57.9156 126.488 65.1397 126.488C70.474 126.488 74.2842 123.821 75.3587 119.851L70.8702 119.013C70.032 121.299 67.9745 122.526 65.2311 122.526C61.1085 122.526 58.3728 119.851 58.2889 115.126H75.6635V113.45C75.5873 104.595 70.3216 101.15 64.7739 101.15ZM58.1975 111.613C58.4261 108.108 60.9409 105.136 64.7587 105.136C68.5765 105.136 70.855 107.879 70.9312 111.613H58.1975Z" fill="#1032CF"/>
<path d="M84.6641 105.365H84.4355V101.471H79.8633V125.956H84.6718V111.005C84.6718 107.804 87.1103 105.518 90.5395 105.518C91.3904 105.501 92.2395 105.603 93.0618 105.823V101.25C92.3756 101.183 91.686 101.158 90.9967 101.174C89.6303 101.097 88.2755 101.464 87.1353 102.221C85.995 102.978 85.1307 104.084 84.6718 105.373L84.6641 105.365Z" fill="#1032CF"/>
<path d="M105.411 105.212C106.664 105.153 107.897 105.543 108.888 106.311C109.88 107.079 110.565 108.176 110.821 109.404H115.477C114.944 104.443 110.905 101.166 105.334 101.166C98.3923 101.166 93.9648 106.356 93.9648 113.831C93.9648 121.307 98.2399 126.489 105.395 126.489C111.187 126.489 114.929 122.983 115.462 118.251H110.806C110.56 119.485 109.878 120.589 108.884 121.36C107.89 122.131 106.652 122.518 105.395 122.45C101.349 122.45 98.7581 119.089 98.7581 113.755C98.7581 108.421 101.349 105.212 105.411 105.212Z" fill="#1032CF"/>
<path d="M129.661 101.15C122.871 101.15 118.375 106.34 118.375 113.892C118.375 121.444 122.795 126.473 130.042 126.473C135.376 126.473 139.186 123.806 140.268 119.836L135.765 118.997C134.927 121.284 132.869 122.51 130.118 122.51C126.003 122.51 123.336 119.836 123.183 115.111H140.573V113.434C140.497 104.595 135.231 101.15 129.661 101.15ZM123.107 111.598C123.336 108.093 125.851 105.121 129.661 105.121C133.471 105.121 135.757 107.864 135.841 111.598H123.107Z" fill="#1032CF"/>
<path d="M156.819 101.15C153.162 101.15 150.723 102.827 149.572 105.425H149.268V101.47H144.695V125.955H149.496V111.385C149.496 107.498 151.866 105.212 155.219 105.212C158.42 105.212 160.409 107.346 160.409 110.851V125.879H165.209V110.295C165.133 104.366 161.78 101.15 156.819 101.15Z" fill="#1032CF"/>
<path d="M179.696 122.069C178.172 122.069 176.8 121.536 176.8 118.785V105.289H181.83V101.479H176.793V95.6035H171.992V101.471H168.41V105.281H171.992V119.76C171.992 124.188 175.352 126.398 179.163 126.321C180.231 126.343 181.294 126.162 182.295 125.788L181.449 121.825C180.876 121.975 180.288 122.057 179.696 122.069Z" fill="#1032CF"/>
<path d="M190.836 105.365H190.607V101.471H186.035V125.956H190.844V111.005C190.844 107.804 193.282 105.518 196.711 105.518C197.562 105.501 198.411 105.603 199.234 105.823V101.25C198.548 101.183 197.858 101.158 197.169 101.174C195.802 101.097 194.447 101.464 193.307 102.221C192.167 102.978 191.303 104.084 190.844 105.373L190.836 105.365Z" fill="#1032CF"/>
<path d="M204.493 92.0057C203.718 91.9848 202.965 92.268 202.395 92.7949C201.826 93.3217 201.485 94.0504 201.445 94.8253C201.461 95.2124 201.551 95.593 201.712 95.9455C201.873 96.2962 202.102 96.6116 202.386 96.8732C202.67 97.1348 203.003 97.3375 203.366 97.4695C203.729 97.6005 204.115 97.66 204.501 97.6448C204.888 97.6709 205.277 97.6191 205.644 97.4924C206.012 97.3607 206.349 97.156 206.635 96.8904C206.91 96.6307 207.128 96.3167 207.275 95.9683C207.433 95.6106 207.513 95.2238 207.511 94.8329C207.513 94.4445 207.432 94.0601 207.275 93.7051C207.125 93.3519 206.904 93.033 206.627 92.7677C206.339 92.507 206.002 92.3051 205.637 92.1734C205.272 92.0379 204.882 91.9807 204.493 92.0057Z" fill="#1032CF"/>
<path d="M206.941 101.471H202.133V125.955H206.941V101.471Z" fill="#1032CF"/>
<path d="M222.517 105.212C223.771 105.152 225.006 105.54 225.999 106.309C226.992 107.077 227.678 108.174 227.935 109.404H232.583C232.05 104.443 228.011 101.166 222.44 101.166C215.475 101.151 211.086 106.356 211.086 113.831C211.086 121.307 215.353 126.489 222.517 126.489C228.316 126.489 232.05 122.983 232.583 118.251H227.935C227.694 119.492 227.013 120.604 226.018 121.382C225.022 122.161 223.779 122.553 222.517 122.488C218.478 122.488 215.879 119.127 215.879 113.793C215.879 108.459 218.531 105.212 222.517 105.212Z" fill="#1032CF"/>
<path d="M248.656 112.299L244.77 111.385C242.095 110.775 240.876 109.861 240.959 108.184C240.959 106.279 243.024 104.984 245.692 104.984C248.664 104.984 250.035 106.66 250.569 108.261L254.92 107.499C253.929 103.688 250.95 101.166 245.692 101.166C240.121 101.166 236.235 104.062 236.235 108.413C236.235 111.918 238.368 114.212 242.948 115.203L247.063 116.117C249.426 116.651 250.492 117.718 250.492 119.242C250.492 121.147 248.435 122.602 245.311 122.602C242.491 122.602 240.655 121.383 240.045 118.937L235.473 119.623C236.235 123.974 239.892 126.412 245.379 126.412C251.331 126.412 255.37 123.288 255.37 118.861C255.37 115.431 253.16 113.298 248.656 112.299Z" fill="#1032CF"/>
</svg>
