<svg width="25" height="24" viewBox="0 0 25 24" fill="none" xmlns="http://www.w3.org/2000/svg">
<path d="M15.5 1.50391H9.5V3.50391H15.5V1.50391ZM11.5 14.5039H13.5V8.50391H11.5V14.5039ZM19.53 7.88391L20.95 6.46391C20.52 5.95391 20.05 5.47391 19.54 5.05391L18.12 6.47391C16.57 5.23391 14.62 4.49391 12.5 4.49391C7.53 4.49391 3.5 8.52391 3.5 13.4939C3.5 18.4639 7.52 22.4939 12.5 22.4939C17.48 22.4939 21.5 18.4639 21.5 13.4939C21.5 11.3839 20.76 9.43391 19.53 7.88391ZM12.5 20.5039C8.63 20.5039 5.5 17.3739 5.5 13.5039C5.5 9.63391 8.63 6.50391 12.5 6.50391C16.37 6.50391 19.5 9.63391 19.5 13.5039C19.5 17.3739 16.37 20.5039 12.5 20.5039Z" fill="white"/>
</svg>
