<svg width="177" height="47" viewBox="0 0 177 47" fill="none" xmlns="http://www.w3.org/2000/svg">
<path d="M32.9761 1.08203V18.5877C32.9761 19.9397 33.3846 20.6439 34.3986 20.6439C35.4689 20.6439 35.7928 19.827 35.7928 18.5877V1.08203H40.2713V18.306C40.2713 22.3761 38.3983 24.39 34.3141 24.39C30.2299 24.39 28.5117 22.4465 28.5117 18.2638V1.08203H32.9761Z" fill="black"/>
<path d="M46.5212 16.982V18.5734C46.5212 20.0803 46.8875 20.7845 47.9155 20.7845C48.9436 20.7845 49.1689 19.7423 49.1689 18.6579C49.1689 16.4891 48.7605 15.8694 46.4086 13.8836C43.8173 11.6866 42.4793 10.391 42.4793 6.99686C42.4793 3.60276 43.5778 0.6875 47.9437 0.6875C52.5771 0.6875 53.2672 3.84218 53.2672 6.46169V7.78553H49.0703V6.41944C49.0703 5.02518 48.845 4.3351 47.9718 4.3351C47.155 4.3351 46.8874 5.03927 46.8874 6.33494C46.8874 7.71511 47.1409 8.4052 49.0422 9.88395C52.4363 12.5316 53.6474 14.0386 53.6474 17.8129C53.6474 21.5872 52.4081 24.3758 47.8451 24.3758C43.282 24.3758 42.1836 21.7422 42.1836 18.3199V16.9397H46.5212V16.9679V16.982Z" fill="black"/>
<path d="M64.7765 13.912H60.0163V20.1791H65.5793L65.0582 24.0661H55.5801V1.08203H65.03V4.99721H60.0304V10.0391H64.7906V13.9261L64.7765 13.912Z" fill="black"/>
<path d="M71.5979 14.081V24.0802H67.1758V1.08203H72.9358C76.8088 1.08203 78.7101 2.77204 78.7101 6.79989V7.63081C78.7101 10.9122 77.4003 11.884 76.4145 12.3487C77.851 13.0388 78.527 14.0951 78.527 17.292C78.527 19.5031 78.4847 22.869 78.6819 24.0661H74.3865C74.1048 23.024 74.1189 20.0242 74.1189 17.0948C74.1189 14.5035 73.8231 14.0669 72.1331 14.0669H71.612L71.5979 14.081ZM71.612 10.6024H72.1613C73.64 10.6024 74.2456 10.1377 74.2456 7.99697V6.88439C74.2456 5.3493 73.9357 4.57471 72.3021 4.57471H71.612V10.6024Z" fill="black"/>
<path d="M92.1189 16.5758V17.8152C92.1189 20.7163 91.5837 24.4203 86.3024 24.4203C82.4013 24.4203 80.6973 22.35 80.6973 18.1109V6.8442C80.6973 2.84452 82.6971 0.746094 86.3869 0.746094C91.2598 0.746094 92.0485 3.94302 92.0485 6.94278V8.39337H87.5841V6.43578C87.5841 5.16828 87.3164 4.52044 86.3869 4.52044C85.4574 4.52044 85.1758 5.12603 85.1758 6.43578V18.6038C85.1758 19.8291 85.387 20.6741 86.3869 20.6741C87.3868 20.6741 87.6404 19.9699 87.6404 18.5052V16.5899H92.1189V16.5758Z" fill="black"/>
<path d="M103.212 13.912H98.4518V20.1791H104.015L103.494 24.0661H94.0156V1.08203H103.466V4.99721H98.4659V10.0391H103.226V13.9261L103.212 13.912Z" fill="black"/>
<path d="M105.617 24.0661V1.08203H110.532C111.265 3.88463 113.574 14.2922 113.757 15.3063H113.856C113.617 12.2361 113.462 8.06739 113.462 4.85638V1.08203H117.574V24.0802H112.631C112.152 21.8832 109.631 9.99682 109.476 9.26448H109.363C109.532 11.9685 109.673 16.5456 109.673 20.165V24.0802H105.631L105.617 24.0661Z" fill="black"/>
<path d="M122.469 4.99721H119.117V1.08203H130.285V4.99721H126.905V24.0802H122.483V4.99721H122.469Z" fill="black"/>
<path d="M136.268 14.081V24.0802H131.846V1.08203H137.606C141.479 1.08203 143.38 2.77204 143.38 6.79989V7.63081C143.38 10.9122 142.07 11.884 141.084 12.3487C142.521 13.0388 143.197 14.0951 143.197 17.292C143.197 19.5031 143.155 22.869 143.352 24.0661H139.056C138.775 23.024 138.789 20.0242 138.789 17.0948C138.789 14.5035 138.493 14.0669 136.803 14.0669H136.282L136.268 14.081ZM136.282 10.6024H136.831C138.31 10.6024 138.916 10.1377 138.916 7.99697V6.88439C138.916 5.3493 138.606 4.57471 136.972 4.57471H136.282V10.6024Z" fill="black"/>
<path d="M150.196 1.08203V24.0802H145.773V1.08203H150.196Z" fill="black"/>
<path d="M164.045 16.5758V17.8152C164.045 20.7163 163.509 24.4203 158.228 24.4203C154.327 24.4203 152.623 22.35 152.623 18.1109V6.8442C152.623 2.84452 154.623 0.746094 158.313 0.746094C163.186 0.746094 163.974 3.94302 163.974 6.94278V8.39337H159.51V6.43578C159.51 5.16828 159.242 4.52044 158.313 4.52044C157.383 4.52044 157.102 5.12603 157.102 6.43578V18.6038C157.102 19.8291 157.313 20.6741 158.313 20.6741C159.313 20.6741 159.566 19.9699 159.566 18.5052V16.5899H164.045V16.5758Z" fill="black"/>
<path d="M169.873 16.982V18.5734C169.873 20.0803 170.239 20.7845 171.267 20.7845C172.295 20.7845 172.521 19.7423 172.521 18.6579C172.521 16.4891 172.112 15.8694 169.76 13.8836C167.169 11.6866 165.831 10.391 165.831 6.99686C165.831 3.60276 166.929 0.6875 171.295 0.6875C175.929 0.6875 176.619 3.84218 176.619 6.46169V7.78553H172.422V6.41944C172.422 5.02518 172.197 4.3351 171.323 4.3351C170.507 4.3351 170.239 5.03927 170.239 6.33494C170.239 7.71511 170.493 8.4052 172.394 9.88395C175.788 12.5316 176.999 14.0386 176.999 17.8129C176.999 21.5872 175.76 24.3758 171.197 24.3758C166.634 24.3758 165.535 21.7422 165.535 18.3199V16.9397H169.873V16.9679V16.982Z" fill="black"/>
<path d="M0.689453 1.07422V12.7212C0.689453 19.1432 5.92846 24.3681 12.3786 24.3681C18.8288 24.3681 24.0678 19.1432 24.0678 12.7212V1.07422H0.70355H0.689453ZM20.6175 12.7353C20.6175 17.2701 16.9135 20.96 12.3646 20.96C7.81562 20.96 4.11171 17.2701 4.11171 12.7353V4.51057H20.6315V12.7353H20.6175Z" fill="black"/>
<path d="M9.99104 16.9087H13.9626L18.5116 7.33203H14.5541L11.8078 13.1062L10.5122 10.7965H6.55469L10.0192 16.8806L9.99104 16.9087Z" fill="black"/>
<path d="M10.3716 41.3689H12.4982C12.4419 42.5237 12.2165 43.5096 11.8081 44.3405C11.3997 45.1714 10.8082 45.8193 10.0195 46.2558C9.23082 46.7065 8.25905 46.9178 7.09013 46.9178C6.25921 46.9178 5.49871 46.7488 4.80862 46.4108C4.13262 46.0728 3.55523 45.608 3.07639 44.9883C2.59756 44.3687 2.23135 43.6363 1.97785 42.7632C1.72435 41.89 1.59766 40.9182 1.59766 39.8338V36.7355C1.59766 35.6651 1.72435 34.6934 1.97785 33.8202C2.23135 32.947 2.61166 32.2006 3.09049 31.595C3.58341 30.9754 4.17485 30.5106 4.87902 30.1726C5.58319 29.8346 6.38596 29.6797 7.27322 29.6797C8.37172 29.6797 9.28719 29.8909 10.0477 30.3275C10.8082 30.7641 11.3856 31.3979 11.794 32.2288C12.2024 33.0597 12.4418 34.0737 12.47 35.2849H10.3434C10.2871 34.3976 10.1462 33.6794 9.935 33.1301C9.70966 32.5809 9.38573 32.1724 8.94914 31.9049C8.51256 31.6373 7.94921 31.5105 7.25912 31.5105C6.63945 31.5105 6.11836 31.6373 5.66769 31.8767C5.21702 32.1161 4.8509 32.4823 4.56923 32.933C4.28756 33.3836 4.0622 33.9329 3.92136 34.5666C3.78053 35.2145 3.69607 35.9186 3.69607 36.7073V39.8197C3.69607 40.5521 3.76649 41.2422 3.87916 41.89C3.99183 42.5378 4.18895 43.0871 4.45654 43.5659C4.72412 44.0447 5.07619 44.425 5.4987 44.6926C5.93528 44.9602 6.45643 45.0869 7.06202 45.0869C7.8366 45.0869 8.45627 44.9602 8.90694 44.7067C9.35761 44.4532 9.69557 44.0588 9.9209 43.4955C10.1462 42.9462 10.2871 42.228 10.3575 41.3266V41.3689H10.3716Z" fill="black"/>
<path d="M14.6523 41.0417V39.8587C14.6523 38.901 14.7791 38.0419 15.0185 37.3096C15.2579 36.5773 15.61 35.9576 16.0466 35.4788C16.4832 34.9858 17.0043 34.6197 17.5817 34.3662C18.1591 34.1127 18.7929 34 19.4548 34C20.1167 34 20.7786 34.1267 21.3561 34.3662C21.9335 34.6056 22.4546 34.9858 22.9053 35.4788C23.3419 35.9717 23.6939 36.5773 23.9333 37.3096C24.1728 38.0419 24.2995 38.8869 24.2995 39.8587V41.0417C24.2995 41.9994 24.1728 42.8584 23.9333 43.5908C23.6939 44.3231 23.3419 44.9428 22.9053 45.4216C22.4687 45.9145 21.9476 46.2807 21.3701 46.5201C20.7927 46.7596 20.1449 46.8863 19.4829 46.8863C18.821 46.8863 18.1732 46.7596 17.5958 46.5201C17.0184 46.2807 16.4973 45.9005 16.0466 45.4216C15.61 44.9287 15.2579 44.3231 15.0185 43.5908C14.7791 42.8584 14.6523 42.0134 14.6523 41.0417ZM16.6945 39.8587V41.0417C16.6945 41.7177 16.7649 42.3233 16.9057 42.8303C17.0466 43.3373 17.2437 43.7739 17.4972 44.126C17.7507 44.478 18.0465 44.7315 18.3845 44.9146C18.7225 45.0836 19.0886 45.1681 19.4829 45.1681C19.9477 45.1681 20.3421 45.0836 20.7083 44.9146C21.0604 44.7456 21.3561 44.478 21.5814 44.126C21.8068 43.7739 21.9758 43.3514 22.1025 42.8303C22.2152 42.3233 22.2715 41.7177 22.2715 41.0417V39.8587C22.2715 39.1827 22.2011 38.5771 22.0602 38.0701C21.9194 37.5631 21.7222 37.1406 21.4687 36.7744C21.2152 36.4223 20.9195 36.1548 20.5674 35.9858C20.2153 35.8168 19.8492 35.7323 19.4548 35.7323C19.0605 35.7323 18.6943 35.8168 18.3563 35.9858C18.0183 36.1548 17.7225 36.4223 17.469 36.7744C17.2296 37.1265 17.0184 37.5631 16.8916 38.0701C16.7508 38.5771 16.6804 39.1686 16.6804 39.8587H16.6945Z" fill="black"/>
<path d="M26.5215 41.0417V39.8587C26.5215 38.901 26.6482 38.0419 26.8876 37.3096C27.127 36.5773 27.4791 35.9576 27.9157 35.4788C28.3523 34.9858 28.8733 34.6197 29.4508 34.3662C30.0282 34.1127 30.662 34 31.3239 34C31.9858 34 32.6477 34.1267 33.2251 34.3662C33.8025 34.6056 34.3237 34.9858 34.7743 35.4788C35.2109 35.9717 35.563 36.5773 35.8024 37.3096C36.0418 38.0419 36.1686 38.8869 36.1686 39.8587V41.0417C36.1686 41.9994 36.0418 42.8584 35.8024 43.5908C35.563 44.3231 35.2109 44.9428 34.7743 45.4216C34.3377 45.9145 33.8166 46.2807 33.2392 46.5201C32.6618 46.7596 32.014 46.8863 31.3521 46.8863C30.6902 46.8863 30.0423 46.7596 29.4649 46.5201C28.8874 46.2807 28.3664 45.9005 27.9157 45.4216C27.4791 44.9287 27.127 44.3231 26.8876 43.5908C26.6482 42.8584 26.5215 42.0134 26.5215 41.0417ZM28.5635 39.8587V41.0417C28.5635 41.7177 28.634 42.3233 28.7748 42.8303C28.9156 43.3373 29.1128 43.7739 29.3663 44.126C29.6198 44.478 29.9155 44.7315 30.2535 44.9146C30.5915 45.0836 30.9577 45.1681 31.3521 45.1681C31.8168 45.1681 32.2112 45.0836 32.5773 44.9146C32.9294 44.7456 33.2252 44.478 33.4505 44.126C33.6758 43.7739 33.8448 43.3514 33.9716 42.8303C34.0842 42.3233 34.1406 41.7177 34.1406 41.0417V39.8587C34.1406 39.1827 34.0701 38.5771 33.9293 38.0701C33.7884 37.5631 33.5913 37.1406 33.3378 36.7744C33.0843 36.4223 32.7885 36.1548 32.4364 35.9858C32.0844 35.8168 31.7182 35.7323 31.3239 35.7323C30.9295 35.7323 30.5634 35.8168 30.2254 35.9858C29.8874 36.1548 29.5917 36.4223 29.3382 36.7744C29.0987 37.1265 28.8874 37.5631 28.7607 38.0701C28.6199 38.5771 28.5495 39.1686 28.5495 39.8587H28.5635Z" fill="black"/>
<path d="M40.8741 29.0117V46.6864H38.832V29.0117H40.8741ZM47.1976 34.2367L42.7472 40.039L40.0009 43.1937L39.8601 40.9263L41.7473 38.3208L44.733 34.2226H47.1976V34.2367ZM45.3245 46.6864L41.8177 40.7573L42.874 38.856L47.7045 46.6864H45.3245Z" fill="black"/>
<path d="M49.5137 30.9206C49.5137 30.5685 49.5982 30.2727 49.7954 30.0474C49.9925 29.808 50.2743 29.6953 50.6545 29.6953C51.0348 29.6953 51.3164 29.808 51.5277 30.0474C51.7248 30.2868 51.8234 30.5685 51.8234 30.9206C51.8234 31.2727 51.7248 31.5402 51.5277 31.7656C51.3305 31.9909 51.0348 32.1177 50.6545 32.1177C50.2743 32.1177 49.9925 32.005 49.7954 31.7656C49.5982 31.5402 49.5137 31.2586 49.5137 30.9206ZM51.6544 34.2302V46.6799H49.6264V34.2302H51.6544Z" fill="black"/>
<path d="M59.3486 46.9145C58.6022 46.9145 57.9403 46.8018 57.3347 46.5765C56.7291 46.3652 56.2361 46.0131 55.7996 45.5625C55.3771 45.0977 55.0531 44.5203 54.8419 43.8302C54.6306 43.1401 54.5039 42.3092 54.5039 41.3515V39.9432C54.5039 38.8447 54.6306 37.9152 54.8841 37.1688C55.1376 36.4083 55.4898 35.8027 55.9263 35.3379C56.3629 34.8732 56.8699 34.5352 57.4192 34.3239C57.9684 34.1127 58.5317 34 59.1232 34C59.9119 34 60.5738 34.1268 61.123 34.3803C61.6723 34.6338 62.123 35.014 62.4751 35.5069C62.8272 35.9998 63.0806 36.6195 63.2496 37.3518C63.4186 38.0842 63.4891 38.9151 63.4891 39.8728V41.0558H55.6869V39.3094H61.447V39.0278C61.4188 38.3799 61.3343 37.8166 61.1935 37.3237C61.0527 36.8308 60.8274 36.4505 60.5034 36.1688C60.1795 35.8872 59.7147 35.7463 59.1232 35.7463C58.757 35.7463 58.405 35.8168 58.0811 35.9435C57.7571 36.0703 57.4895 36.2956 57.2642 36.5913C57.0389 36.9012 56.8699 37.3378 56.7431 37.8729C56.6164 38.4081 56.5459 39.0982 56.5459 39.9432V41.3515C56.5459 42.0134 56.6164 42.5909 56.7431 43.0697C56.8699 43.5485 57.0671 43.9429 57.3065 44.2527C57.5459 44.5625 57.8557 44.7879 58.236 44.9428C58.6021 45.0977 59.0246 45.1681 59.4894 45.1681C60.1654 45.1681 60.7428 45.0414 61.1794 44.7738C61.6301 44.5062 62.0104 44.1682 62.3484 43.7598L63.4327 45.0414C63.2215 45.3653 62.9257 45.661 62.5596 45.9427C62.1934 46.2244 61.7568 46.4638 61.2498 46.6469C60.7287 46.83 60.1091 46.9145 59.3908 46.9145L59.3626 46.8863L59.3486 46.9145Z" fill="black"/>
<path d="M65.9512 29.0117H67.9932V44.264L67.8242 46.6864H65.9652V29.0117H65.9512ZM75.0068 39.8982V41.0671C75.0068 42.0529 74.9223 42.8979 74.7392 43.6444C74.5561 44.3767 74.2885 44.9964 73.9364 45.4752C73.5703 45.9681 73.1478 46.3202 72.6408 46.5596C72.1338 46.799 71.5422 46.9117 70.8944 46.9117C70.2465 46.9117 69.6832 46.785 69.2184 46.5174C68.7396 46.2639 68.3594 45.8695 68.0355 45.3907C67.7116 44.8978 67.4721 44.3063 67.289 43.6021C67.1059 42.912 66.9793 42.1093 66.9229 41.2502V39.701C66.9933 38.8138 67.12 38.0251 67.289 37.335C67.4721 36.6308 67.7116 36.0393 68.0214 35.5464C68.3312 35.0535 68.7256 34.6732 69.2044 34.4197C69.6692 34.1662 70.2325 34.0254 70.8804 34.0254C71.5282 34.0254 72.1338 34.1381 72.6408 34.3775C73.1619 34.6028 73.5843 34.969 73.9364 35.4478C74.2885 35.9267 74.5561 36.5323 74.7392 37.2787C74.9223 38.0251 75.0068 38.9123 75.0068 39.9263V39.8982ZM72.9647 41.053V39.8841C72.9647 39.194 72.9224 38.5884 72.8379 38.0814C72.7534 37.5744 72.6126 37.1519 72.4013 36.7998C72.1901 36.4618 71.9365 36.2083 71.5985 36.0393C71.2605 35.8703 70.8522 35.7858 70.3593 35.7858C69.9509 35.7858 69.5706 35.8703 69.2607 36.0393C68.9509 36.2083 68.6833 36.4337 68.458 36.7153C68.2326 36.997 68.0495 37.335 67.9087 37.6871C67.7679 38.0392 67.6552 38.4335 67.5848 38.8138V42.0811C67.6834 42.5881 67.8383 43.0529 68.0637 43.5176C68.2749 43.9824 68.5706 44.3485 68.965 44.6443C69.3311 44.94 69.81 45.0809 70.3733 45.0809C70.838 45.0809 71.2324 45.0105 71.5704 44.8415C71.8943 44.6725 72.1619 44.433 72.3732 44.095C72.5844 43.757 72.7394 43.3345 72.8239 42.8275C72.9084 42.3205 72.9647 41.7149 72.9647 41.0249V41.053Z" fill="black"/>
<path d="M77.1899 41.0417V39.8587C77.1899 38.901 77.3166 38.0419 77.5561 37.3096C77.7955 36.5773 78.1475 35.9576 78.5841 35.4788C79.0207 34.9858 79.5418 34.6197 80.1192 34.3662C80.6967 34.1127 81.3304 34 81.9923 34C82.6542 34 83.3162 34.1267 83.8936 34.3662C84.471 34.6056 84.992 34.9858 85.4286 35.4788C85.8652 35.9717 86.2174 36.5773 86.4568 37.3096C86.6962 38.0419 86.8229 38.8869 86.8229 39.8587V41.0417C86.8229 41.9994 86.6962 42.8584 86.4568 43.5908C86.2174 44.3231 85.8652 44.9428 85.4286 45.4216C84.992 45.9145 84.471 46.2807 83.8936 46.5201C83.3162 46.7596 82.6683 46.8863 82.0064 46.8863C81.3445 46.8863 80.6967 46.7596 80.1192 46.5201C79.5418 46.2807 79.0207 45.9005 78.57 45.4216C78.1334 44.9287 77.7814 44.3231 77.542 43.5908C77.3025 42.8584 77.1758 42.0134 77.1758 41.0417H77.1899ZM79.232 39.8587V41.0417C79.232 41.7177 79.3024 42.3233 79.4432 42.8303C79.584 43.3373 79.7812 43.7739 80.0348 44.126C80.2883 44.478 80.584 44.7315 80.922 44.9146C81.26 45.0836 81.6261 45.1681 82.0205 45.1681C82.4852 45.1681 82.8795 45.0836 83.2457 44.9146C83.5978 44.7456 83.8935 44.478 84.1189 44.126C84.3442 43.7739 84.5132 43.3514 84.64 42.8303C84.7526 42.3233 84.809 41.7177 84.809 41.0417V39.8587C84.809 39.1827 84.7386 38.5771 84.5978 38.0701C84.4569 37.5631 84.2597 37.1406 84.0062 36.7744C83.7527 36.4223 83.457 36.1548 83.1049 35.9858C82.7528 35.8168 82.3866 35.7323 81.9923 35.7323C81.5979 35.7323 81.2318 35.8168 80.8938 35.9858C80.5558 36.1548 80.2601 36.4223 80.0066 36.7744C79.7671 37.1265 79.5558 37.5631 79.4291 38.0701C79.2883 38.5771 79.2179 39.1686 79.2179 39.8587H79.232Z" fill="black"/>
<path d="M94.0274 34.235V35.8686H88.2109V34.235H94.0274ZM90.1122 31.207H92.1543V43.6004C92.1543 44.0229 92.2106 44.3468 92.3092 44.5581C92.4077 44.7693 92.5345 44.9102 92.7035 44.9806C92.8725 45.051 93.0415 45.0792 93.2246 45.0792C93.3655 45.0792 93.5204 45.0792 93.6894 45.0228C93.8584 44.9806 93.9711 44.9524 94.0415 44.9383V46.6847C93.8866 46.741 93.7034 46.7833 93.4781 46.8396C93.2528 46.8959 92.957 46.91 92.6049 46.91C92.1684 46.91 91.76 46.8114 91.3797 46.6002C91.0135 46.3889 90.7037 46.0509 90.4642 45.558C90.2248 45.0651 90.1122 44.4173 90.1122 43.5863V31.207Z" fill="black"/>
</svg>
