<svg width="401" height="452" viewBox="0 0 401 452" fill="none" xmlns="http://www.w3.org/2000/svg">
<g clip-path="url(#clip0_61_1545)">
<path d="M372.2 129.9C375.2 129.1 378.4 129 381.6 129.7C392.7 132.2 399.6 143.8 396.9 155.6C396.7 156.5 396.7 157.4 396.8 158.2C396.8 158.3 396.8 158.4 396.8 158.6C396.8 159.5 396.8 160.2 396.5 160.9V161.2C396.4 161.2 396.5 161.5 396.5 161.5C400.7 170.7 401 182.1 395.5 194.8C391.8 203.5 387.3 208 382.7 210.2C378 212.4 373 212.2 368 211C364.4 210.2 360.9 208.9 357.5 207.6C356 207.1 354.6 206.5 353.2 206.1C348.6 204.5 344.1 203.4 340.5 204.6C337 205.7 335 207.2 333.8 209C332.6 210.8 332.4 212.9 332.3 215C332.3 215.3 332.3 215.6 332.3 215.9C332.1 219.9 331.8 224.4 327.1 229.2C324.5 231.9 321.9 233.8 319.2 234.9C316.5 236 313.6 236.3 310.3 235.7C303.6 234.5 295.2 229.5 283.3 219.6L278.2 214.9C278.2 214.9 278.4 214.9 278.5 214.8C279.4 214.5 280.5 213.9 281.5 213.1C282.6 212.2 283.5 211 284.1 209.4C284.6 207.9 284.7 206 284.2 203.7L284.1 203.3C283.8 202.2 283.4 200.8 282.9 199.1C281.2 193.5 278.8 185.1 278.1 176.9C277.6 171.6 277.9 166.4 279.6 162.1C281.2 157.8 284.3 154.5 289.4 152.7C294.6 150.9 299 151 302.8 151.6C304.6 151.9 306.3 152.3 308 152.7H308.2C309.9 153.1 311.4 153.4 312.9 153.6C314.4 153.7 315.8 153.6 317.1 153.2C318.4 152.7 319.6 151.8 320.7 150.3C322.9 147.4 324.6 142.2 326.2 133.7C327.6 125.9 330.9 120.4 335 116.9C339.1 113.4 344.1 111.9 349 112C359 112.2 368.9 119 371.5 129.9L371.7 130.6L372.4 130.4L372.2 129.9Z" fill="black" stroke="white" stroke-width="1.3"/>
<path d="M274.699 203.2C283.099 205.2 290.399 210.8 292.099 221.6C292.799 226.6 293.499 234.4 291.299 241.9C289.099 249.4 284.099 256.5 273.499 260.2C266.899 262.5 258.699 261.4 251.999 258.5C248.699 257.1 245.799 255.2 243.699 253.1C241.599 251 240.399 248.8 240.299 246.7C240.299 246.5 240.299 246.2 240.299 246C239.999 241.2 239.599 233.3 240.799 225.6C241.999 217.5 244.999 209.8 251.499 205.9C256.999 202.7 266.399 201.1 274.899 203.2H274.699Z" fill="black" stroke="white" stroke-width="1.3"/>
<path d="M302.2 293.4L343.5 344.6C343.5 344.6 368 369.6 381.1 381.2C379.5 385.4 387.5 393.5 386.2 397.8C373.9 390.6 339.2 369.1 329.2 359.9C314.4 346.3 286.1 312.8 286.1 312.8L302.2 293.4Z" fill="#00A2FF"/>
<path d="M278.2 449.5L279.2 450.5C279.2 450.5 279.6 449.5 278.2 449.5Z" fill="#3C8F7C"/>
<path d="M267.8 451.1C268.1 450.9 278.6 451.1 279.7 451.1L237 407.3C237 407.3 236.3 407.8 235 408.7C233.2 410 230.4 412.1 226.7 414.5C218.8 419.7 181.2 443.6 169.4 451.1H267.7H267.8Z" fill="#888888"/>
<path d="M253.1 451.1H311.8C312.8 442.8 313.5 437.8 313.3 433.4C312.9 418.2 288 389.3 288 389.3L240.3 395.7H237C236 403.2 234.8 408.4 235 408.6C239.3 416.5 251 436.7 252 440.3C252.3 441.5 252.6 444.9 253 451L253.1 451.1Z" fill="#8E8F90"/>
<path d="M220.3 258.7C220.3 258.7 237 276.9 244.8 276.2L222.1 306.3C222.1 306.3 198.6 281.8 195.8 277.4C195.8 277.4 210 259.3 220.2 258.6L220.3 258.7Z" fill="white"/>
<path d="M233 384.5C236.2 395.6 235 408.6 235 408.6C246.4 409 286 406.9 293.4 393.6C293.7 393.1 275.6 371.3 275.7 361C275.9 345.8 283.6 318.8 284.3 317.3C285.6 314.8 293.9 325.2 293.9 325.2C301.2 323.9 314.8 304 314.8 304C314.8 304 292.2 277 287 275.1C281.8 273.1 241.8 275.9 241.8 275.9C238.9 276.2 232.2 284.5 230.5 287C210.2 316.2 223.2 350.5 233.1 384.5H233Z" fill="white"/>
<path d="M261.5 259.3C261.5 259.3 259.8 274.2 260.8 280C261.8 285.8 260.9 294 248.7 295C236.5 296 244.2 282.1 244.9 276.3C245.6 270.5 244.6 252.9 244.6 252.9L261.6 259.3H261.5Z" fill="#00A2FF"/>
<path d="M245 261.7C244.8 256.9 244.6 252.9 244.6 252.9L261.6 259.3C261.6 259.3 261.2 262.4 260.9 266.2C253.8 268.2 248.4 265.9 245 261.7Z" fill="#00A2FF"/>
<path d="M266.4 214.3C266.4 214.3 273.5 217.6 276.6 225.6C279.7 233.7 278.5 255.1 261.2 261.6C243.9 268.1 235 251.8 237.7 238.4C240.4 225 247 207.7 266.4 214.3Z" fill="#00A2FF"/>
<path d="M235.1 233.5C235.7 237 237.9 239.6 239.9 239.2C241.9 238.8 243.1 235.7 242.5 232.2C241.9 228.7 239.7 226.1 237.7 226.5C235.7 226.9 234.5 230 235.1 233.5Z" fill="#00A2FF"/>
<path d="M272.1 244.9C270.3 248.1 270.5 251.8 272.7 253C274.9 254.2 278.2 252.6 280 249.4C281.8 246.2 281.6 242.5 279.4 241.3C277.2 240.1 273.9 241.7 272.1 244.9Z" fill="#00A2FF"/>
<path d="M125.3 86.2C119.9 82.3 119.1 74.2 123.5 68.2C127.9 62.2 135.8 60.5 141.2 64.4C146.6 68.3 147.4 76.4 143 82.4C138.6 88.4 130.7 90.1 125.3 86.2Z" fill="white"/>
<path d="M219.9 133.5L214.5 140.9C212 144.4 207.1 145.1 203.7 142.6L196.1 137L210.6 117L218.2 122.6C221.6 125.1 222.4 130 219.9 133.5Z" fill="white"/>
<path d="M160.499 155.2C162.699 152.7 168.199 149.9 171.099 149.1C173.999 148.3 186.799 146 188.999 148.8C191.199 151.6 179.299 162.8 179.199 166.6C179.199 170.4 197.799 225.4 202.199 236.2C204.399 241.5 210.899 251.1 216.999 259.5C210.799 261.7 203.999 268.3 199.799 272.9C191.099 260.3 181.999 246.1 179.899 239C175.699 224.7 158.199 157.9 160.399 155.3L160.499 155.2Z" fill="#00A2FF"/>
<path d="M154.5 149.9L190.7 125.5L198.4 135.7L167.5 161.5C166.3 162.5 164.6 162.6 163.3 161.7L154.4 155.6C152.4 154.2 152.4 151.2 154.4 149.9H154.5Z" fill="white"/>
<path d="M135.5 112.7C149.4 112.9 163 117.4 174.2 125.7L197.5 142.8L204.3 137.3C208.4 133.9 211.6 129.6 213.6 124.6L216.8 116.4L193.5 99.3C182.2 91.1 173.8 79.5 169.4 66.3L161.5 42.6L110.7 112.4L135.6 112.8L135.5 112.7Z" fill="#888888"/>
<path d="M152.1 99.4C145.2 97 126.9 102.4 114.6 106.7L110.5 112.3L135.4 112.7C149.3 112.9 162.9 117.4 174.1 125.7L197.4 142.8L204.2 137.3C208.3 133.9 211.5 129.6 213.5 124.6L216.7 116.4C216.7 116.4 207.9 126.2 199 127.6C190.1 129 162.8 103.3 152.1 99.5V99.4Z" fill="#888888"/>
<path d="M102.8 111L157.5 35.9C158.6 34.3 160.8 34 162.4 35.1C164 36.2 164.3 38.4 163.2 40L108.5 115.1C107.4 116.7 105.2 117 103.6 115.9C102 114.8 101.7 112.6 102.8 111Z" fill="#00A2FF"/>
<path d="M178.6 152.2C184.3 147.1 187.3 144.4 188.9 143.3V140.4C189.7 136.3 191.9 138.7 192.6 139.5C192.6 139.5 193.6 144.3 193.2 145C193.2 145 188.6 152.1 186.5 154.8C185.5 156.2 182.2 160 182.2 160L178.7 152L178.6 152.2Z" fill="#00A2FF"/>
<path d="M391.8 389.3C389.5 389.8 387.7 389.9 386.9 389.9C386.9 389.9 387 389.9 387.1 389.9C388.1 390 391.5 390.4 391.6 390.4C395.5 390.2 395.9 393.2 392.6 393.9C389.4 394.6 387.2 394.6 387.2 394.6C387.2 394.6 394.2 395.2 394.7 395.8C396.3 397.8 393.2 400 387.4 398.4C382.4 397 380.9 388.4 380.7 386.2C380 383.4 381 381 381 381L384.7 384.3C384.7 384.3 387.7 386.5 390.7 385.7C393.7 384.9 395 388.5 391.7 389.2L391.8 389.3Z" fill="#00A2FF"/>
<path d="M173.5 135.4C176.5 137.5 175.2 150 173.9 151.1C172.5 152.3 170.4 142.4 169.2 143C168.3 143.4 172.7 151.5 170.8 152C169.6 152.4 165.5 146.4 164.7 146.6C163.4 146.9 167.5 153.1 166 153.4C164.3 153.7 157.6 146.9 157.5 146.5C157.4 146.1 158.4 144 162.5 141.6C165.3 140 166.7 138.5 167.4 138C168.7 136.9 171.8 134.2 173.4 135.4H173.5Z" fill="#00A2FF"/>
<path d="M250.2 246C248.6 245.3 246.8 243.7 246.2 242.9C245.9 244.7 246.3 248.5 249.7 249.3C253.1 250.1 255.7 247.3 256.6 245.8C255.2 246.1 251.8 246.6 250.2 245.9V246Z" fill="#D9D9D9"/>
<path d="M99.1002 72.8L52.2002 64.6" stroke="#00A2FF" stroke-width="2.7"/>
<path d="M110.4 56.6L63.7998 21" stroke="#00A2FF" stroke-width="2.7"/>
<path d="M125.9 42.2L100.9 0.699997" stroke="#00A2FF" stroke-width="2.7"/>
<path d="M130.2 392.8C130.2 395.6 131.9 397.9 134.1 397.9C136.3 397.9 138 395.6 138 392.8C138 390 136.3 387.7 134.1 387.7C131.9 387.7 130.2 390 130.2 392.8Z" fill="#00A2FF"/>
<path d="M129.1 392.8C129.1 395.6 130.8 397.9 133 397.9C135.2 397.9 136.9 395.6 136.9 392.8C136.9 390 135.2 387.7 133 387.7C130.8 387.7 129.1 390 129.1 392.8Z" fill="#00A2FF"/>
<path d="M131.3 392.9C131.3 394.1 132 395 132.9 395C133.8 395 134.5 394 134.5 392.9C134.5 391.8 133.8 390.8 132.9 390.8C132 390.8 131.3 391.8 131.3 392.9Z" fill="black"/>
<path d="M134 386.6V392.2C134 393 133.3 393.7 132.5 393.7C131.7 393.7 131.6 393.5 131.3 393.1L126.3 386.2L134 386.6Z" fill="#C9CED6"/>
<path d="M88.7002 388.3C88.7002 391.1 90.4002 393.4 92.6002 393.4C94.8002 393.4 96.5002 391.1 96.5002 388.3C96.5002 385.5 94.8002 383.2 92.6002 383.2C90.4002 383.2 88.7002 385.5 88.7002 388.3Z" fill="#00A2FF"/>
<path d="M87.5996 388.4C87.5996 391.2 89.2996 393.5 91.4996 393.5C93.6996 393.5 95.3996 391.2 95.3996 388.4C95.3996 385.6 93.6996 383.3 91.4996 383.3C89.2996 383.3 87.5996 385.6 87.5996 388.4Z" fill="#00A2FF"/>
<path d="M89.9004 388.5C89.9004 389.7 90.6004 390.6 91.5004 390.6C92.4004 390.6 93.1004 389.6 93.1004 388.5C93.1004 387.4 92.4004 386.4 91.5004 386.4C90.6004 386.4 89.9004 387.4 89.9004 388.5Z" fill="black"/>
<path d="M92.6004 382.2V387.8C92.6004 388.6 91.9004 389.3 91.1004 389.3C90.3004 389.3 90.2004 389.1 89.9004 388.7L84.9004 381.8L92.6004 382.2Z" fill="#C9CED6"/>
<path d="M134.6 387.5C135.1 387.5 135.5 387.1 135.6 386.6C135.6 386 135.3 385.5 134.7 385.5L85.6004 380C82.9004 379.5 80.7004 377.5 80.0004 374.8L60.8004 290.8C59.7004 286.7 56.1004 283.8 51.9004 283.5L37.0004 282.6C36.4004 282.6 36.0004 283 35.9004 283.6C35.9004 284.2 36.3004 284.6 36.9004 284.7L51.8004 285.6C55.1004 285.8 58.0004 288.2 58.8004 291.4L78.0004 375.4C78.9004 378.8 81.8004 381.4 85.3004 382.1L134.4 387.6C134.4 387.6 134.4 387.6 134.5 387.6L134.6 387.5Z" fill="#D8DEE8"/>
<path d="M101.8 350C102.2 350 102.6 349.7 102.8 349.3L114.4 308.8C114.6 308.3 114.2 307.7 113.7 307.5C113.2 307.3 112.6 307.7 112.4 308.2L100.8 348.7C100.6 349.2 101 349.8 101.5 350C101.5 350 101.7 350 101.8 350Z" fill="#C2C2C2"/>
<path d="M89.9004 348.3C90.4004 348.3 90.8004 348 90.9004 347.5L98.0004 307.4C98.0004 306.8 97.7004 306.3 97.2004 306.2C96.6004 306.2 96.1004 306.5 96.0004 307L88.9004 347.1C88.9004 347.7 89.2004 348.2 89.7004 348.3C89.7004 348.3 89.8004 348.3 89.9004 348.3Z" fill="#C2C2C2"/>
<path d="M82.6004 347C83.2004 347 83.6004 346.5 83.6004 345.9L82.0004 306.2C82.0004 305.6 81.5004 305.2 80.9004 305.2C80.3004 305.2 79.9004 305.7 79.9004 306.3L81.5004 346C81.5004 346.5 82.0004 347 82.5004 347H82.6004Z" fill="#C2C2C2"/>
<path d="M117.9 351.4C118.3 351.4 118.7 351.1 118.9 350.7L132.5 310.2C132.7 309.7 132.4 309.1 131.9 308.9C131.4 308.7 130.8 309 130.6 309.5L117 350C116.8 350.5 117.1 351.1 117.6 351.3C117.7 351.3 117.8 351.3 117.9 351.3V351.4Z" fill="#D8DEE8"/>
<path d="M2 288.1C2 288.1 2.1 288.1 2.2 288.1L35.6 285.4C36.7 285.4 37.5 284.3 37.5 283.2C37.5 282.1 36.4 281.2 35.3 281.3L1.9 284C0.8 284 0 285.1 0 286.2C0 287.3 1 288.1 2 288.1Z" fill="#00A2FF"/>
<path d="M95.0996 399.3C95.0996 402.1 96.7996 404.4 98.9996 404.4C101.2 404.4 102.9 402.1 102.9 399.3C102.9 396.5 101.2 394.2 98.9996 394.2C96.7996 394.2 95.0996 396.5 95.0996 399.3Z" fill="#00A2FF"/>
<path d="M94 399.4C94 402.2 95.7 404.5 97.9 404.5C100.1 404.5 101.8 402.2 101.8 399.4C101.8 396.6 100.1 394.3 97.9 394.3C95.7 394.3 94 396.6 94 399.4Z" fill="#00A2FF"/>
<path d="M96.2998 399.5C96.2998 400.7 96.9998 401.6 97.8998 401.6C98.7998 401.6 99.4998 400.6 99.4998 399.5C99.4998 398.4 98.7998 397.4 97.8998 397.4C96.9998 397.4 96.2998 398.4 96.2998 399.5Z" fill="black"/>
<path d="M98.9998 393.1V398.7C98.9998 399.5 98.2998 400.2 97.4998 400.2C96.6998 400.2 96.5998 400 96.2998 399.6L91.2998 392.7L98.9998 393.1Z" fill="#BFC8D6"/>
<path d="M59.2002 395.7C59.2002 398.5 60.9002 400.8 63.1002 400.8C65.3002 400.8 67.0002 398.5 67.0002 395.7C67.0002 392.9 65.3002 390.6 63.1002 390.6C60.9002 390.6 59.2002 392.9 59.2002 395.7Z" fill="url(#paint0_linear_61_1545)"/>
<path d="M58.0996 395.8C58.0996 398.6 59.7996 400.9 61.9996 400.9C64.1996 400.9 65.8996 398.6 65.8996 395.8C65.8996 393 64.1996 390.7 61.9996 390.7C59.7996 390.7 58.0996 393 58.0996 395.8Z" fill="#00A2FF"/>
<path d="M60.4004 395.9C60.4004 397.1 61.1004 398 62.0004 398C62.9004 398 63.6004 397 63.6004 395.9C63.6004 394.8 62.9004 393.8 62.0004 393.8C61.1004 393.8 60.4004 394.8 60.4004 395.9Z" fill="black"/>
<path d="M63.1004 389.5V395.1C63.1004 395.9 62.4004 396.6 61.6004 396.6C60.8004 396.6 60.7004 396.4 60.4004 396L55.4004 389.1L63.1004 389.5Z" fill="#BFC8D6"/>
<path d="M151.2 311.9C151.7 311.9 152.2 311.5 152.2 311C152.2 310.4 151.8 310 151.3 309.9L63.8996 303.6H63.6996L27.4996 309.8C26.8996 309.8 26.5996 310.4 26.6996 311C26.6996 311.6 27.2996 311.9 27.8996 311.8L63.9996 305.7L151.3 312L151.2 311.9Z" fill="#D8DEE8"/>
<path d="M38.9004 352.8C38.9004 352.8 39.0004 352.8 39.1004 352.8L74.7004 347.3L128.9 352.5C129.5 352.5 130 352.1 130 351.6C130 351 129.6 350.5 129.1 350.5L74.8004 345.3C74.8004 345.3 74.6004 345.3 74.5004 345.3L38.8004 350.8C38.2004 350.8 37.9004 351.4 38.0004 352C38.0004 352.5 38.5004 352.9 39.0004 352.9L38.9004 352.8Z" fill="#C9CED6"/>
<path d="M155.8 229.9L34.5997 281.3C33.7997 281.6 33.2997 282.5 33.5997 283.2L61.0997 348.1C61.3997 348.8 62.2997 349 63.0997 348.7L184.3 297.3C185.1 297 185.6 296.1 185.3 295.4L157.8 230.5C157.5 229.8 156.6 229.6 155.8 229.9Z" fill="white"/>
<path d="M184.8 297.6L63 349.2C62 349.6 60.9 349.2 60.5 348.2L33 283.3C32.6 282.3 33 281.2 34 280.8L155.8 229.2C156.8 228.8 157.9 229.2 158.3 230.2L185.8 295.1C186.2 296.1 185.8 297.2 184.8 297.6ZM34.5 281.9C34.1 282.1 33.9 282.5 34.1 282.9L61.6 347.8C61.8 348.2 62.2 348.4 62.6 348.2L184.4 296.6C184.8 296.4 185 296 184.8 295.6L157.3 230.7C157.1 230.3 156.7 230.1 156.3 230.3L34.5 281.9Z" fill="black"/>
<path d="M161.7 257.2L49.9995 304.6C49.5995 304.7 49.4995 305.2 49.5995 305.5L50.0995 306.6C50.1995 307 50.6995 307.1 50.9995 307L162.7 259.6C163.1 259.5 163.2 259 163.1 258.7L162.6 257.6C162.5 257.2 162 257.1 161.7 257.2Z" fill="#DDDDDD"/>
<path d="M69.5003 288.8L47.3003 298.2C46.9003 298.3 46.8003 298.8 46.9003 299.1L47.4003 300.2C47.5003 300.6 48.0003 300.7 48.3003 300.6L70.5003 291.2C70.9003 291.1 71.0003 290.6 70.9003 290.3L70.4003 289.2C70.3003 288.8 69.8003 288.7 69.5003 288.8Z" fill="#85878A"/>
<path d="M132.7 274.6L51.8999 308.9C51.4999 309 51.3999 309.5 51.4999 309.8L51.9999 310.9C52.0999 311.3 52.5999 311.4 52.8999 311.3L133.7 277C134.1 276.9 134.2 276.4 134.1 276.1L133.6 275C133.5 274.6 133 274.5 132.7 274.6Z" fill="#DDDDDD"/>
<path d="M62.1997 332.6L96.0997 318.2C96.5997 318 97.0997 318.2 97.2997 318.7L100.1 325.3C100.3 325.8 100.1 326.3 99.5997 326.5L65.6997 340.9C65.1997 341.1 64.6997 340.9 64.4997 340.4L61.6997 333.8C61.4997 333.3 61.6997 332.8 62.1997 332.6Z" fill="#00A2FF"/>
<path d="M80.0002 327.5L79.8002 328L81.8002 328.8L78.7002 330.1L78.9002 330.6L82.0002 329.3L81.2002 331.3L81.7002 331.5L82.9002 328.6L80.0002 327.4V327.5Z" fill="white"/>
<path d="M101.2 316.1L135.1 301.7C135.6 301.5 136.1 301.7 136.3 302.2L139.1 308.8C139.3 309.3 139.1 309.8 138.6 310L104.7 324.4C104.2 324.6 103.7 324.4 103.5 323.9L100.7 317.3C100.5 316.8 100.7 316.3 101.2 316.1Z" fill="#00A2FF"/>
<path d="M121 310.9L120.5 310.7L119.7 312.7L117.7 311.9L117.5 312.4L119.5 313.2L118.7 315.2L119.2 315.4L120 313.4L122 314.2L122.2 313.7L120.2 312.9L121 310.9Z" fill="white"/>
<path d="M139.6 299.8L173.5 285.4C174 285.2 174.5 285.4 174.7 285.9L177.5 292.5C177.7 293 177.5 293.5 177 293.7L143.1 308.1C142.6 308.3 142.1 308.1 141.9 307.6L139.1 301C138.9 300.5 139.1 300 139.6 299.8Z" fill="#00A2FF"/>
<path d="M157.9 298.1L156.3 297.5L156.1 298L158.2 298.9L160 294.4L159.5 294.2L157.9 298.2V298.1Z" fill="white"/>
<path d="M172.4 266.4L49.4004 318.5V318.7L172.4 266.6V266.4Z" fill="#DDDDDD"/>
<path d="M64.6004 316.4L68.0004 315C69.3004 314.4 70.8004 315 71.4004 316.4C72.0004 317.7 71.4004 319.3 70.0004 319.8L66.6004 321.2C65.3004 321.8 63.8004 321.2 63.2004 319.8C62.6004 318.5 63.2004 316.9 64.6004 316.4Z" fill="#00A2FF"/>
<path d="M69.8001 319C70.7001 318.6 71.2001 317.5 70.8001 316.6C70.4001 315.7 69.3001 315.2 68.4001 315.6C67.5001 316 67.0001 317.1 67.4001 318C67.8001 318.9 68.9001 319.4 69.8001 319Z" fill="white"/>
<path d="M80.2996 305.6H80.0996L85.0996 317.4H85.2996L80.2996 305.6Z" fill="black"/>
<path d="M80.2996 305.6H80.0996L85.0996 317.4H85.2996L80.2996 305.6Z" fill="#D6D6D6"/>
<path d="M95.4002 303.3L98.8002 301.9C100.1 301.3 101.6 301.9 102.2 303.3C102.8 304.6 102.2 306.2 100.8 306.7L97.4002 308.1C96.1002 308.7 94.6002 308.1 94.0002 306.7C93.4002 305.4 94.0002 303.8 95.4002 303.3Z" fill="#00A2FF"/>
<path d="M100.5 306C101.4 305.6 101.9 304.5 101.5 303.6C101.1 302.7 100 302.2 99.1003 302.6C98.2003 303 97.7003 304.1 98.1003 305C98.5003 305.9 99.6003 306.4 100.5 306Z" fill="white"/>
<path d="M111.1 292.6H110.9L115.9 304.4H116.1L111.2 292.6H111.1Z" fill="black"/>
<path d="M111.1 292.6H110.9L115.9 304.4H116.1L111.2 292.6H111.1Z" fill="#D6D6D6"/>
<path d="M126.2 290.3L129.6 288.9C130.9 288.3 132.4 288.9 133 290.3C133.6 291.6 133 293.2 131.6 293.7L128.2 295.1C126.9 295.7 125.4 295.1 124.8 293.7C124.2 292.4 124.8 290.8 126.2 290.3Z" fill="black"/>
<path d="M127.9 294.4C128.8 294 129.3 292.9 128.9 292C128.5 291.1 127.4 290.6 126.5 291C125.6 291.4 125.1 292.5 125.5 293.4C125.9 294.3 127 294.8 127.9 294.4Z" fill="white"/>
<path d="M141.9 279.5H141.7L146.6 291.3H146.8L141.9 279.5Z" fill="black"/>
<path d="M141.9 279.5H141.7L146.6 291.3H146.8L141.9 279.5Z" fill="#DDDDDD"/>
<path d="M157 277.2L160.4 275.8C161.7 275.2 163.2 275.8 163.8 277.2C164.4 278.5 163.8 280.1 162.4 280.6L159 282C157.7 282.6 156.2 282 155.6 280.6C155 279.3 155.6 277.7 157 277.2Z" fill="black"/>
<path d="M158.7 281.3C159.6 280.9 160.1 279.8 159.7 278.9C159.3 278 158.2 277.5 157.3 277.9C156.4 278.3 155.9 279.4 156.3 280.3C156.7 281.2 157.8 281.7 158.7 281.3Z" fill="white"/>
<path d="M177.5 278.2L54.5 330.3V330.5L177.5 278.4V278.2Z" fill="#D6D6D6"/>
<path d="M145.4 240.6L147.2 244.9C148.2 247.3 150.9 248.4 153.3 247.4C155.7 246.4 156.8 243.7 155.8 241.3L154 237L145.4 240.6ZM154.5 241.8C155.2 243.5 154.5 245.4 152.8 246.1C151.1 246.8 149.2 246.1 148.5 244.3L147.2 241.3L153.2 238.7L154.5 241.7V241.8Z" fill="black"/>
<path d="M151.3 245L152.8 244.4L153 240.2L151.6 240.8V243.4C151.5 243.4 150.7 242.8 150.7 242.8L149.3 243.4L151.5 245.1L151.3 245Z" fill="black"/>
<path d="M121.5 320.9C121.5 320.9 121.7 320.9 121.8 320.9L151.5 311.9C152 311.7 152.3 311.2 152.2 310.6C152 310.1 151.5 309.8 150.9 309.9L121.4 318.9L27.6996 309.8C27.0996 309.8 26.5996 310.2 26.5996 310.7C26.5996 311.3 26.9996 311.8 27.4996 311.8L121.4 321L121.5 320.9Z" fill="#D8DEE8"/>
<path d="M103.5 359C103.9 359 104.2 358.8 104.4 358.4L122.4 320.3C122.6 319.8 122.4 319.2 121.9 318.9C121.4 318.7 120.8 318.9 120.5 319.4L102.8 356.8L38.8998 350.7C38.2998 350.7 37.7998 351.1 37.7998 351.6C37.7998 352.2 38.1998 352.7 38.6998 352.7L103.3 358.8L103.5 359Z" fill="#D8DEE8"/>
<path d="M103.5 359H103.7L129.2 352.6C129.5 352.6 129.7 352.4 129.8 352.1L152.1 311.4C152.4 310.9 152.1 310.3 151.7 310C151.2 309.7 150.6 310 150.3 310.4L128.3 350.7L103.3 357C102.8 357.1 102.4 357.7 102.6 358.2C102.7 358.7 103.1 359 103.6 359H103.5Z" fill="#D8DEE8"/>
<path d="M114.9 334.8C114.9 334.8 115.1 334.8 115.2 334.8L143.2 326.6C143.7 326.4 144 325.9 143.9 325.3C143.7 324.8 143.2 324.5 142.6 324.6L114.8 332.7L32.1996 325.5C31.5996 325.5 31.0996 325.9 31.0996 326.4C31.0996 327 31.4996 327.5 31.9996 327.5L114.8 334.7L114.9 334.8Z" fill="#D8DEE8"/>
<path d="M108.1 349.2C108.1 349.2 108.3 349.2 108.4 349.2L135.2 341.7C135.7 341.5 136.1 341 135.9 340.4C135.7 339.9 135.2 339.5 134.6 339.7L108 347.2L36.3002 340.9C35.7002 340.9 35.2002 341.3 35.2002 341.8C35.2002 342.4 35.6002 342.9 36.1002 342.9L108 349.2H108.1Z" fill="#D8DEE8"/>
<path d="M90.3 357.7C90.7 357.7 91.1 357.4 91.3 357L102.8 318.4C103 317.9 102.7 317.3 102.1 317.1C101.6 316.9 101 317.2 100.8 317.8L89.3 356.4C89.1 356.9 89.4 357.5 90 357.7C90 357.7 90.2 357.7 90.3 357.7Z" fill="#D8DEE8"/>
<path d="M77.5996 356.5C78.0996 356.5 78.4996 356.2 78.5996 355.7L85.4996 316.6C85.4996 316 85.1996 315.5 84.6996 315.4C84.0996 315.4 83.5996 315.7 83.4996 316.2L76.5996 355.3C76.5996 355.9 76.8996 356.4 77.3996 356.5C77.3996 356.5 77.4996 356.5 77.5996 356.5Z" fill="#D8DEE8"/>
<path d="M63.1996 354.9C63.6996 354.9 64.1996 354.5 64.1996 353.9L66.3996 315.1C66.3996 314.5 65.9996 314.1 65.3996 314C64.7996 314 64.3996 314.4 64.2996 315L62.0996 353.8C62.0996 354.4 62.4996 354.8 63.0996 354.9H63.1996Z" fill="#D8DEE8"/>
<path d="M49.6004 353.4C50.2004 353.4 50.6004 352.9 50.6004 352.3L48.5004 312.9C48.5004 312.3 48.0004 311.9 47.4004 311.9C46.8004 311.9 46.4004 312.4 46.4004 313L48.5004 352.4C48.5004 352.9 49.0004 353.4 49.5004 353.4H49.6004Z" fill="#D8DEE8"/>
<path d="M111.2 357C111.6 357 111.9 356.8 112.1 356.4L130.7 317.8C130.9 317.3 130.7 316.7 130.2 316.4C129.7 316.1 129.1 316.4 128.8 316.9L110.2 355.5C110 356 110.2 356.6 110.7 356.9C110.8 356.9 111 357 111.1 357H111.2Z" fill="#D8DEE8"/>
<path d="M121.5 354.4C121.9 354.4 122.2 354.2 122.4 353.8L142.1 314.3C142.4 313.8 142.1 313.2 141.6 312.9C141.1 312.6 140.5 312.9 140.2 313.4L120.5 352.9C120.2 353.4 120.5 354 121 354.3C121.1 354.3 121.3 354.4 121.5 354.4Z" fill="#D8DEE8"/>
<path d="M99.1996 394.7C99.2996 394.7 99.4996 394.7 99.5996 394.7L135 387.5C135.5 387.3 135.8 386.7 135.6 386.2C135.4 385.7 134.8 385.4 134.3 385.6L99.0996 392.7L54.7996 387.3C51.5996 386.9 49.0996 384.7 48.1996 381.6L23.8996 293.3C22.7996 289.3 19.1996 286.4 15.0996 286.1L2.19961 285.2C1.59961 285.2 1.19961 285.6 1.09961 286.1C1.09961 286.7 1.49961 287.1 1.99961 287.2L14.8996 288.1C18.1996 288.3 20.9996 290.7 21.8996 293.9L46.1996 382.2C47.2996 386.1 50.4996 388.9 54.4996 389.4L99.0996 394.9C99.0996 394.9 99.0996 394.9 99.1996 394.9V394.7Z" fill="#D8DEE8"/>
</g>
<defs>
<linearGradient id="paint0_linear_61_1545" x1="67.3002" y1="392.2" x2="65.1002" y2="394" gradientUnits="userSpaceOnUse">
<stop stop-color="#AA80F9"/>
<stop offset="1" stop-color="#6165D7"/>
</linearGradient>
<clipPath id="clip0_61_1545">
<rect width="400.3" height="451.1" fill="white"/>
</clipPath>
</defs>
</svg>
