<svg width="300" height="88" viewBox="0 0 300 88" fill="none" xmlns="http://www.w3.org/2000/svg">
<path d="M88.5623 64.8622C87.5558 64.8079 86.5563 65.0564 85.6953 65.575C84.8342 66.0935 84.1521 66.8579 83.7385 67.7675H83.5288V59.5186H80.2255V81.7231H83.4239V79.1291H83.6861C84.1111 80.0411 84.8032 80.8056 85.6727 81.3236C86.5422 81.8417 87.5489 82.0893 88.5623 82.0344C92.6521 82.0344 95.5884 78.8179 95.5884 73.4224C95.5884 68.0268 92.6521 64.8622 88.5623 64.8622ZM87.8807 79.2848C85.0493 79.2848 83.4763 76.8983 83.4763 73.3705C83.4763 69.8426 84.9969 67.5599 87.8807 67.5599C90.8694 67.5599 92.3375 70.0502 92.3375 73.3705C92.3375 76.6908 90.817 79.2848 87.8807 79.2848Z" fill="#051041"/>
<path d="M104.608 78.0383H104.45L100.203 65.1202H96.6903L102.877 81.9811L102.458 83.0706C101.619 85.3015 100.466 85.4571 98.6303 84.9902L97.8438 87.636C98.5694 87.8817 99.3316 88.0045 100.098 87.9992C102.825 87.9992 104.503 86.5984 105.499 83.9526L112.42 65.0684H108.907L104.608 78.0383Z" fill="#051041"/>
<path d="M136.802 73.8872C136.802 76.8962 134.704 79.0752 131.296 79.0752C127.888 79.0752 125.791 76.8962 125.791 73.8872V59.5684H122.383V74.1985C122.383 78.8677 125.896 82.188 131.296 82.188C136.697 82.188 140.21 78.8677 140.21 74.1985V59.5684H136.802V73.8872Z" fill="#051041"/>
<path d="M152.427 72.4416L149.753 71.8191C147.918 71.404 147.079 70.7815 147.131 69.6401C147.131 68.3431 148.547 67.4612 150.382 67.4612C152.427 67.4612 153.371 68.6025 153.738 69.692L156.726 69.1732C156.045 66.5792 154 64.8672 150.382 64.8672C146.554 64.8672 143.88 66.8386 143.88 69.7958C143.88 72.1822 145.348 73.7386 148.494 74.4131L151.326 75.0356C152.951 75.3988 153.685 76.1251 153.685 77.1627C153.685 78.4597 152.269 79.4454 150.12 79.4454C148.18 79.4454 146.921 78.6153 146.502 76.9552L143.356 77.4221C143.88 80.3792 146.397 82.0394 150.172 82.0394C154.262 82.0394 157.041 79.9123 157.041 76.9033C157.041 74.5687 155.52 73.1161 152.427 72.4416Z" fill="#051041"/>
<path d="M166.898 64.8672C162.179 64.8672 159.138 68.395 159.138 73.5311C159.138 78.6672 162.179 82.0913 167.16 82.0913C170.831 82.0913 173.452 80.2755 174.186 77.5777L171.093 77.0071C170.516 78.5635 169.1 79.3935 167.213 79.3935C164.381 79.3935 162.494 77.5777 162.441 74.3612H174.396V73.2198C174.344 67.2018 170.726 64.8672 166.898 64.8672ZM162.389 71.9747C162.546 69.5882 164.277 67.5649 166.898 67.5649C169.52 67.5649 171.093 69.4326 171.145 71.9747H162.389Z" fill="#051041"/>
<path d="M180.581 67.7225H180.424V65.0767H177.278V81.7301H180.581V71.5616C180.581 69.3827 182.259 67.8263 184.619 67.8263C185.202 67.8169 185.784 67.8867 186.349 68.0338V64.921C185.879 64.8758 185.406 64.8585 184.933 64.8691C183.994 64.8168 183.063 65.0664 182.278 65.5806C181.494 66.0948 180.899 66.8462 180.581 67.7225Z" fill="#051041"/>
<path d="M194.844 67.6168C195.706 67.5777 196.554 67.8433 197.236 68.3661C197.918 68.8889 198.39 69.6347 198.567 70.4702H201.765C201.398 67.098 198.619 64.8672 194.792 64.8672C190.02 64.8672 186.979 68.395 186.979 73.4792C186.979 78.5635 189.915 82.0913 194.844 82.0913C198.829 82.0913 201.398 79.7048 201.765 76.4883H198.567C198.399 77.3283 197.929 78.0798 197.245 78.6042C196.561 79.1286 195.708 79.3905 194.844 79.3417C192.065 79.3417 190.282 77.0589 190.282 73.4274C190.282 69.7958 192.065 67.6168 194.844 67.6168Z" fill="#051041"/>
<path d="M211.519 64.8672C206.852 64.8672 203.758 68.395 203.758 73.5311C203.758 78.6672 206.8 82.0913 211.781 82.0913C215.451 82.0913 218.073 80.2755 218.807 77.5777L215.713 77.0071C215.136 78.5635 213.721 79.3935 211.833 79.3935C209.002 79.3935 207.167 77.5777 207.062 74.3612H219.017V73.2198C218.964 67.2018 215.346 64.8672 211.519 64.8672ZM207.009 71.9747C207.167 69.5882 208.897 67.5649 211.519 67.5649C214.14 67.5649 215.713 69.4326 215.766 71.9747H207.009Z" fill="#051041"/>
<path d="M230.185 64.8672C227.668 64.8672 225.99 66.0085 225.203 67.7725H224.994V65.0747H221.848V81.7282H225.151V71.8191C225.151 69.1732 226.776 67.6168 229.083 67.6168C231.286 67.6168 232.649 69.0695 232.649 71.4559V81.6763H235.952V71.0928C235.9 67.0461 233.593 64.8672 230.185 64.8672Z" fill="#051041"/>
<path d="M245.915 79.0795C244.866 79.0795 243.922 78.7163 243.922 76.8486V67.6659H247.383V65.0719H243.922V61.0771H240.619V65.0719H238.155V67.6659H240.619V77.5231C240.619 80.5321 242.926 82.0366 245.548 81.9847C246.281 81.9974 247.01 81.8743 247.697 81.6216L247.121 78.9238C246.726 79.0227 246.321 79.0749 245.915 79.0795Z" fill="#051041"/>
<path d="M253.571 67.7225H253.414V65.0767H250.268V81.7301H253.571V71.5616C253.571 69.3827 255.249 67.8263 257.608 67.8263C258.192 67.8169 258.774 67.8867 259.338 68.0338V64.921C258.868 64.8758 258.395 64.8585 257.923 64.8691C256.983 64.8168 256.052 65.0664 255.268 65.5806C254.484 66.0948 253.888 66.8462 253.571 67.7225Z" fill="#051041"/>
<path d="M262.955 58.6351C262.421 58.6195 261.903 58.8119 261.51 59.1708C261.118 59.5298 260.884 60.0266 260.858 60.5546C260.867 60.8174 260.928 61.0759 261.039 61.315C261.149 61.5542 261.307 61.7693 261.502 61.9478C261.697 62.1264 261.926 62.2648 262.175 62.3552C262.425 62.4455 262.69 62.4859 262.955 62.4741C263.222 62.4936 263.49 62.4583 263.743 62.3707C263.995 62.283 264.226 62.1448 264.422 61.9646C264.618 61.7845 264.774 61.5663 264.881 61.3237C264.988 61.0811 265.043 60.8193 265.043 60.5546C265.043 60.2899 264.988 60.0281 264.881 59.7855C264.774 59.5429 264.618 59.3247 264.422 59.1446C264.226 58.9644 263.995 58.8262 263.743 58.7385C263.49 58.6509 263.222 58.6157 262.955 58.6351Z" fill="#051041"/>
<path d="M264.634 65.0684H261.331V81.7218H264.634V65.0684Z" fill="#051041"/>
<path d="M275.329 67.6168C276.191 67.5777 277.039 67.8433 277.721 68.3661C278.403 68.8889 278.875 69.6347 279.052 70.4702H282.251C281.883 67.098 279.105 64.8672 275.277 64.8672C270.506 64.8672 267.464 68.395 267.464 73.4792C267.464 78.5635 270.401 82.0913 275.329 82.0913C279.314 82.0913 281.883 79.7048 282.251 76.4883H279.052C278.884 77.3283 278.415 78.0798 277.73 78.6042C277.046 79.1286 276.193 79.3905 275.329 79.3417C272.55 79.3417 270.768 77.0589 270.768 73.4274C270.768 69.7958 272.603 67.6168 275.329 67.6168Z" fill="#051041"/>
<path d="M293.315 72.4416L290.641 71.8191C288.806 71.404 287.967 70.7815 288.019 69.6401C288.019 68.3431 289.435 67.4612 291.27 67.4612C293.315 67.4612 294.259 68.6025 294.626 69.692L297.615 69.1732C296.933 66.5792 294.888 64.8672 291.27 64.8672C287.442 64.8672 284.768 66.8386 284.768 69.7958C284.768 72.1822 286.237 73.7386 289.383 74.4131L292.214 75.0356C293.839 75.3988 294.573 76.1251 294.573 77.1627C294.573 78.4597 293.158 79.4454 291.008 79.4454C289.068 79.4454 287.809 78.6153 287.39 76.9552L284.244 77.4221C284.768 80.3792 287.285 82.0394 291.06 82.0394C295.15 82.0394 297.929 79.9123 297.929 76.9033C297.929 74.5687 296.409 73.1161 293.315 72.4416Z" fill="#051041"/>
<path d="M151.902 48.7259L137.797 30.1529L151.482 14.6409H140.314L127.415 29.9454V1.6709H118.344V48.7778H127.415V40.062L131.453 35.8078L140.524 48.7778H151.902V48.7259Z" fill="#051041"/>
<path d="M157.879 11.2199H158.036C159.474 11.1945 160.846 10.618 161.864 9.61154C162.881 8.60512 163.463 7.24741 163.489 5.82435C163.463 4.40128 162.881 3.04357 161.864 2.03715C160.846 1.03073 159.474 0.454154 158.036 0.428843C156.614 0.418959 155.245 0.962949 154.224 1.94334C153.204 2.92372 152.615 4.26184 152.583 5.66871V5.82435C152.569 6.52361 152.695 7.21865 152.955 7.8693C153.214 8.51995 153.601 9.1133 154.093 9.61503C154.586 10.1168 155.174 10.5169 155.824 10.7924C156.473 11.0678 157.172 11.2131 157.879 11.2199Z" fill="#051041"/>
<path d="M153.318 49.1975H162.127V15.0605H153.318V49.1975Z" fill="#051041"/>
<path d="M281.831 40.6389C281.831 46.9164 285.239 50.081 291.583 50.081C294.211 50.1999 296.812 49.5112 299.029 48.1096L297.246 41.3652C296.323 41.9907 295.218 42.3004 294.1 42.2472H293.89C292.99 42.1159 292.178 41.64 291.628 40.9219C291.079 40.2039 290.837 39.3011 290.954 38.4081V22.9479H297.98V15.114H290.954V5.67188H281.883V15.114H276.22V22.9479H281.883V40.6389H281.831Z" fill="#051041"/>
<path d="M213.353 44.7303C214.621 46.338 216.244 47.6368 218.098 48.5271C219.953 49.4174 221.988 49.8756 224.049 49.8664C232.648 49.8664 239.255 43.3814 239.255 31.916C239.255 20.7099 232.701 13.9656 224.049 13.9656C221.989 13.9618 219.955 14.4224 218.102 15.3123C216.249 16.2022 214.625 17.4981 213.353 19.1017V1.61816H204.282V48.7251H213.353V44.7303ZM213.353 25.8461C214.239 24.637 215.396 23.6473 216.733 22.9543C218.07 22.2612 219.552 21.8837 221.061 21.8513C226.252 21.8513 229.66 25.8461 229.66 31.7085C229.66 37.5709 226.252 41.5656 221.061 41.5656C219.566 41.5456 218.095 41.1895 216.76 40.5244C215.425 39.8593 214.26 38.9026 213.353 37.7265V25.8461Z" fill="#051041"/>
<path d="M189.339 39.7082C187.387 40.9978 185.013 41.5062 182.696 41.1306C180.38 40.755 178.294 39.5235 176.86 37.6849L198.882 25.13L197.99 23.3661C192.328 13.7683 182.575 10.5518 173.714 15.5322C173.452 15.6879 173.19 15.8435 172.98 15.9991C171.026 17.1931 169.329 18.7577 167.988 20.6029C166.648 22.4481 165.689 24.5374 165.168 26.7507C164.646 28.9639 164.572 31.2573 164.95 33.4989C165.328 35.7405 166.15 37.886 167.369 39.812C167.632 40.2789 167.894 40.6939 168.104 41.109C169.344 43.0224 170.954 44.6749 172.841 45.9716C174.729 47.2684 176.856 48.184 179.101 48.6659C181.347 49.1478 183.666 49.1867 185.927 48.7802C188.187 48.3736 190.345 47.5298 192.275 46.297C196.668 43.9425 200.07 40.1169 201.87 35.506L195.526 32.3932C194.433 35.4957 192.233 38.0969 189.339 39.7082ZM177.332 21.6022C177.384 21.5503 177.437 21.5503 177.489 21.4984C178.374 20.9409 179.362 20.5642 180.396 20.3902C181.43 20.2163 182.488 20.2487 183.509 20.4856C184.531 20.7224 185.493 21.1589 186.341 21.7695C187.19 22.38 187.906 23.1521 188.448 24.0405L173.924 32.3932C173.009 30.5012 172.852 28.3367 173.484 26.3348C174.116 24.3329 175.491 22.6421 177.332 21.6022Z" fill="#051041"/>
<path d="M43.5225 44.6366C41.7763 46.4845 39.6655 47.9583 37.3206 48.9667C34.9757 49.975 32.4466 50.4966 29.8898 50.499C24.835 50.4852 19.9926 48.4852 16.4281 44.9388C12.8636 41.3925 10.8689 36.5903 10.8828 31.5888C10.8967 26.5872 12.9181 21.796 16.5023 18.2691C20.0864 14.7422 24.9398 12.7686 29.9947 12.7823C34.9632 12.7771 39.732 14.7167 43.2603 18.1778C45.3925 15.2528 48.1959 12.8702 51.4399 11.2259C47.4189 6.81522 42.1344 3.72236 36.2912 2.35985C30.448 0.997343 24.3238 1.42996 18.7354 3.59999C13.1471 5.77003 8.36023 9.57434 5.01333 14.5055C1.66644 19.4367 -0.0814075 25.2603 0.00291333 31.1997C-0.052954 38.9924 3.01867 46.4886 8.54345 52.0426C14.0682 57.5966 21.5947 60.7545 29.4704 60.8231H29.6801C33.8229 60.792 37.9151 59.9194 41.7032 58.2596C45.4913 56.5997 48.8945 54.1878 51.7021 51.1734C48.5583 49.5619 45.7761 47.3385 43.5225 44.6366Z" fill="#051041"/>
<path d="M60.5087 13.3449C55.7041 13.4068 51.1211 15.3547 47.768 18.7599C44.4149 22.1652 42.5663 26.749 42.6289 31.5028C42.6915 36.2567 44.6601 40.7913 48.1017 44.109C51.5433 47.4267 56.176 49.2558 60.9806 49.1939C61.033 49.1939 61.033 49.1939 61.033 49.2458C65.8002 49.1964 70.3534 47.2795 73.6949 43.9149C77.0364 40.5503 78.8938 36.0124 78.8603 31.2953V31.0359C78.835 28.6804 78.3396 26.353 77.4026 24.1874C76.4656 22.0219 75.1054 20.0608 73.4001 18.417C71.6948 16.7731 69.6781 15.4788 67.4658 14.6083C65.2535 13.7379 62.8892 13.3086 60.5087 13.3449ZM60.9806 40.6337C58.4606 40.5988 56.0538 39.5928 54.2717 37.8296C52.4897 36.0664 51.4729 33.6849 51.4377 31.1916C51.4377 29.3241 51.9974 27.4986 53.046 25.9458C54.0945 24.3931 55.5849 23.1828 57.3287 22.4682C59.0724 21.7535 60.9911 21.5665 62.8423 21.9309C64.6934 22.2952 66.3938 23.1945 67.7284 24.515C69.063 25.8355 69.9718 27.5179 70.34 29.3495C70.7083 31.1811 70.5193 33.0796 69.797 34.8049C69.0747 36.5302 67.8516 38.0049 66.2823 39.0424C64.713 40.0799 62.868 40.6337 60.9806 40.6337Z" fill="#051041"/>
<path d="M98.1578 13.3449C95.7788 13.3756 93.4292 13.8696 91.2431 14.7987C89.0571 15.7278 87.0774 17.0738 85.4171 18.7599C82.064 22.1652 80.2155 26.749 80.278 31.5028C80.3406 36.2567 82.3092 40.7913 85.7508 44.109C89.1924 47.4267 93.8251 49.2558 98.6297 49.1939C98.6821 49.1939 98.6821 49.1939 98.6821 49.2458C103.449 49.1964 108.002 47.2795 111.344 43.9149C114.686 40.5503 116.543 36.0124 116.509 31.2953V31.0359C116.484 28.6804 115.989 26.353 115.052 24.1874C114.115 22.0219 112.754 20.0608 111.049 18.417C109.344 16.7731 107.327 15.4788 105.115 14.6083C102.903 13.7379 100.538 13.3086 98.1578 13.3449ZM98.6297 40.6337C96.1072 40.6067 93.6957 39.6033 91.912 37.8383C90.1282 36.0734 89.1141 33.6874 89.0868 31.1916C89.0868 29.3241 89.6465 27.4986 90.6951 25.9458C91.7436 24.3931 93.234 23.1828 94.9778 22.4682C96.7215 21.7535 98.6402 21.5665 100.491 21.9309C102.343 22.2952 104.043 23.1945 105.377 24.515C106.712 25.8355 107.621 27.5179 107.989 29.3495C108.357 31.1811 108.168 33.0796 107.446 34.8049C106.724 36.5302 105.501 38.0049 103.931 39.0424C102.362 40.0799 100.517 40.6337 98.6297 40.6337Z" fill="#051041"/>
<path d="M258.919 49.1932C261.282 49.1844 263.62 48.7139 265.799 47.8087C267.978 46.9036 269.955 45.5815 271.616 43.9185C273.277 42.2555 274.59 40.2843 275.48 38.1179C276.369 35.9516 276.817 33.6328 276.799 31.2946V31.0352C276.752 27.4905 275.643 24.0392 273.614 21.1177C271.585 18.1962 268.725 15.9356 265.398 14.6219C262.07 13.3082 258.423 13.0003 254.919 13.7372C251.414 14.4741 248.209 16.2227 245.709 18.7618C243.209 21.3009 241.525 24.5166 240.872 28.0022C240.219 31.4878 240.625 35.0867 242.039 38.344C243.453 41.6012 245.811 44.3705 248.816 46.3017C251.82 48.2328 255.336 49.239 258.919 49.1932ZM259.181 21.8006C261.712 21.8006 264.139 22.7954 265.929 24.5662C267.718 26.3369 268.724 28.7385 268.724 31.2428C268.724 33.747 267.718 36.1486 265.929 37.9193C264.139 39.6901 261.712 40.6849 259.181 40.6849C256.65 40.6849 254.223 39.6901 252.433 37.9193C250.643 36.1486 249.638 33.747 249.638 31.2428C249.638 28.7385 250.643 26.3369 252.433 24.5662C254.223 22.7954 256.65 21.8006 259.181 21.8006Z" fill="#051041"/>
</svg>
